<svg width="1920" height="1725" viewBox="0 0 1920 1725" fill="none" xmlns="http://www.w3.org/2000/svg">
<g clip-path="url(#clip0_106_85)">
<mask id="mask0_106_85" style="mask-type:luminance" maskUnits="userSpaceOnUse" x="0" y="0" width="1920" height="1725">
<path d="M1920 0H0V1725H1920V0Z" fill="white"/>
</mask>
<g mask="url(#mask0_106_85)">
<path d="M1382.77 1448.13C1457.11 1515.78 1572.22 1510.37 1639.88 1436.04C1707.53 1361.7 1702.12 1246.59 1627.79 1178.93C1553.45 1111.28 1438.34 1116.69 1370.68 1191.02C1303.03 1265.36 1308.44 1380.47 1382.77 1448.13Z" fill="#5022D3"/>
<path d="M1640.17 1191.33C1565.98 1135.71 1460.25 1144.62 1396.57 1214.59C1332.88 1284.56 1333.94 1390.65 1396.27 1459.3C1391.65 1455.83 1387.14 1452.1 1382.77 1448.13C1308.44 1380.47 1303.02 1265.36 1370.68 1191.03C1438.34 1116.69 1553.45 1111.28 1627.79 1178.94C1632.15 1182.91 1636.28 1187.05 1640.17 1191.33Z" fill="white"/>
<path d="M1352.86 1218.86C1316.56 1205.84 1292.84 1201.14 1289.47 1207.67C1282.19 1221.77 1372.52 1282.88 1491.22 1344.17C1609.92 1405.45 1712.04 1443.7 1719.32 1429.6C1722.7 1423.07 1705.13 1406.46 1673.5 1384.41C1676.58 1376.49 1679.07 1368.47 1680.98 1360.38C1799.99 1430.63 1877.03 1489.23 1868.14 1506.44C1855.82 1530.3 1682.98 1465.56 1482.09 1361.84C1281.2 1258.12 1128.33 1154.7 1140.65 1130.83C1149.54 1113.62 1241.93 1142.5 1368.11 1198.85C1362.63 1205.09 1357.52 1211.76 1352.86 1218.86Z" fill="white"/>
<path d="M1559.62 1432.57L1514.17 1414.01L1543.91 1360.1C1554.34 1341.09 1567.44 1319.45 1583.22 1295.18L1504.93 1391.59L1460.62 1373.49L1500.12 1261.77C1493.69 1277.08 1487.97 1289.57 1482.95 1299.24C1478.15 1308.82 1472.63 1318.64 1466.39 1328.7L1434.45 1381.45L1389 1362.89L1487.24 1217.62L1542.97 1240.38L1502.12 1348.89L1577.01 1254.28L1635.48 1278.17L1559.62 1432.57Z" fill="white"/>
<path d="M707.893 824.358C670.583 702.121 419.359 670.479 146.771 753.682C456.995 698.37 571.77 770.096 610.427 814.287C617.632 822.056 623.281 830.579 627.234 839.836C627.296 839.981 627.351 840.129 627.412 840.276C627.903 841.441 628.384 842.613 628.82 843.803C629.337 845.203 629.817 846.619 630.255 848.053L630.256 848.055C643.867 892.649 618.077 945.087 564.425 995.629C557.836 1001.83 550.804 1008.01 543.396 1014.14C541.804 1015.46 540.197 1016.78 538.568 1018.09C473.299 1070.72 378.81 1119.6 268.716 1153.2C264.606 1154.46 260.504 1155.67 256.406 1156.87C255.155 1157.24 253.907 1157.59 252.658 1157.95C249.768 1158.78 246.881 1159.6 243.997 1160.4C242.598 1160.79 241.201 1161.17 239.802 1161.56C236.922 1162.34 234.047 1163.11 231.176 1163.87C229.94 1164.2 228.704 1164.53 227.471 1164.85C219.348 1166.96 211.262 1168.96 203.22 1170.83C202.02 1171.12 200.825 1171.38 199.628 1171.66C196.768 1172.31 193.913 1172.96 191.063 1173.59C189.711 1173.88 188.362 1174.18 187.014 1174.47C184.172 1175.08 181.339 1175.67 178.511 1176.26C177.328 1176.5 176.141 1176.75 174.96 1176.99C167.016 1178.6 159.126 1180.08 151.297 1181.46C150.166 1181.65 149.042 1181.84 147.915 1182.04C145.098 1182.52 142.288 1182.99 139.488 1183.44C138.207 1183.65 136.93 1183.85 135.653 1184.05C132.866 1184.49 130.091 1184.91 127.322 1185.32C126.205 1185.48 125.084 1185.65 123.969 1185.81C116.27 1186.92 108.642 1187.91 101.091 1188.78C100.054 1188.9 99.0215 1189.01 97.9864 1189.13C95.2304 1189.43 92.4846 1189.73 89.7493 1190.01C88.5501 1190.13 87.3531 1190.25 86.1568 1190.36C83.4504 1190.63 80.7552 1190.87 78.071 1191.1C77.0351 1191.19 75.9949 1191.29 74.9635 1191.37C71.3039 1191.67 67.6598 1191.95 64.043 1192.2C240.441 1182.78 479.352 1140.49 628.119 1009.35C693.674 946.613 725.111 880.77 707.893 824.358Z" fill="white"/>
<path d="M-163.469 983.619C-163.315 983.434 -163.16 983.249 -163.005 983.066C-161.861 981.703 -160.697 980.339 -159.509 978.975C-159.231 978.657 -158.95 978.339 -158.671 978.021C-157.553 976.749 -156.425 975.478 -155.271 974.207C-154.91 973.81 -154.54 973.413 -154.176 973.014C-153.058 971.796 -151.936 970.576 -150.785 969.359C-150.418 968.971 -150.038 968.583 -149.667 968.195C-146.989 965.39 -144.244 962.587 -141.392 959.788L-141.389 959.783C-141.37 959.764 -141.351 959.745 -141.332 959.726C-141.14 959.538 -140.942 959.35 -140.751 959.163C-139.372 957.782 -137.94 956.408 -136.457 955.039C-71.7651 893.804 33.8595 835.291 159.932 796.811C245.613 770.659 328.624 757.461 400.603 756.288C-56.3491 760.285 -316.198 1004.58 -279.241 1125.66C-248.006 1227.99 -66.8159 1266.78 151.294 1227.89C-179.849 1222.4 -216.579 1129.73 -204.266 1064.68C-200.675 1038.67 -186.465 1011.14 -163.469 983.619Z" fill="white"/>
<path d="M78.0708 1191.1C80.7557 1190.87 83.4488 1190.62 86.1566 1190.36C87.3529 1190.24 88.5499 1190.13 89.7491 1190.01C92.4838 1189.73 95.2302 1189.43 97.9862 1189.12C99.0213 1189.01 100.053 1188.9 101.09 1188.78C108.641 1187.91 116.269 1186.92 123.968 1185.81C125.083 1185.65 126.203 1185.48 127.322 1185.32C130.091 1184.91 132.867 1184.49 135.652 1184.05C136.929 1183.85 138.207 1183.65 139.487 1183.44C142.288 1182.99 145.097 1182.52 147.914 1182.03C149.042 1181.84 150.167 1181.65 151.297 1181.45C159.125 1180.08 167.016 1178.59 174.96 1176.99C176.141 1176.75 177.327 1176.5 178.51 1176.26C181.338 1175.67 184.173 1175.08 187.013 1174.47C188.362 1174.18 189.711 1173.88 191.062 1173.58C193.91 1172.96 196.765 1172.31 199.627 1171.66C200.824 1171.38 202.019 1171.11 203.219 1170.83C211.261 1168.96 219.346 1166.96 227.47 1164.85C228.704 1164.53 229.942 1164.2 231.175 1163.87C234.046 1163.11 236.92 1162.34 239.801 1161.55C241.198 1161.17 242.597 1160.79 243.997 1160.4C246.879 1159.6 249.767 1158.78 252.657 1157.95C253.906 1157.59 255.155 1157.23 256.405 1156.87C260.502 1155.67 264.605 1154.46 268.716 1153.2C378.809 1119.6 473.299 1070.72 538.567 1018.09C540.196 1016.77 541.803 1015.46 543.395 1014.14C550.802 1008.01 557.836 1001.83 564.425 995.627C618.075 945.087 643.868 892.648 630.255 848.054L630.254 848.051C629.817 846.617 629.332 845.203 628.819 843.802C628.383 842.612 627.902 841.442 627.412 840.274C627.35 840.128 627.296 839.98 627.234 839.835C623.28 830.578 617.632 822.055 610.426 814.285C573.794 774.781 497.125 754.716 400.605 756.287C328.626 757.459 245.616 770.658 159.935 796.81C33.863 835.292 -71.7624 893.806 -136.456 955.041C-137.907 956.414 -139.34 957.788 -140.75 959.165C-140.942 959.353 -141.14 959.541 -141.331 959.728C-141.351 959.748 -141.372 959.77 -141.393 959.789C-144.245 962.586 -146.989 965.39 -149.668 968.196C-150.039 968.584 -150.419 968.972 -150.786 969.36C-151.938 970.576 -153.06 971.796 -154.177 973.015C-154.541 973.412 -154.912 973.809 -155.272 974.207C-156.427 975.478 -157.554 976.751 -158.672 978.022C-158.951 978.34 -159.232 978.658 -159.51 978.976C-160.698 980.339 -161.861 981.703 -163.006 983.067C-163.16 983.252 -163.316 983.436 -163.47 983.62C-186.468 1011.14 -200.676 1038.67 -204.266 1064.68C-206.043 1077.54 -205.246 1090.03 -201.605 1101.96C-180.946 1169.65 -74.8952 1201.63 64.0443 1192.2C67.6611 1191.95 71.3059 1191.67 74.9648 1191.37C75.9962 1191.29 77.035 1191.19 78.0708 1191.1ZM-123.969 1078.26C-145.284 1008.43 -11.1028 905.597 175.732 848.569C362.567 791.542 531.303 801.922 552.618 871.751C573.933 941.579 439.752 1044.42 252.917 1101.45C66.0822 1158.47 -102.655 1148.09 -123.969 1078.26Z" fill="#5022D3"/>
<path d="M552.62 871.751C531.306 801.921 362.568 791.542 175.733 848.569C-11.1019 905.597 -145.282 1008.43 -123.968 1078.26C-102.654 1148.09 66.0831 1158.47 252.918 1101.45C439.752 1044.42 573.932 941.58 552.62 871.751ZM-24.1206 1047.79C-37.5193 1003.89 58.3753 935.721 190.065 895.525C321.755 855.328 439.373 858.33 452.772 902.227C466.171 946.124 370.276 1014.29 238.586 1054.49C106.895 1094.68 -10.722 1091.69 -24.1206 1047.79Z" fill="white"/>
<path d="M452.773 902.227C439.374 858.329 321.757 855.33 190.066 895.524C58.3756 935.719 -37.5183 1003.89 -24.1197 1047.79C-10.721 1091.69 106.896 1094.68 238.587 1054.49C370.277 1014.29 466.171 946.124 452.773 902.227ZM224.03 1006.8C153.794 1028.24 92.5142 1031.38 87.1547 1013.82C81.7953 996.266 126.479 938.746 196.715 917.308C266.95 895.87 336.14 918.633 341.499 936.192C346.857 953.75 294.265 985.363 224.03 1006.8Z" fill="#5022D3"/>
<path d="M196.712 917.308C126.477 938.745 81.7926 996.266 87.1521 1013.82C92.5116 1031.38 153.793 1028.24 224.027 1006.8C294.263 985.363 346.854 953.751 341.494 936.192C336.137 918.632 266.948 895.87 196.712 917.308Z" fill="white"/>
<path d="M1802 975C1769.42 975 1743 948.585 1743 916C1743 883.415 1769.42 857 1802 857C1834.58 857 1861 883.415 1861 916C1861 948.585 1834.58 975 1802 975Z" fill="white"/>
<path d="M1339.75 624C1342.87 624 1345.71 624.867 1348.27 626.6C1350.91 628.333 1352.99 630.864 1354.51 634.192C1356.04 637.451 1356.8 641.264 1356.8 645.632C1356.8 650.763 1355.73 655.824 1353.58 660.816C1351.5 665.739 1348.17 669.864 1343.59 673.192C1339.02 676.451 1333.26 678.08 1326.33 678.08C1321.41 678.08 1317.11 676.971 1313.43 674.752C1309.76 672.464 1306.88 669.171 1304.8 664.872C1302.79 660.573 1301.79 655.443 1301.79 649.48C1301.79 638.941 1303.76 629.408 1307.71 620.88C1311.74 612.283 1319.33 606.736 1330.49 604.24C1335.62 603.131 1339.47 602.091 1342.03 601.12C1344.6 600.08 1347.34 598.624 1350.25 596.752L1356.59 608.4C1353.68 610.549 1350.7 612.248 1347.65 613.496C1344.67 614.744 1340.89 615.853 1336.31 616.824C1332.02 617.725 1328.72 619.32 1326.43 621.608C1324.22 623.896 1322.76 627.64 1322.07 632.84C1324.56 629.859 1327.16 627.64 1329.87 626.184C1332.64 624.728 1335.93 624 1339.75 624ZM1327.27 663.312C1330.59 663.312 1332.88 661.475 1334.13 657.8C1335.38 654.125 1336.04 649.792 1336.11 644.8C1336.11 642.443 1335.66 640.709 1334.75 639.6C1333.85 638.421 1332.64 637.832 1331.11 637.832C1329.66 637.832 1328.03 638.456 1326.23 639.704C1324.42 640.883 1322.76 642.408 1321.23 644.28C1321.03 647.192 1320.92 650.659 1320.92 654.68C1320.92 657.453 1321.44 659.603 1322.48 661.128C1323.59 662.584 1325.19 663.312 1327.27 663.312Z" fill="white"/>
<path d="M153.062 63.5997C150.399 62.9429 148.107 62.8209 146.188 63.2337C144.363 63.6212 142.136 64.4971 139.507 65.8613L132.912 69.3794L127.173 98.2492L109.429 88.0052L115.053 64.9527L111.991 63.1846L97.9007 81.3492L80.4277 71.2612L114.861 27.0137L132.334 37.1017L119.152 54.1093L122.124 55.8253L134.253 49.3779C137.908 47.485 141.232 46.442 144.225 46.2489C147.254 45.9958 151.142 46.6796 155.89 48.3003L153.062 63.5997ZM182.53 63.6809C188.055 66.8703 191.77 70.6965 193.676 75.1597C195.617 79.5629 195.444 83.7459 193.156 87.7089C191.007 91.4316 187.917 94.0107 183.885 95.4461C179.854 96.8816 174.462 96.9307 167.708 95.5934C163.043 94.6611 159.85 94.2985 158.129 94.5059C156.408 94.7132 155.218 95.3873 154.559 96.5281C153.519 98.3295 154.32 99.9928 156.962 101.518C159.064 102.731 161.486 103.529 164.227 103.911C167.029 104.328 169.836 104.388 172.65 104.09L174.253 117.746C170.079 118.458 165.552 118.326 160.672 117.35C155.886 116.348 151.331 114.599 147.008 112.103C141.124 108.706 137.173 104.663 135.156 99.9763C133.199 95.3236 133.485 90.8057 136.016 86.4225C138.269 82.5196 141.454 79.9151 145.571 78.6091C149.687 77.303 155.565 77.4539 163.203 79.0617C166.485 79.7557 168.93 80.1665 170.537 80.294C172.145 80.4216 173.25 80.3792 173.853 80.1669C174.456 79.9546 174.913 79.5782 175.225 79.0378C176.127 77.4767 175.286 75.9507 172.704 74.4601C171.143 73.5587 169.181 72.8663 166.819 72.3828C164.49 71.8393 162.191 71.5925 159.92 71.6426L160.171 58.9375C163.742 58.4374 167.49 58.6003 171.417 59.4261C175.403 60.2867 179.108 61.7049 182.53 63.6809Z" fill="white"/>
<path d="M235.716 501.692L205.673 427.793L188.88 437.495L218.923 511.394L184.987 531L144 430.048L228.666 381.135L269.653 482.086L235.716 501.692Z" fill="white"/>
<path d="M285.142 343.838C292.023 339.863 299.617 336.721 307.925 334.41C316.165 331.984 324.453 330.852 332.789 331.015L356.959 391.503C358.073 393.972 358.798 395.498 359.134 396.081C360.077 397.715 361.143 398.889 362.332 399.602C363.454 400.199 365.033 400.376 367.07 400.132L369.999 427.847C363.966 430.866 357.993 432.372 352.08 432.365C346.167 432.358 340.956 430.467 336.446 426.693C335.96 433.665 334.342 439.89 331.594 445.367C328.778 450.728 324.222 455.228 317.924 458.866C308.128 464.525 298.595 465.521 289.326 461.851C280.172 458.115 272.196 450.354 265.395 438.567C259.605 428.531 255.849 417.709 254.127 406.101C252.454 394.309 253.94 382.87 258.584 371.785C263.345 360.632 272.198 351.317 285.142 343.838ZM297.478 368.453C290.715 372.36 288.047 379.191 289.477 388.946C290.84 398.583 294.382 408.362 300.105 418.281C303.135 423.532 305.83 426.721 308.19 427.847C310.6 428.789 312.971 428.586 315.303 427.239C320.201 424.409 322.671 418.314 322.713 408.954L305.431 365.258C302.462 366.04 299.811 367.105 297.478 368.453Z" fill="white"/>
<path d="M1668 517C1734.83 517 1789 462.826 1789 396C1789 329.174 1734.83 275 1668 275C1601.17 275 1547 329.174 1547 396C1547 462.826 1601.17 517 1668 517Z" fill="white"/>
<path d="M1725.59 354.301C1718.5 354.301 1712.89 356.265 1708.73 360.194C1704.58 364.122 1701.89 370.507 1700.67 379.346L1699.57 386.712H1744.28L1729.62 436.067H1692.61L1676.11 555.401C1671.71 587.321 1660.72 611.63 1643.13 628.327C1625.78 645.024 1602.81 657.915 1574.23 667L1557 615.068C1571.9 609.911 1583.02 603.159 1590.35 594.81C1597.68 586.462 1602.45 574.553 1604.65 559.084L1621.5 436.067H1595.85L1602.45 386.712H1628.47L1629.93 374.926C1632.87 353.564 1641.91 336.131 1657.05 322.626C1672.45 308.875 1692.97 302 1718.63 302C1730.84 302 1741.96 303.719 1751.98 307.156C1762.24 310.348 1770.91 314.4 1778 319.311L1753.81 361.667C1745.26 356.756 1735.85 354.301 1725.59 354.301Z" fill="#5022D3"/>
</g>
</g>
<defs>
<clipPath id="clip0_106_85">
<rect width="1920" height="1725" fill="white"/>
</clipPath>
</defs>
</svg>
