<svg width="1920" height="595" viewBox="0 0 1920 595" fill="none" xmlns="http://www.w3.org/2000/svg">
<rect width="183" height="142" transform="translate(92)" fill="white"/>
<path d="M169.064 96L167.738 83.91H150.968L146.288 96H134.51L158.456 42.024H172.262L180.998 96H169.064ZM154.244 75.408H166.802L164.072 49.98L154.244 75.408ZM214.082 53.412C219.802 53.412 225.236 54.79 230.384 57.546L226.484 84.69C226.38 85.626 226.328 86.25 226.328 86.562C226.328 87.394 226.484 88.07 226.796 88.59C227.16 89.058 227.758 89.474 228.59 89.838L225.47 97.092C220.374 96.572 217.358 94.284 216.422 90.228C213.042 94.908 208.934 97.248 204.098 97.248C199.834 97.248 196.532 95.792 194.192 92.88C191.852 89.916 190.682 85.938 190.682 80.946C190.682 76.63 191.488 72.366 193.1 68.154C194.712 63.942 197.26 60.432 200.744 57.624C204.28 54.816 208.726 53.412 214.082 53.412ZM213.848 61.446C211.144 61.446 208.908 62.434 207.14 64.41C205.372 66.386 204.072 68.882 203.24 71.898C202.46 74.862 202.07 77.878 202.07 80.946C202.07 86.302 203.838 88.98 207.374 88.98C208.986 88.98 210.468 88.46 211.82 87.42C213.172 86.38 214.55 84.846 215.954 82.818L218.918 62.382C217.41 61.758 215.72 61.446 213.848 61.446Z" fill="#5022D3"/>
<rect width="183" height="142" transform="translate(92 302)" fill="white"/>
<path d="M174.126 342.776C180.678 342.776 185.904 344.856 189.804 349.016L183.642 355.022C182.186 353.826 180.73 352.942 179.274 352.37C177.818 351.746 176.206 351.434 174.438 351.434C170.694 351.434 167.626 352.786 165.234 355.49C162.894 358.194 161.204 361.522 160.164 365.474C159.124 369.426 158.604 373.326 158.604 377.174C158.604 381.594 159.488 384.87 161.256 387.002C163.024 389.134 165.494 390.2 168.666 390.2C170.694 390.2 172.566 389.81 174.282 389.03C175.998 388.25 177.87 387.132 179.898 385.676L184.422 392.618C179.274 397.038 173.502 399.248 167.106 399.248C163.05 399.248 159.488 398.39 156.42 396.674C153.404 394.958 151.038 392.436 149.322 389.108C147.658 385.78 146.826 381.75 146.826 377.018C146.826 371.61 147.762 366.306 149.634 361.106C151.558 355.854 154.548 351.486 158.604 348.002C162.712 344.518 167.886 342.776 174.126 342.776ZM216.085 355.412C221.233 355.412 225.549 357.102 229.033 360.482L223.573 366.956C222.429 365.916 221.259 365.188 220.063 364.772C218.919 364.304 217.619 364.07 216.163 364.07C212.159 364.07 209.273 365.916 207.505 369.608C205.789 373.3 204.931 377.46 204.931 382.088C204.931 385.052 205.529 387.184 206.725 388.484C207.921 389.732 209.637 390.356 211.873 390.356C213.329 390.356 214.681 390.122 215.929 389.654C217.229 389.186 218.711 388.432 220.375 387.392L224.509 394.646C220.089 397.714 215.435 399.248 210.547 399.248C205.191 399.248 201.005 397.688 197.989 394.568C194.973 391.396 193.465 387.08 193.465 381.62C193.465 377.668 194.245 373.69 195.805 369.686C197.417 365.63 199.913 362.25 203.293 359.546C206.673 356.79 210.937 355.412 216.085 355.412Z" fill="#5022D3"/>
<rect width="183" height="142" transform="translate(92 151)" fill="white"/>
<path d="M178.067 247H166.991L169.955 225.16C170.579 220.948 171.281 217.178 172.061 213.85C172.841 210.522 173.803 206.986 174.947 203.242L152.015 247H137.897L145.463 193.024H156.539L153.419 214.708C152.795 219.284 152.093 223.236 151.313 226.564C150.585 229.892 149.675 233.246 148.583 236.626L171.827 193.024H185.633L178.067 247ZM205.147 248.248C201.923 248.248 199.427 247.338 197.659 245.518C195.943 243.698 195.085 241.176 195.085 237.952C195.085 237.016 195.163 236.08 195.319 235.144L199.531 205.66H210.451L206.551 233.584C206.447 234.624 206.395 235.326 206.395 235.69C206.395 237.094 206.655 238.082 207.175 238.654C207.695 239.174 208.501 239.434 209.593 239.434C211.205 239.434 212.739 238.784 214.195 237.484C215.703 236.132 217.185 234.364 218.641 232.18L222.385 205.66H233.305L227.533 247H218.017L218.407 240.526C216.483 243.022 214.429 244.946 212.245 246.298C210.061 247.598 207.695 248.248 205.147 248.248Z" fill="#5022D3"/>
<rect width="185" height="142" transform="translate(384 453)" fill="white"/>
<path d="M458.354 513.744C464.386 513.744 469.04 515.044 472.316 517.644C475.644 520.192 477.308 523.936 477.308 528.876C477.308 532.36 476.502 535.636 474.89 538.704C473.33 541.72 470.782 544.19 467.246 546.114C463.762 548.038 459.29 549 453.83 549H436.202L442.52 503.838H428.402L429.65 495.024H455.156L452.504 513.744H458.354ZM454.142 540.498C458.25 540.498 461.136 539.432 462.8 537.3C464.516 535.116 465.374 532.516 465.374 529.5C465.374 524.456 462.488 521.934 456.716 521.934H451.334L448.76 540.498H454.142ZM510.508 520.608C521.844 520.608 527.512 524.846 527.512 533.322C527.512 536.078 526.836 538.756 525.484 541.356C524.132 543.904 521.974 546.036 519.01 547.752C516.098 549.416 512.354 550.248 507.778 550.248C502.838 550.248 497.742 549.416 492.49 547.752L497.014 515.538L496.936 515.616H484.456L485.626 507.66H509.026L507.232 520.608H510.508ZM507.934 542.76C510.898 542.76 513.056 541.85 514.408 540.03C515.812 538.158 516.514 535.974 516.514 533.478C516.514 529.786 514.2 527.94 509.572 527.94H506.218L504.268 542.292C506.036 542.604 507.258 542.76 507.934 542.76Z" fill="#5022D3"/>
<rect width="183" height="142" transform="translate(678)" fill="white"/>
<path d="M777.871 42.024L775.375 51.228H754.627L748.387 96H736.999L744.565 42.024H777.871ZM792.761 53.412C797.129 53.412 800.613 54.426 803.213 56.454C805.865 58.482 807.191 61.082 807.191 64.254C807.191 67.27 806.177 69.974 804.149 72.366C802.173 74.706 798.689 76.604 793.697 78.06C790.889 78.892 788.757 79.698 787.301 80.478C785.897 81.206 784.987 81.934 784.571 82.662C784.155 83.338 783.947 84.17 783.947 85.158C783.947 86.354 784.415 87.316 785.351 88.044C786.287 88.72 787.613 89.058 789.329 89.058C791.357 89.058 793.411 88.694 795.491 87.966C797.571 87.186 799.443 86.146 801.107 84.846L805.943 91.398C803.655 93.218 800.925 94.648 797.753 95.688C794.581 96.728 791.305 97.248 787.925 97.248C783.349 97.248 779.605 96.182 776.693 94.05C773.833 91.866 772.403 88.954 772.403 85.314C772.403 82.038 773.521 79.256 775.757 76.968C777.993 74.628 781.919 72.626 787.535 70.962C791.123 69.922 793.437 68.934 794.477 67.998C795.569 67.062 796.115 65.996 796.115 64.8C796.115 63.76 795.699 62.954 794.867 62.382C794.035 61.758 792.865 61.446 791.357 61.446C788.133 61.446 784.753 62.59 781.217 64.878L777.395 58.404C779.527 56.792 781.919 55.57 784.571 54.738C787.275 53.854 790.005 53.412 792.761 53.412Z" fill="#5022D3"/>
<rect width="183" height="142" transform="translate(678 302)" fill="white"/>
<path d="M768.412 366.488C768.412 371.22 767.476 375.666 765.604 379.826C763.784 383.934 760.716 387.366 756.4 390.122C752.136 392.878 746.572 394.386 739.708 394.646L738.85 400.964H727.774L728.71 394.568C721.794 394.204 716.412 392.384 712.564 389.108C708.716 385.78 706.792 381.126 706.792 375.146C706.792 370.414 707.702 365.994 709.522 361.886C711.394 357.726 714.462 354.268 718.726 351.512C722.99 348.756 728.554 347.248 735.418 346.988L736.198 341.138H747.274L746.416 347.066C753.384 347.43 758.792 349.25 762.64 352.526C766.488 355.802 768.412 360.456 768.412 366.488ZM740.332 387.314C746.624 386.794 750.966 384.506 753.358 380.45C755.75 376.342 756.946 371.61 756.946 366.254C756.946 358.766 752.968 354.788 745.012 354.32L740.332 387.314ZM718.258 375.38C718.258 379.124 719.22 381.984 721.144 383.96C723.12 385.936 726.136 387.054 730.192 387.314L734.872 354.32C728.58 354.788 724.238 357.076 721.846 361.184C719.454 365.292 718.258 370.024 718.258 375.38ZM798.359 394.802C797.059 396.258 795.551 397.35 793.835 398.078C792.119 398.858 790.351 399.248 788.531 399.248C784.891 399.248 782.031 397.792 779.951 394.88C777.923 391.968 776.909 387.886 776.909 382.634C776.909 378.474 777.455 374.34 778.547 370.232C779.639 366.072 781.485 362.562 784.085 359.702C786.737 356.842 790.221 355.412 794.537 355.412C798.281 355.412 801.219 356.868 803.351 359.78L806.237 338.954L816.455 340.202L813.647 359.546C816.455 356.79 819.783 355.412 823.631 355.412C827.687 355.412 830.677 356.738 832.601 359.39C834.525 361.99 835.487 365.656 835.487 370.388C835.487 375.016 834.863 379.54 833.615 383.96C832.419 388.38 830.495 392.046 827.843 394.958C825.191 397.818 821.837 399.248 817.781 399.248C813.829 399.248 810.839 397.636 808.811 394.412L806.081 414.068L795.551 415.238L798.359 394.802ZM792.353 391.058C794.849 391.058 797.241 389.706 799.529 387.002L802.259 367.034C800.855 364.694 799.009 363.524 796.721 363.524C794.589 363.524 792.873 364.616 791.573 366.8C790.273 368.932 789.363 371.48 788.843 374.444C788.323 377.408 788.063 380.268 788.063 383.024C788.063 385.884 788.427 387.938 789.155 389.186C789.883 390.434 790.949 391.058 792.353 391.058ZM815.207 391.058C817.391 391.058 819.159 389.914 820.511 387.626C821.863 385.338 822.825 382.634 823.397 379.514C823.969 376.394 824.255 373.43 824.255 370.622C824.255 368.23 823.865 366.462 823.085 365.318C822.357 364.122 821.239 363.524 819.731 363.524C818.379 363.524 817.131 363.862 815.987 364.538C814.895 365.214 813.777 366.202 812.633 367.502L809.747 387.47C810.475 388.718 811.255 389.628 812.087 390.2C812.919 390.772 813.959 391.058 815.207 391.058Z" fill="#5022D3"/>
<rect width="183" height="142" transform="translate(678 151)" fill="white"/>
<path d="M762.963 247H751.653L757.971 201.916H745.803L742.605 214.942C740.369 224.146 738.393 230.906 736.677 235.222C735.013 239.538 733.063 242.632 730.827 244.504C728.591 246.324 725.445 247.598 721.389 248.326L719.751 239.512C721.623 238.888 723.053 238.056 724.041 237.016C725.029 235.976 726.043 233.922 727.083 230.854C728.175 227.734 729.657 222.56 731.529 215.332L737.379 193.024H770.529L762.963 247ZM812.228 247H801.308L805.988 213.928H797.096L795.302 222.274C793.794 229.138 792.468 234.13 791.324 237.25C790.232 240.37 788.646 242.788 786.566 244.504C784.538 246.22 781.522 247.416 777.518 248.092L776.036 239.746C777.856 239.174 779.182 238.446 780.014 237.562C780.846 236.678 781.574 235.17 782.198 233.038C782.874 230.906 783.758 227.24 784.85 222.04L788.282 205.66H818L812.228 247Z" fill="#5022D3"/>
<rect width="184" height="142" transform="translate(970 453)" fill="white"/>
<path d="M1043.07 493.776C1048.95 493.776 1053.5 495.544 1056.72 499.08C1059.95 502.616 1061.56 507.868 1061.56 514.836C1061.56 520.556 1060.7 526.12 1058.99 531.528C1057.27 536.884 1054.46 541.356 1050.56 544.944C1046.66 548.48 1041.59 550.248 1035.35 550.248C1032.02 550.248 1029.09 549.702 1026.54 548.61C1023.99 547.466 1021.86 545.906 1020.14 543.93L1026.07 537.612C1027.47 538.912 1028.88 539.874 1030.28 540.498C1031.69 541.122 1033.38 541.434 1035.35 541.434C1039.2 541.434 1042.22 539.978 1044.4 537.066C1046.58 534.102 1048.14 530.228 1049.08 525.444H1030.2L1031.3 517.176H1050.09C1050.15 516.344 1050.17 515.148 1050.17 513.588C1050.17 509.636 1049.44 506.776 1047.99 505.008C1046.53 503.24 1044.4 502.356 1041.59 502.356C1039.56 502.356 1037.74 502.668 1036.13 503.292C1034.57 503.916 1032.78 504.956 1030.75 506.412L1026.07 499.704C1028.62 497.728 1031.24 496.246 1033.95 495.258C1036.65 494.27 1039.69 493.776 1043.07 493.776ZM1085.69 506.412C1090.89 506.412 1094.9 507.972 1097.7 511.092C1100.56 514.212 1101.99 518.502 1101.99 523.962C1101.99 529.006 1101.14 533.53 1099.42 537.534C1097.7 541.486 1095.16 544.606 1091.78 546.894C1088.45 549.13 1084.44 550.248 1079.76 550.248C1074.67 550.248 1070.17 548.558 1066.27 545.178L1071.73 539.016C1073.08 540.056 1074.36 540.81 1075.55 541.278C1076.8 541.746 1078.2 541.98 1079.76 541.98C1082.31 541.98 1084.55 541.122 1086.47 539.406C1088.4 537.69 1089.7 534.986 1090.37 531.294H1075.08L1076.02 524.508H1091C1091.05 523.936 1091.07 523.286 1091.07 522.558C1091.07 519.854 1090.5 517.852 1089.36 516.552C1088.27 515.252 1086.6 514.602 1084.37 514.602C1082.81 514.602 1081.3 514.836 1079.84 515.304C1078.44 515.772 1076.96 516.5 1075.4 517.488L1071.26 511.17C1075.63 507.998 1080.44 506.412 1085.69 506.412Z" fill="#5022D3"/>
<rect width="184" height="142" transform="translate(1263)" fill="white"/>
<path d="M1355.36 42.024L1353.02 50.448H1333.76L1331.81 64.41H1348.5L1347.49 72.678H1330.72L1328.61 87.576H1349.2L1347.95 96H1316.05L1323.62 42.024H1355.36ZM1331.96 35.94C1330.35 35.94 1329.05 35.472 1328.06 34.536C1327.08 33.548 1326.58 32.3 1326.58 30.792C1326.58 28.972 1327.21 27.464 1328.45 26.268C1329.7 25.072 1331.26 24.474 1333.13 24.474C1334.75 24.474 1336.05 24.942 1337.03 25.878C1338.02 26.814 1338.52 28.036 1338.52 29.544C1338.52 31.364 1337.87 32.898 1336.57 34.146C1335.32 35.342 1333.78 35.94 1331.96 35.94ZM1349.36 35.94C1347.8 35.94 1346.52 35.472 1345.54 34.536C1344.55 33.548 1344.05 32.3 1344.05 30.792C1344.05 28.972 1344.68 27.464 1345.93 26.268C1347.17 25.072 1348.73 24.474 1350.61 24.474C1352.22 24.474 1353.49 24.942 1354.43 25.878C1355.42 26.814 1355.91 28.036 1355.91 29.544C1355.91 31.364 1355.26 32.898 1353.96 34.146C1352.71 35.342 1351.18 35.94 1349.36 35.94ZM1397.64 64.566C1397.64 69.818 1395.2 73.666 1390.31 76.11C1385.47 78.502 1379.05 80.088 1371.04 80.868C1371.3 86.224 1373.88 88.902 1378.76 88.902C1380.58 88.902 1382.33 88.59 1383.99 87.966C1385.65 87.342 1387.47 86.38 1389.45 85.08L1393.51 91.788C1388.46 95.428 1383.11 97.248 1377.44 97.248C1371.77 97.248 1367.43 95.714 1364.41 92.646C1361.45 89.526 1359.97 85.288 1359.97 79.932C1359.97 75.772 1360.75 71.664 1362.31 67.608C1363.87 63.552 1366.36 60.172 1369.79 57.468C1373.23 54.764 1377.59 53.412 1382.9 53.412C1387.58 53.412 1391.19 54.478 1393.74 56.61C1396.34 58.69 1397.64 61.342 1397.64 64.566ZM1371.59 73.848C1376.74 73.432 1380.51 72.47 1382.9 70.962C1385.34 69.402 1386.56 67.426 1386.56 65.034C1386.56 63.942 1386.2 63.006 1385.47 62.226C1384.8 61.446 1383.68 61.056 1382.12 61.056C1379.15 61.056 1376.81 62.278 1375.1 64.722C1373.38 67.166 1372.21 70.208 1371.59 73.848ZM1374.71 45.768C1373.1 45.768 1371.8 45.3 1370.81 44.364C1369.82 43.376 1369.33 42.128 1369.33 40.62C1369.33 38.8 1369.95 37.292 1371.2 36.096C1372.45 34.9 1374.01 34.302 1375.88 34.302C1377.49 34.302 1378.79 34.77 1379.78 35.706C1380.77 36.642 1381.26 37.864 1381.26 39.372C1381.26 41.192 1380.61 42.726 1379.31 43.974C1378.06 45.17 1376.53 45.768 1374.71 45.768ZM1392.1 45.768C1390.54 45.768 1389.27 45.3 1388.28 44.364C1387.29 43.376 1386.8 42.128 1386.8 40.62C1386.8 38.8 1387.42 37.292 1388.67 36.096C1389.92 34.9 1391.48 34.302 1393.35 34.302C1394.96 34.302 1396.24 34.77 1397.17 35.706C1398.16 36.642 1398.65 37.864 1398.65 39.372C1398.65 41.192 1398 42.726 1396.7 43.974C1395.46 45.17 1393.92 45.768 1392.1 45.768Z" fill="#5022D3"/>
<rect width="184" height="142" transform="translate(1263 302)" fill="white"/>
<path d="M1355.63 344.024L1348.06 398H1336.67L1339.48 377.798C1337.4 379.202 1335.37 380.242 1333.4 380.918C1331.47 381.542 1329.29 381.854 1326.85 381.854C1322.37 381.854 1318.89 380.58 1316.39 378.032C1313.95 375.484 1312.73 371.948 1312.73 367.424C1312.73 366.228 1312.81 365.006 1312.96 363.758L1315.77 344.024H1326.92L1324.12 363.836C1324.01 364.46 1323.96 365.318 1323.96 366.41C1323.96 368.75 1324.53 370.466 1325.68 371.558C1326.82 372.65 1328.56 373.196 1330.9 373.196C1334.65 373.196 1337.9 372 1340.65 369.608L1344.24 344.024H1355.63ZM1395.67 398H1384.75L1387.09 381.152C1383.61 384.064 1379.65 385.52 1375.23 385.52C1371.85 385.52 1369.28 384.636 1367.51 382.868C1365.8 381.048 1364.94 378.448 1364.94 375.068C1364.94 374.028 1365.02 372.936 1365.17 371.792L1367.28 356.66H1378.2L1376.17 370.856C1376.07 371.376 1376.01 372.078 1376.01 372.962C1376.01 375.822 1377.34 377.252 1379.99 377.252C1381.45 377.252 1382.93 376.836 1384.44 376.004C1385.95 375.12 1387.25 373.976 1388.34 372.572L1390.52 356.66H1401.44L1395.67 398Z" fill="#5022D3"/>
<rect width="184" height="142" transform="translate(1263 151)" fill="white"/>
<path d="M1335.73 191.776C1342.12 191.776 1347.09 193.7 1350.62 197.548C1354.21 201.396 1356.01 206.83 1356.01 213.85C1356.01 219.258 1355.1 224.588 1353.28 229.84C1351.46 235.04 1348.47 239.408 1344.31 242.944C1340.15 246.48 1334.79 248.248 1328.24 248.248C1321.79 248.248 1316.77 246.324 1313.18 242.476C1309.65 238.628 1307.88 233.22 1307.88 226.252C1307.88 220.896 1308.79 215.592 1310.61 210.34C1312.43 205.088 1315.42 200.694 1319.58 197.158C1323.79 193.57 1329.17 191.776 1335.73 191.776ZM1334.95 200.356C1331.15 200.356 1328.11 201.812 1325.82 204.724C1323.53 207.636 1321.92 211.12 1320.98 215.176C1320.05 219.232 1319.58 223.158 1319.58 226.954C1319.58 231.374 1320.36 234.598 1321.92 236.626C1323.53 238.602 1325.87 239.59 1328.94 239.59C1332.79 239.59 1335.86 238.134 1338.14 235.222C1340.43 232.31 1342.02 228.826 1342.9 224.77C1343.84 220.714 1344.31 216.762 1344.31 212.914C1344.31 208.546 1343.53 205.374 1341.97 203.398C1340.41 201.37 1338.07 200.356 1334.95 200.356ZM1382.26 248.248C1376.86 248.248 1372.67 246.714 1369.71 243.646C1366.74 240.526 1365.26 236.236 1365.26 230.776C1365.26 226.616 1366.01 222.534 1367.52 218.53C1369.03 214.474 1371.47 211.12 1374.85 208.468C1378.29 205.764 1382.65 204.412 1387.96 204.412C1393.31 204.412 1397.47 205.946 1400.44 209.014C1403.4 212.082 1404.88 216.294 1404.88 221.65C1404.88 225.81 1404.16 229.918 1402.7 233.974C1401.24 238.03 1398.83 241.436 1395.45 244.192C1392.07 246.896 1387.67 248.248 1382.26 248.248ZM1382.97 239.902C1386.81 239.902 1389.54 237.926 1391.16 233.974C1392.77 230.022 1393.6 225.732 1393.65 221.104C1393.65 218.192 1393.11 216.06 1392.01 214.708C1390.97 213.356 1389.39 212.68 1387.26 212.68C1384.55 212.68 1382.39 213.72 1380.78 215.8C1379.22 217.828 1378.13 220.298 1377.51 223.21C1376.88 226.07 1376.57 228.852 1376.57 231.556C1376.57 234.416 1377.09 236.522 1378.13 237.874C1379.22 239.226 1380.83 239.902 1382.97 239.902Z" fill="#5022D3"/>
<rect width="184" height="142" transform="translate(287)" fill="white"/>
<path d="M357.099 61.524C363.183 61.524 367.863 62.772 371.139 65.268C374.415 67.712 376.053 71.326 376.053 76.11C376.053 79.438 375.273 82.61 373.713 85.626C372.205 88.642 369.709 91.138 366.225 93.114C362.741 95.038 358.217 96 352.653 96H335.025L342.591 42.024H374.883L372.465 50.838H352.731L351.171 61.524H357.099ZM352.965 87.498C356.865 87.498 359.699 86.484 361.467 84.456C363.235 82.428 364.119 79.802 364.119 76.578C364.119 71.95 361.233 69.636 355.461 69.636H350.079L347.583 87.498H352.965ZM411.7 57C415.6 57 418.772 58.404 421.216 61.212C423.66 64.02 424.882 67.842 424.882 72.678C424.882 76.422 424.128 80.192 422.62 83.988C421.164 87.732 418.798 90.878 415.522 93.426C412.298 95.974 408.216 97.248 403.276 97.248C398.076 97.248 393.916 95.506 390.796 92.022C387.728 88.538 386.194 83.572 386.194 77.124C386.194 57.312 393.162 45.742 407.098 42.414C410.53 41.582 413.104 40.828 414.82 40.152C416.588 39.476 418.512 38.488 420.592 37.188L424.258 44.052C422.386 45.404 420.436 46.496 418.408 47.328C416.432 48.108 413.728 48.914 410.296 49.746C407.904 50.37 405.876 51.202 404.212 52.242C402.6 53.23 401.222 54.712 400.078 56.688C398.934 58.664 398.076 61.342 397.504 64.722C401.352 59.574 406.084 57 411.7 57ZM403.51 88.902C407.098 88.902 409.646 87.212 411.154 83.832C412.714 80.452 413.494 76.63 413.494 72.366C413.494 67.426 411.674 64.956 408.034 64.956C406.11 64.956 404.134 65.684 402.106 67.14C400.078 68.544 398.31 70.494 396.802 72.99C396.698 74.238 396.646 76.188 396.646 78.84C396.646 82.064 397.244 84.56 398.44 86.328C399.636 88.044 401.326 88.902 403.51 88.902Z" fill="#5022D3"/>
<rect width="184" height="142" transform="translate(287 302)" fill="white"/>
<path d="M371.606 344.024L369.11 352.994H355.616L349.298 398H337.988L344.306 352.994H330.188L331.436 344.024H371.606ZM422.313 355.412C425.121 355.412 427.331 356.296 428.943 358.064C430.607 359.832 431.439 362.276 431.439 365.396C431.439 366.54 431.387 367.424 431.283 368.048L427.071 398H416.151L420.129 370.31C420.233 369.738 420.285 369.01 420.285 368.126C420.285 366.722 420.025 365.786 419.505 365.318C419.037 364.798 418.309 364.538 417.321 364.538C414.565 364.538 411.627 367.788 408.507 374.288L405.153 398H394.233L398.133 370.31C398.237 369.27 398.289 368.594 398.289 368.282C398.289 366.878 398.029 365.916 397.509 365.396C396.989 364.824 396.235 364.538 395.247 364.538C393.791 364.538 392.283 365.474 390.723 367.346C389.215 369.166 387.811 371.61 386.511 374.678L383.235 398H372.315L378.087 356.66H387.525L387.213 363.68C388.981 361.08 390.957 359.052 393.141 357.596C395.377 356.14 397.769 355.412 400.317 355.412C402.761 355.412 404.789 356.088 406.401 357.44C408.013 358.792 409.001 360.742 409.365 363.29C411.081 360.794 413.057 358.87 415.293 357.518C417.581 356.114 419.921 355.412 422.313 355.412Z" fill="#5022D3"/>
<rect width="184" height="142" transform="translate(287 151)" fill="white"/>
<path d="M373.067 247H361.991L364.955 225.16C365.579 220.948 366.281 217.178 367.061 213.85C367.841 210.522 368.803 206.986 369.947 203.242L347.015 247H332.897L340.463 193.024H351.539L348.419 214.708C347.795 219.284 347.093 223.236 346.313 226.564C345.585 229.892 344.675 233.246 343.583 236.626L366.827 193.024H380.633L373.067 247ZM361.055 187.642C357.363 187.642 354.503 186.602 352.475 184.522C350.499 182.39 349.511 179.608 349.511 176.176L355.751 175.318C355.959 176.93 356.531 178.1 357.467 178.828C358.455 179.504 359.833 179.842 361.601 179.842C365.241 179.842 367.711 178.256 369.011 175.084L375.173 176.488C374.393 179.92 372.755 182.65 370.259 184.678C367.815 186.654 364.747 187.642 361.055 187.642ZM400.147 248.248C396.923 248.248 394.427 247.338 392.659 245.518C390.943 243.698 390.085 241.176 390.085 237.952C390.085 237.016 390.163 236.08 390.319 235.144L394.531 205.66H405.451L401.551 233.584C401.447 234.624 401.395 235.326 401.395 235.69C401.395 237.094 401.655 238.082 402.175 238.654C402.695 239.174 403.501 239.434 404.593 239.434C406.205 239.434 407.739 238.784 409.195 237.484C410.703 236.132 412.185 234.364 413.641 232.18L417.385 205.66H428.305L422.533 247H413.017L413.407 240.526C411.483 243.022 409.429 244.946 407.245 246.298C405.061 247.598 402.695 248.248 400.147 248.248ZM413.641 197.47C409.949 197.47 407.089 196.43 405.061 194.35C403.085 192.218 402.097 189.436 402.097 186.004L408.337 185.146C408.545 186.758 409.117 187.928 410.053 188.656C411.041 189.332 412.419 189.67 414.187 189.67C417.827 189.67 420.297 188.084 421.597 184.912L427.759 186.316C426.979 189.748 425.341 192.478 422.845 194.506C420.401 196.482 417.333 197.47 413.641 197.47Z" fill="#5022D3"/>
<rect width="185" height="142" transform="translate(579 453)" fill="white"/>
<path d="M632.172 513.744C638.204 513.744 642.858 515.044 646.134 517.644C649.462 520.192 651.126 523.936 651.126 528.876C651.126 532.36 650.32 535.636 648.708 538.704C647.148 541.72 644.6 544.19 641.064 546.114C637.58 548.038 633.108 549 627.648 549H610.8L618.366 495.024H629.754L627.102 513.744H632.172ZM660.72 495.024H672.108L664.542 549H653.154L660.72 495.024ZM627.96 540.498C632.068 540.498 634.954 539.432 636.618 537.3C638.334 535.116 639.192 532.516 639.192 529.5C639.192 524.456 636.306 521.934 630.534 521.934H625.932L623.358 540.498H627.96ZM698.629 520.608C704.193 520.608 708.301 521.726 710.953 523.962C713.657 526.146 715.009 529.266 715.009 533.322C715.009 536.026 714.333 538.678 712.981 541.278C711.681 543.878 709.601 546.036 706.741 547.752C703.881 549.416 700.267 550.248 695.899 550.248C691.115 550.248 686.071 549.416 680.767 547.752L686.383 507.66H697.303L695.509 520.608H698.629ZM722.497 507.66H733.417L727.645 549H716.725L722.497 507.66ZM695.977 542.76C698.681 542.76 700.683 541.824 701.983 539.952C703.335 538.08 704.011 535.922 704.011 533.478C704.011 531.71 703.517 530.358 702.529 529.422C701.593 528.434 699.981 527.94 697.693 527.94H694.495L692.545 542.214C694.105 542.578 695.249 542.76 695.977 542.76Z" fill="#5022D3"/>
<rect width="183" height="142" transform="translate(873)" fill="white"/>
<path d="M957.439 87.108H961.963L958.999 108.636H951.043L951.433 96H924.133L920.155 108.636H912.121L915.163 87.108H918.283C919.687 85.964 920.857 84.534 921.793 82.818C922.729 81.05 923.613 78.814 924.445 76.11C925.277 73.406 926.551 68.908 928.267 62.616L929.359 58.482L933.649 42.024H963.757L957.439 87.108ZM951.589 50.604H942.151L940.357 58.092C938.745 64.54 937.341 69.584 936.145 73.224C934.949 76.812 933.675 79.672 932.323 81.804C931.023 83.936 929.437 85.704 927.565 87.108H946.441L951.589 50.604ZM989.979 97.248C986.755 97.248 983.843 96.598 981.243 95.298C978.643 93.946 976.589 91.996 975.081 89.448C973.625 86.9 972.897 83.884 972.897 80.4C972.897 76.448 973.573 72.678 974.925 69.09C976.329 65.502 978.435 62.59 981.243 60.354C984.051 58.118 987.457 57 991.461 57C995.517 57 998.897 58.482 1001.6 61.446V61.134C1001.55 56.974 1001 53.828 999.963 51.696C998.923 49.512 997.051 47.9 994.347 46.86C991.695 45.82 987.691 45.092 982.335 44.676L984.753 37.032C992.241 37.448 997.961 38.696 1001.91 40.776C1005.87 42.856 1008.57 45.794 1010.03 49.59C1011.53 53.386 1012.29 58.508 1012.29 64.956C1012.29 74.784 1010.44 82.636 1006.75 88.512C1003.06 94.336 997.467 97.248 989.979 97.248ZM990.447 88.98C993.983 88.98 996.583 87.108 998.247 83.364C999.963 79.62 1000.9 74.914 1001.06 69.246C999.183 66.334 996.687 64.878 993.567 64.878C990.187 64.878 987.743 66.464 986.235 69.636C984.779 72.808 984.051 76.448 984.051 80.556C984.051 83.364 984.597 85.47 985.689 86.874C986.833 88.278 988.419 88.98 990.447 88.98Z" fill="#5022D3"/>
<rect width="183" height="142" transform="translate(873 302)" fill="white"/>
<path d="M969.334 344.024L951.628 368.906L963.172 398H950.926L944.062 376.316L931.27 398H918.946L938.134 369.296L927.76 344.024H939.928L945.7 362.354L957.088 344.024H969.334ZM1011.49 356.66L997.295 376.316L1007.51 398H995.579L989.885 382.322L979.901 398H967.655L984.035 375.926L974.831 356.66H986.765L991.289 370.466L999.479 356.66H1011.49Z" fill="#5022D3"/>
<rect width="183" height="142" transform="translate(873 151)" fill="white"/>
<path d="M961.769 247H950.693L952.565 224.926C953.241 216.606 954.125 209.092 955.217 202.384L940.865 241.228H930.023L925.733 202.462C925.421 209.014 924.407 216.71 922.691 225.55L918.635 247H907.559L919.259 193.024H933.221L936.887 230.854L950.303 193.024H965.201L961.769 247ZM1018.82 247H1008.52L1009.69 230.932C1009.9 228.02 1010.16 225.42 1010.47 223.132C1010.78 220.844 1011.3 218.062 1012.03 214.786L1000.8 242.71H991.441L988.321 214.864C988.009 220.272 987.333 225.732 986.293 231.244L983.173 247H972.799L982.081 205.66H994.873L997.525 233.038L1007.74 205.66H1021L1018.82 247Z" fill="#5022D3"/>
<rect width="185" height="142" transform="translate(1165 453)" fill="white"/>
<path d="M1238.85 493.776C1245.14 493.776 1249.98 495.674 1253.36 499.47C1256.79 503.266 1258.51 508.726 1258.51 515.85C1258.51 521.102 1257.62 526.354 1255.85 531.606C1254.09 536.858 1251.17 541.278 1247.12 544.866C1243.06 548.454 1237.84 550.248 1231.44 550.248C1225.2 550.248 1220.47 548.376 1217.24 544.632C1214.02 540.836 1212.41 535.48 1212.41 528.564C1212.41 527.264 1212.43 526.276 1212.49 525.6H1206.48L1203.2 549H1191.82L1199.38 495.024H1210.77L1207.73 516.552H1213.73C1215.29 509.896 1218.1 504.436 1222.16 500.172C1226.21 495.908 1231.78 493.776 1238.85 493.776ZM1232.14 541.59C1235.83 541.59 1238.77 540.108 1240.96 537.144C1243.14 534.128 1244.65 530.54 1245.48 526.38C1246.31 522.168 1246.73 518.008 1246.73 513.9C1246.73 509.896 1246 506.984 1244.54 505.164C1243.14 503.292 1241.03 502.356 1238.23 502.356C1234.59 502.356 1231.67 503.864 1229.49 506.88C1227.31 509.896 1225.77 513.51 1224.89 517.722C1224 521.882 1223.56 525.938 1223.56 529.89C1223.56 537.69 1226.42 541.59 1232.14 541.59ZM1308.83 506.412C1313.98 506.412 1318.01 507.972 1320.92 511.092C1323.83 514.16 1325.29 518.346 1325.29 523.65C1325.29 527.81 1324.56 531.918 1323.1 535.974C1321.65 540.03 1319.28 543.436 1316 546.192C1312.73 548.896 1308.49 550.248 1303.29 550.248C1298.14 550.248 1294.09 548.714 1291.12 545.646C1288.21 542.526 1286.75 538.236 1286.75 532.776V531.918H1280.98L1278.56 549H1267.64L1273.42 507.66H1284.34L1282.07 524.04H1287.85C1289.15 518.944 1291.51 514.732 1294.94 511.404C1298.43 508.076 1303.06 506.412 1308.83 506.412ZM1303.99 541.902C1307.58 541.902 1310.13 539.926 1311.64 535.974C1313.2 531.97 1314 527.68 1314.05 523.104C1314.05 517.488 1312.08 514.68 1308.13 514.68C1305.63 514.68 1303.6 515.72 1302.04 517.8C1300.53 519.828 1299.47 522.298 1298.84 525.21C1298.27 528.07 1297.99 530.852 1297.99 533.556C1297.99 539.12 1299.99 541.902 1303.99 541.902Z" fill="#5022D3"/>
<rect width="184" height="142" transform="translate(1458)" fill="white"/>
<path d="M1556.54 48.888C1554.51 49.304 1552.85 50.006 1551.55 50.994C1550.25 51.93 1548.72 53.698 1546.95 56.298L1539.38 67.608L1550.54 96H1538.76L1529.79 71.976H1525.19L1521.83 96H1511.22L1514.73 71.976H1510.21L1494.84 96H1482.29L1501.63 66.672L1496.4 55.05C1495.57 53.178 1494.58 51.8 1493.44 50.916C1492.3 50.032 1490.66 49.33 1488.53 48.81L1491.41 40.776C1495.31 41.452 1498.3 42.518 1500.38 43.974C1502.46 45.378 1504.1 47.484 1505.3 50.292L1511.38 63.63H1515.9L1518.95 42.024H1529.4L1526.36 63.63H1530.49L1538.68 51.072C1540.29 48.576 1541.77 46.704 1543.13 45.456C1544.53 44.156 1546.01 43.194 1547.57 42.57C1549.18 41.894 1551.34 41.296 1554.05 40.776L1556.54 48.888ZM1617.62 60.822C1615.54 61.498 1613.93 62.356 1612.79 63.396C1611.7 64.384 1610.53 65.97 1609.28 68.154L1605.61 74.706L1612.79 96H1602.02L1596.64 78.138H1592.51L1590.01 96H1580.26L1582.76 78.138H1578.78L1568.33 96H1557.02L1570.98 73.848L1567.7 65.658C1567.18 64.306 1566.51 63.292 1565.68 62.616C1564.84 61.888 1563.6 61.238 1561.93 60.666L1564.9 53.412C1568.33 54.348 1570.85 55.44 1572.46 56.688C1574.13 57.936 1575.43 59.86 1576.36 62.46L1579.64 71.04H1583.77L1586.03 54.66H1595.78L1593.52 71.04H1597.58L1602.41 62.616C1604.13 59.756 1605.79 57.702 1607.41 56.454C1609.02 55.206 1611.41 54.192 1614.58 53.412L1617.62 60.822Z" fill="#5022D3"/>
<rect width="184" height="142" transform="translate(1458 302)" fill="white"/>
<path d="M1550.51 344.024L1542.95 398H1483.98L1491.54 344.024H1502.7L1496.38 388.952H1509.41L1515.72 344.024H1526.33L1520.01 388.952H1533.04L1539.36 344.024H1550.51ZM1619.26 356.66L1613.49 398H1604.05L1604.36 391.214C1600.82 396.57 1596.51 399.248 1591.41 399.248C1588.97 399.248 1586.91 398.572 1585.25 397.22C1583.64 395.816 1582.65 393.866 1582.29 391.37C1580.57 393.866 1578.59 395.816 1576.36 397.22C1574.12 398.572 1571.81 399.248 1569.42 399.248C1566.56 399.248 1564.29 398.364 1562.63 396.596C1560.97 394.776 1560.13 392.28 1560.13 389.108C1560.13 388.016 1560.19 387.158 1560.29 386.534L1564.5 356.66H1575.42L1571.44 384.35C1571.34 385.39 1571.29 386.066 1571.29 386.378C1571.29 387.782 1571.52 388.77 1571.99 389.342C1572.51 389.862 1573.24 390.122 1574.17 390.122C1576.93 390.122 1579.84 387.444 1582.91 382.088L1586.5 356.66H1597.42L1593.52 384.35C1593.41 384.922 1593.36 385.65 1593.36 386.534C1593.36 387.886 1593.6 388.822 1594.06 389.342C1594.58 389.862 1595.29 390.122 1596.17 390.122C1597.63 390.122 1599.11 389.394 1600.62 387.938C1602.12 386.43 1603.55 384.428 1604.91 381.932L1608.34 356.66H1619.26Z" fill="#5022D3"/>
<rect width="184" height="142" transform="translate(1458 151)" fill="white"/>
<path d="M1550.67 193.024L1543.11 247H1531.8L1538.11 201.994H1520.72L1514.48 247H1503.09L1510.66 193.024H1550.67ZM1582.51 247L1587.04 214.006H1574.79L1570.19 247H1559.27L1565.04 205.66H1599.2L1593.43 247H1582.51Z" fill="#5022D3"/>
<rect width="184" height="142" transform="translate(482)" fill="white"/>
<path d="M560.989 67.452C564.265 68.076 566.865 69.246 568.789 70.962C570.765 72.678 571.753 75.304 571.753 78.84C571.753 84.04 569.803 88.2 565.903 91.32C562.003 94.44 555.633 96 546.793 96H530.101L537.667 42.024H553.267C559.455 42.024 564.265 43.012 567.697 44.988C571.181 46.912 572.923 50.006 572.923 54.27C572.923 57.858 571.779 60.77 569.491 63.006C567.255 65.19 564.421 66.672 560.989 67.452ZM547.807 50.292L545.935 63.942H551.317C554.541 63.942 556.985 63.188 558.649 61.68C560.365 60.12 561.223 58.014 561.223 55.362C561.223 53.49 560.547 52.19 559.195 51.462C557.895 50.682 555.971 50.292 553.423 50.292H547.807ZM547.729 87.498C552.357 87.498 555.555 86.692 557.323 85.08C559.143 83.416 560.053 81.076 560.053 78.06C560.053 73.848 557.141 71.742 551.317 71.742H544.843L542.659 87.498H547.729ZM606.108 53.412C610.164 53.412 613.492 54.296 616.092 56.064C618.692 57.832 619.992 60.276 619.992 63.396C619.992 65.736 619.316 67.764 617.964 69.48C616.612 71.196 614.558 72.652 611.802 73.848C614.194 74.628 616.092 75.772 617.496 77.28C618.952 78.788 619.68 80.712 619.68 83.052C619.68 86.12 618.822 88.72 617.106 90.852C615.39 92.984 613.128 94.596 610.32 95.688C607.564 96.728 604.6 97.248 601.428 97.248C595.604 97.248 590.95 95.688 587.466 92.568C584.034 89.448 582.318 84.95 582.318 79.074C582.318 74.914 583.228 70.858 585.048 66.906C586.868 62.954 589.572 59.73 593.16 57.234C596.8 54.686 601.116 53.412 606.108 53.412ZM605.25 60.822C602.442 60.822 600.076 61.862 598.152 63.942C596.228 66.022 594.876 68.726 594.096 72.054C604.496 71.222 609.696 68.7 609.696 64.488C609.696 63.292 609.306 62.382 608.526 61.758C607.798 61.134 606.706 60.822 605.25 60.822ZM604.392 76.188C601.168 77.072 597.502 77.67 593.394 77.982V79.23C593.394 82.35 594.044 84.846 595.344 86.718C596.644 88.538 598.646 89.448 601.35 89.448C603.586 89.448 605.354 88.85 606.654 87.654C608.006 86.458 608.682 84.742 608.682 82.506C608.682 81.102 608.292 79.906 607.512 78.918C606.784 77.878 605.744 76.968 604.392 76.188Z" fill="#5022D3"/>
<rect width="184" height="142" transform="translate(482 302)" fill="white"/>
<path d="M561.737 382.4C559.657 386.456 557.525 389.628 555.341 391.916C553.157 394.204 550.687 395.894 547.931 396.986C545.227 398.078 541.873 398.832 537.869 399.248L537.245 391.37C540.833 390.902 543.589 390.122 545.513 389.03C547.437 387.886 549.101 386.04 550.505 383.492H547.073L536.075 344.024H547.385L554.717 377.018L569.849 344.024H581.627L561.737 382.4ZM603.541 398.234C601.201 403.434 598.029 407.438 594.025 410.246C590.021 413.106 584.951 414.744 578.815 415.16L578.503 407.204C582.507 406.684 585.549 405.748 587.629 404.396C589.709 403.044 591.581 400.912 593.245 398H589.345L582.403 356.66H593.869L597.301 390.59L610.561 356.66H622.027L603.541 398.234Z" fill="#5022D3"/>
<rect width="184" height="142" transform="translate(482 151)" fill="white"/>
<path d="M577.883 199.888C575.907 200.304 574.295 200.98 573.047 201.916C571.799 202.8 570.291 204.516 568.523 207.064L560.411 218.608L572.189 247H560.489L550.895 222.976H544.577L541.223 247H529.835L537.401 193.024H548.789L545.747 214.63H551.519L560.177 201.838C561.841 199.394 563.323 197.548 564.623 196.3C565.975 195.052 567.431 194.116 568.991 193.492C570.551 192.868 572.683 192.296 575.387 191.776L577.883 199.888ZM622.051 212.446C620.127 213.07 618.645 213.876 617.605 214.864C616.617 215.852 615.291 217.542 613.627 219.934L609.649 225.862L618.151 247H606.763L600.055 229.138H595.999L593.503 247H582.583L588.355 205.66H599.275L597.013 222.04H600.835L606.529 213.538C608.401 210.73 610.169 208.702 611.833 207.454C613.497 206.206 615.889 205.192 619.009 204.412L622.051 212.446Z" fill="#5022D3"/>
<rect width="184" height="142" transform="translate(775 453)" fill="white"/>
<path d="M848.229 513.744C854.261 513.744 858.915 515.044 862.191 517.644C865.519 520.192 867.183 523.936 867.183 528.876C867.183 532.36 866.377 535.636 864.765 538.704C863.205 541.72 860.657 544.19 857.121 546.114C853.637 548.038 849.165 549 843.705 549H826.077L833.643 495.024H845.031L842.379 513.744H848.229ZM844.017 540.498C848.125 540.498 851.011 539.432 852.675 537.3C854.391 535.116 855.249 532.516 855.249 529.5C855.249 524.456 852.363 521.934 846.591 521.934H841.209L838.635 540.498H844.017ZM894.409 520.608C905.745 520.608 911.413 524.846 911.413 533.322C911.413 536.078 910.737 538.756 909.385 541.356C908.033 543.904 905.875 546.036 902.911 547.752C899.999 549.416 896.255 550.248 891.679 550.248C886.739 550.248 881.643 549.416 876.391 547.752L882.007 507.66H892.927L891.133 520.608H894.409ZM891.835 542.76C894.799 542.76 896.957 541.85 898.309 540.03C899.713 538.158 900.415 535.974 900.415 533.478C900.415 529.786 898.101 527.94 893.473 527.94H890.119L888.169 542.292C889.937 542.604 891.159 542.76 891.835 542.76Z" fill="#5022D3"/>
<rect width="183" height="142" transform="translate(1068)" fill="white"/>
<path d="M1160.36 42.024L1158.02 50.448H1138.76L1136.81 64.41H1153.5L1152.49 72.678H1135.72L1133.61 87.576H1154.2L1152.95 96H1121.05L1128.62 42.024H1160.36ZM1202.64 64.566C1202.64 69.818 1200.2 73.666 1195.31 76.11C1190.47 78.502 1184.05 80.088 1176.04 80.868C1176.3 86.224 1178.88 88.902 1183.76 88.902C1185.58 88.902 1187.33 88.59 1188.99 87.966C1190.65 87.342 1192.47 86.38 1194.45 85.08L1198.51 91.788C1193.46 95.428 1188.11 97.248 1182.44 97.248C1176.77 97.248 1172.43 95.714 1169.41 92.646C1166.45 89.526 1164.97 85.288 1164.97 79.932C1164.97 75.772 1165.75 71.664 1167.31 67.608C1168.87 63.552 1171.36 60.172 1174.79 57.468C1178.23 54.764 1182.59 53.412 1187.9 53.412C1192.58 53.412 1196.19 54.478 1198.74 56.61C1201.34 58.69 1202.64 61.342 1202.64 64.566ZM1176.59 73.848C1181.74 73.432 1185.51 72.47 1187.9 70.962C1190.34 69.402 1191.56 67.426 1191.56 65.034C1191.56 63.942 1191.2 63.006 1190.47 62.226C1189.8 61.446 1188.68 61.056 1187.12 61.056C1184.15 61.056 1181.81 62.278 1180.1 64.722C1178.38 67.166 1177.21 70.208 1176.59 73.848Z" fill="#5022D3"/>
<rect width="183" height="142" transform="translate(1068 302)" fill="white"/>
<path d="M1159.13 344.024L1152.82 389.108H1158.9L1155.94 410.636H1147.98L1148.37 398H1112.18L1119.74 344.024H1131.13L1124.74 388.952H1141.51L1147.82 344.024H1159.13ZM1209.75 389.732L1206.87 410.636H1199.07L1199.54 398H1192.98L1193.37 391.526C1191.45 394.022 1189.4 395.946 1187.21 397.298C1185.03 398.598 1182.66 399.248 1180.11 399.248C1176.89 399.248 1174.39 398.338 1172.63 396.518C1170.91 394.698 1170.05 392.176 1170.05 388.952C1170.05 388.016 1170.13 387.08 1170.29 386.144L1174.5 356.66H1185.42L1181.52 384.584C1181.41 385.624 1181.36 386.326 1181.36 386.69C1181.36 388.094 1181.62 389.082 1182.14 389.654C1182.66 390.174 1183.47 390.434 1184.56 390.434C1186.17 390.434 1187.71 389.784 1189.16 388.484C1190.67 387.132 1192.15 385.364 1193.61 383.18L1197.35 356.66H1208.27L1203.67 389.732H1209.75Z" fill="#5022D3"/>
<rect width="183" height="142" transform="translate(1068 151)" fill="white"/>
<path d="M1124.17 247H1112.86L1120.43 193.024H1131.82L1128.78 214.318H1146.25L1149.29 193.024H1160.6L1153.03 247H1141.72L1145 223.366H1127.53L1124.17 247ZM1192.67 247L1195.09 230.152H1182.45L1180.11 247H1169.19L1174.96 205.66H1185.88L1183.62 221.806H1196.26L1198.44 205.66H1209.36L1203.59 247H1192.67Z" fill="#5022D3"/>
<rect width="185" height="142" transform="translate(1360 453)" fill="white"/>
<path d="M1452.24 495.024L1444.67 549H1433.28L1436.09 529.11L1428.52 529.032L1416.51 549H1404.27L1418.54 526.77C1416.1 525.574 1414.22 523.936 1412.92 521.856C1411.68 519.724 1411.05 517.228 1411.05 514.368C1411.05 511.04 1411.81 507.92 1413.31 505.008C1414.87 502.096 1417.45 499.704 1421.04 497.832C1424.62 495.96 1429.3 495.024 1435.08 495.024H1452.24ZM1439.68 503.292H1434.61C1430.5 503.292 1427.54 504.306 1425.72 506.334C1423.9 508.362 1422.99 510.936 1422.99 514.056C1422.99 516.292 1423.64 518.008 1424.94 519.204C1426.24 520.348 1428.03 520.92 1430.32 520.92H1437.18L1439.68 503.292ZM1483.09 506.412C1487.71 506.412 1492.78 506.984 1498.3 508.128L1492.68 549H1481.76L1483.87 534.258H1478.25L1468.66 549H1456.18L1468.58 531.528C1466.81 530.384 1465.46 528.98 1464.52 527.316C1463.59 525.6 1463.12 523.676 1463.12 521.544C1463.12 518.944 1463.74 516.526 1464.99 514.29C1466.24 512.002 1468.34 510.13 1471.31 508.674C1474.32 507.166 1478.25 506.412 1483.09 506.412ZM1482.85 513.9C1479.78 513.9 1477.57 514.628 1476.22 516.084C1474.92 517.54 1474.27 519.412 1474.27 521.7C1474.27 525.496 1476.25 527.394 1480.2 527.394H1484.8L1486.75 514.212C1485.45 514.004 1484.15 513.9 1482.85 513.9Z" fill="#5022D3"/>
<rect width="183" height="142" transform="translate(1654)" fill="white"/>
<path d="M1730.22 40.776C1735.26 40.776 1739.19 41.946 1742 44.286C1744.86 46.626 1746.29 49.72 1746.29 53.568C1746.29 57.052 1745.12 60.016 1742.78 62.46C1740.44 64.852 1737.06 66.516 1732.64 67.452C1736.28 67.816 1739.14 68.986 1741.22 70.962C1743.3 72.886 1744.34 75.564 1744.34 78.996C1744.34 82.584 1743.32 85.782 1741.3 88.59C1739.32 91.346 1736.59 93.478 1733.11 94.986C1729.62 96.494 1725.75 97.248 1721.48 97.248C1717.58 97.248 1714.23 96.624 1711.42 95.376C1708.67 94.076 1706.25 92.152 1704.17 89.604L1711.03 83.754C1713.74 86.926 1717.25 88.512 1721.56 88.512C1725.2 88.512 1727.93 87.602 1729.75 85.782C1731.57 83.962 1732.48 81.622 1732.48 78.762C1732.48 74.082 1729.52 71.742 1723.59 71.742H1717.97L1720.47 63.318H1724.68C1727.59 63.318 1729.93 62.538 1731.7 60.978C1733.47 59.366 1734.35 57.286 1734.35 54.738C1734.35 51.098 1732.3 49.278 1728.19 49.278C1724.34 49.278 1720.39 50.838 1716.34 53.958L1711.42 47.718C1717.09 43.09 1723.36 40.776 1730.22 40.776ZM1771.23 53.412C1775.39 53.412 1778.82 54.348 1781.53 56.22C1784.23 58.092 1785.58 60.666 1785.58 63.942C1785.58 66.438 1784.7 68.57 1782.93 70.338C1781.22 72.106 1778.72 73.328 1775.44 74.004C1778.51 74.368 1780.85 75.382 1782.46 77.046C1784.13 78.658 1784.96 80.764 1784.96 83.364C1784.96 85.808 1784.28 88.096 1782.93 90.228C1781.58 92.308 1779.45 93.998 1776.54 95.298C1773.68 96.598 1770.06 97.248 1765.69 97.248C1759.19 97.248 1753.86 95.532 1749.7 92.1L1755.09 85.86C1756.75 87.004 1758.41 87.836 1760.08 88.356C1761.74 88.876 1763.54 89.136 1765.46 89.136C1768.22 89.136 1770.27 88.59 1771.62 87.498C1772.97 86.354 1773.65 84.872 1773.65 83.052C1773.65 79.932 1771.26 78.372 1766.47 78.372H1760.23L1761.95 70.962H1766.4C1769 70.962 1770.97 70.442 1772.32 69.402C1773.73 68.362 1774.43 67.01 1774.43 65.346C1774.43 63.942 1773.96 62.902 1773.03 62.226C1772.09 61.55 1770.79 61.212 1769.13 61.212C1767.25 61.212 1765.59 61.472 1764.13 61.992C1762.68 62.46 1761.01 63.214 1759.14 64.254L1754.85 58.092C1759.58 54.972 1765.04 53.412 1771.23 53.412Z" fill="#5022D3"/>
<rect width="183" height="142" transform="translate(1654 302)" fill="white"/>
<path d="M1744.72 344.024L1738.4 389.108H1744.49L1741.52 410.636H1733.57L1733.96 398H1678.19L1685.75 344.024H1696.91L1690.59 388.952H1703.62L1709.93 344.024H1720.54L1714.22 388.952H1727.25L1733.57 344.024H1744.72ZM1816.71 389.732L1813.83 410.636H1806.03L1806.5 398H1799.55L1799.87 391.214C1796.33 396.57 1792.01 399.248 1786.92 399.248C1784.47 399.248 1782.42 398.572 1780.76 397.22C1779.14 395.816 1778.16 393.866 1777.79 391.37C1776.08 393.866 1774.1 395.816 1771.86 397.22C1769.63 398.572 1767.31 399.248 1764.92 399.248C1762.06 399.248 1759.8 398.364 1758.14 396.596C1756.47 394.776 1755.64 392.28 1755.64 389.108C1755.64 388.016 1755.69 387.158 1755.8 386.534L1760.01 356.66H1770.93L1766.95 384.35C1766.85 385.39 1766.79 386.066 1766.79 386.378C1766.79 387.782 1767.03 388.77 1767.5 389.342C1768.02 389.862 1768.74 390.122 1769.68 390.122C1772.44 390.122 1775.35 387.444 1778.42 382.088L1782 356.66H1792.92L1789.02 384.35C1788.92 384.922 1788.87 385.65 1788.87 386.534C1788.87 387.886 1789.1 388.822 1789.57 389.342C1790.09 389.862 1790.79 390.122 1791.68 390.122C1793.13 390.122 1794.61 389.394 1796.12 387.938C1797.63 386.43 1799.06 384.428 1800.41 381.932L1803.84 356.66H1814.76L1810.16 389.732H1816.71Z" fill="#5022D3"/>
<rect width="183" height="142" transform="translate(1654 151)" fill="white"/>
<path d="M1726.09 193.024C1732.38 193.024 1737.24 194.298 1740.68 196.846C1744.16 199.342 1745.9 203.034 1745.9 207.922C1745.9 211.458 1745.1 214.786 1743.48 217.906C1741.87 221.026 1739.3 223.6 1735.76 225.628C1732.23 227.604 1727.7 228.592 1722.19 228.592H1716.11L1713.53 247H1702.14L1709.71 193.024H1726.09ZM1722.19 220.168C1726.51 220.168 1729.55 219.024 1731.32 216.736C1733.14 214.396 1734.05 211.588 1734.05 208.312C1734.05 203.632 1731.06 201.292 1725.08 201.292H1719.85L1717.28 220.168H1722.19ZM1758.53 205.66H1768.13L1768.05 210.34C1771.84 206.388 1775.95 204.412 1780.37 204.412C1784.48 204.412 1787.63 205.816 1789.81 208.624C1791.99 211.432 1793.09 215.41 1793.09 220.558C1793.09 224.926 1792.33 229.242 1790.82 233.506C1789.37 237.718 1787 241.228 1783.73 244.036C1780.45 246.844 1776.26 248.248 1771.17 248.248C1768.36 248.248 1765.84 247.832 1763.6 247L1761.26 262.99L1750.34 264.238L1758.53 205.66ZM1770.54 239.98C1773.14 239.98 1775.28 238.992 1776.94 237.016C1778.6 234.988 1779.83 232.492 1780.61 229.528C1781.39 226.564 1781.78 223.574 1781.78 220.558C1781.78 217.698 1781.28 215.67 1780.29 214.474C1779.36 213.278 1778.03 212.68 1776.32 212.68C1773.35 212.68 1770.52 214.344 1767.81 217.672L1764.85 238.966C1766.57 239.642 1768.46 239.98 1770.54 239.98Z" fill="#5022D3"/>
</svg>
