<svg width="1920" height="1456" viewBox="0 0 1920 1456" fill="none" xmlns="http://www.w3.org/2000/svg">
<g clip-path="url(#clip0_126_54)">
<mask id="mask0_126_54" style="mask-type:luminance" maskUnits="userSpaceOnUse" x="0" y="0" width="1920" height="1456">
<path d="M1920 0H0V1456H1920V0Z" fill="white"/>
</mask>
<g mask="url(#mask0_126_54)">
<path d="M1523 173C1523 266.88 1446.67 343 1352.5 343C1258.33 343 1182 266.88 1182 173C1182 79.1198 1258.33 3 1352.5 3C1446.67 3 1523 79.1198 1523 173Z" stroke="white" stroke-width="6"/>
<path d="M1134 511.5H1735" stroke="white" stroke-width="3"/>
<path d="M1601 69.5H1735" stroke="white" stroke-width="3"/>
<path d="M1517.2 122.73L1603.2 68.7295" stroke="white" stroke-width="3"/>
<path d="M1736.5 68V513" stroke="white" stroke-width="3"/>
<path d="M1922 767H-3V1456H1922V767Z" fill="white"/>
<path d="M1084.08 771.007C1392.37 673.251 1922 696.388 1922 696.388V847H968C968 847 985.186 802.365 1084.08 771.007Z" fill="white"/>
<path d="M1655.87 688.61C1753.78 571.047 1922 598.872 1922 598.872V780H1619C1619 780 1624.46 726.322 1655.87 688.61Z" fill="white"/>
<path d="M911.251 578.623L895.58 571.216C892.579 569.798 891.296 566.215 892.714 563.213L902.986 541.479C904.404 538.478 907.987 537.195 910.989 538.613L926.66 546.02C920.296 556.259 915.122 567.204 911.251 578.623Z" fill="white"/>
<path d="M881.066 679.357H941.174V709.411H881.066V679.357Z" fill="#5022D3"/>
<path d="M953.197 660.462C953.197 571.448 990.946 499.031 1037.35 499.031V667.333H953.197V660.462Z" fill="#5022D3"/>
<path d="M953.197 679.357H1037.35V709.411H953.197V679.357Z" fill="#5022D3"/>
<path d="M1026.04 499.444C1025.24 499.502 1024.45 499.568 1023.66 499.638C1024.45 499.569 1025.24 499.501 1026.04 499.444Z" fill="#D5D9DE"/>
<path d="M1030.25 499.198C1029.82 499.219 1029.38 499.234 1028.94 499.258C1029.38 499.235 1029.82 499.219 1030.25 499.198Z" fill="#D5D9DE"/>
<path d="M993.765 505.262C962.317 533.473 941.174 591.677 941.174 660.464V667.335H881.066V655.314C881.066 618.709 893.72 585.008 914.877 558.344C922.371 548.899 930.931 540.338 940.376 532.844C952.107 523.536 965.201 515.876 979.306 510.215C993.048 504.698 1007.75 501.085 1023.08 499.69C1013.01 500.62 1003.21 502.516 993.765 505.262Z" fill="#5022D3"/>
<path d="M1037.35 679.357H1121.5V709.411H1037.35V679.357Z" fill="#5022D3"/>
<path d="M1133.52 660.464C1133.52 591.677 1112.38 533.473 1080.93 505.262C1071.49 502.515 1061.69 500.619 1051.61 499.69C1131.13 506.919 1193.63 573.949 1193.63 655.314V667.335H1133.52V660.464Z" fill="#5022D3"/>
<path d="M1133.52 679.357H1193.63V709.411H1133.52V679.357Z" fill="#5022D3"/>
<path d="M1042.04 499.109C1041.65 499.097 1041.26 499.086 1040.88 499.077C1041.27 499.085 1041.65 499.097 1042.04 499.109Z" fill="#B6B8BE"/>
<path d="M1051.03 499.638C1050.24 499.568 1049.45 499.502 1048.65 499.444C1049.45 499.501 1050.24 499.57 1051.03 499.638Z" fill="#B6B8BE"/>
<path d="M1037.35 499.031C1083.75 499.031 1121.5 571.448 1121.5 660.462V667.333H1037.35V499.031Z" fill="#5022D3"/>
<path d="M941.174 660.462C941.174 591.676 962.318 533.471 993.765 505.26C1003.21 502.513 1013.01 500.617 1023.08 499.689C1023.28 499.671 1023.47 499.654 1023.67 499.637C1024.46 499.567 1025.25 499.501 1026.04 499.443C1027 499.372 1027.97 499.311 1028.94 499.258C1029.38 499.235 1029.82 499.218 1030.26 499.199C1031.06 499.162 1031.86 499.131 1032.66 499.107C1033.05 499.096 1033.43 499.085 1033.82 499.076C1034.99 499.049 1036.17 499.031 1037.35 499.031C990.945 499.031 953.196 571.448 953.196 660.462V667.333H1037.35V679.355H953.196V709.409H941.174V679.355H881.066V667.333H941.174V660.462Z" fill="white"/>
<path d="M1067.4 745.475C1067.4 738.845 1062.01 733.453 1055.38 733.453H1019.32C1012.69 733.453 1007.29 738.845 1007.29 745.475V781.539H869.047V715.421C869.047 712.101 871.735 709.41 875.057 709.41H881.068H941.176H953.198H1037.35H1121.5V679.356H1037.35V667.334H1121.5V660.463C1121.5 571.45 1083.75 499.032 1037.35 499.032C1036.17 499.032 1034.99 499.05 1033.82 499.077C1033.43 499.086 1033.05 499.098 1032.66 499.109C1031.86 499.133 1031.06 499.164 1030.26 499.201C1029.82 499.22 1029.38 499.237 1028.94 499.26C1027.97 499.313 1027.01 499.374 1026.04 499.445C1025.25 499.502 1024.46 499.57 1023.67 499.639C1023.47 499.656 1023.28 499.673 1023.08 499.691C1007.75 501.084 993.05 504.698 979.309 510.215L974.895 499.181C973.643 496.05 975.183 492.43 978.357 491.287C996.783 484.649 1016.64 481 1037.35 481C1131.56 481 1208.31 555.738 1211.56 649.159C1211.67 652.53 1208.89 655.313 1205.51 655.313H1193.63C1193.63 573.949 1131.13 506.919 1051.61 499.69C1061.69 500.618 1071.49 502.514 1080.93 505.261C1112.38 533.472 1133.52 591.677 1133.52 660.463V667.334H1193.63V679.356H1133.52V709.41H1193.63H1199.64C1202.96 709.41 1205.65 712.101 1205.65 715.421V781.539H1067.4V745.475ZM1048.66 499.445C1049.45 499.503 1050.24 499.569 1051.03 499.639C1050.24 499.57 1049.45 499.501 1048.66 499.445ZM1040.88 499.077C1041.27 499.086 1041.65 499.098 1042.04 499.109C1041.65 499.097 1041.27 499.086 1040.88 499.077ZM1044.44 499.2C1044.88 499.22 1045.32 499.236 1045.75 499.259C1045.32 499.237 1044.88 499.22 1044.44 499.2ZM953.198 763.507C953.198 766.827 955.886 769.518 959.209 769.518H983.252C986.574 769.518 989.262 766.827 989.262 763.507V739.464C989.262 736.144 986.574 733.453 983.252 733.453H959.209C955.886 733.453 953.198 736.144 953.198 739.464V763.507ZM899.101 763.507C899.101 766.827 901.789 769.518 905.111 769.518H929.155C932.477 769.518 935.165 766.827 935.165 763.507V739.464C935.165 736.144 932.477 733.453 929.155 733.453H905.111C901.789 733.453 899.101 736.144 899.101 739.464V763.507ZM1139.53 763.507C1139.53 766.827 1142.22 769.518 1145.54 769.518H1169.59C1172.91 769.518 1175.6 766.827 1175.6 763.507V739.464C1175.6 736.144 1172.91 733.453 1169.59 733.453H1145.54C1142.22 733.453 1139.53 736.144 1139.53 739.464V763.507ZM1091.45 769.518H1115.49C1118.81 769.518 1121.5 766.827 1121.5 763.507V739.464C1121.5 736.144 1118.81 733.453 1115.49 733.453H1091.45C1088.12 733.453 1085.44 736.144 1085.44 739.464V763.507C1085.44 766.827 1088.12 769.518 1091.45 769.518Z" fill="white"/>
<path d="M851.011 781.538H869.043H1007.29V745.474C1007.29 738.844 1012.69 733.452 1019.31 733.452H1055.38C1062.01 733.452 1067.4 738.844 1067.4 745.474V781.538H1205.65H1223.68C1227 781.538 1229.69 784.23 1229.69 787.549C1229.69 790.869 1227 793.56 1223.68 793.56H1199.64H1061.39H1013.3H875.054H851.011C847.688 793.56 845 790.869 845 787.549C845 784.23 847.688 781.538 851.011 781.538Z" fill="#5022D3"/>
<path d="M1091.44 733.452H1115.49C1118.81 733.452 1121.5 736.143 1121.5 739.463V763.506C1121.5 766.826 1118.81 769.517 1115.49 769.517H1091.44C1088.12 769.517 1085.43 766.826 1085.43 763.506V739.463C1085.43 736.143 1088.12 733.452 1091.44 733.452Z" fill="#5022D3"/>
<path d="M1145.54 733.452H1169.58C1172.91 733.452 1175.59 736.143 1175.59 739.463V763.506C1175.59 766.826 1172.91 769.517 1169.58 769.517H1145.54C1142.22 769.517 1139.53 766.826 1139.53 763.506V739.463C1139.53 736.143 1142.22 733.452 1145.54 733.452Z" fill="#5022D3"/>
<path d="M905.111 733.452H929.154C932.477 733.452 935.165 736.143 935.165 739.463V763.506C935.165 766.826 932.477 769.517 929.154 769.517H905.111C901.789 769.517 899.1 766.826 899.1 763.506V739.463C899.1 736.143 901.789 733.452 905.111 733.452Z" fill="#5022D3"/>
<path d="M959.206 733.452H983.249C986.571 733.452 989.26 736.143 989.26 739.463V763.506C989.26 766.826 986.571 769.517 983.249 769.517H959.206C955.883 769.517 953.195 766.826 953.195 763.506V739.463C953.195 736.143 955.883 733.452 959.206 733.452Z" fill="#5022D3"/>
<path d="M1363.29 853.55C593.86 651.011 -728 698.948 -728 698.948V1011H1653C1653 1011 1610.11 918.522 1363.29 853.55Z" fill="white"/>
<path d="M408.725 79.8096L418.395 88.7628M654.07 306.966L663.74 315.92M531.397 193.388L541.067 202.341M776.743 420.544L786.413 429.498M429.17 98.7393L438.84 107.693M674.515 325.896L684.186 334.849M551.843 212.318L561.513 221.271M797.188 439.474L806.858 448.427M449.615 117.669L459.286 126.623M694.961 344.826L704.631 353.779M572.288 231.248L581.958 240.201M817.633 458.404L827.304 467.357M470.061 136.599L479.731 145.552M715.406 363.755L725.076 372.709M592.734 250.177L602.404 259.13M838.079 477.334L847.749 486.287M490.506 155.529L500.176 164.482M735.852 382.685L745.522 391.638M613.179 269.107L622.849 278.06M858.524 496.263L868.195 505.216M510.952 174.458L520.622 183.412M756.297 401.615L765.967 410.568M633.624 288.037L643.295 296.99M878.97 515.193L888.64 524.146M156.816 418.185L171.221 421.012M522.27 489.908L536.674 492.735M339.543 454.047L353.947 456.874M704.997 525.769L719.401 528.596M187.271 424.162L201.675 426.989M552.724 495.885L567.129 498.712M369.998 460.024L384.402 462.85M735.451 531.746L749.855 534.573M217.725 430.139L232.13 432.966M583.179 501.862L597.583 504.689M400.452 466L414.856 468.827M765.906 537.723L780.31 540.55M248.18 436.116L262.584 438.943M613.633 507.839L628.038 510.665M430.907 471.977L445.311 474.804M796.36 543.7L810.764 546.527M278.634 442.093L293.038 444.92M644.088 513.815L658.492 516.642M461.361 477.954L475.765 480.781M826.815 549.677L841.219 552.504M309.089 448.07L323.493 450.897M674.542 519.792L688.946 522.619M491.816 483.931L506.22 486.758M857.269 555.654L871.673 558.48" stroke="url(#paint0_linear_126_54)" stroke-width="3"/>
<path d="M414 291.151V401H376.934L369.521 327.44H202.479L195.066 401H158V291.151H176.286C184.193 285.92 190.453 280.035 195.066 273.496C199.678 266.631 203.797 254.861 207.421 238.188C211.375 221.514 214.505 197.158 216.811 165.118L223.73 69H386.819V291.151H414ZM341.351 104.799H264.749L260.795 159.233C258.489 189.638 255.853 213.014 252.888 229.36C249.923 245.707 245.64 258.294 240.039 267.121C234.767 275.948 227.024 283.958 216.811 291.151H341.351V104.799Z" fill="white"/>
<mask id="mask1_126_54" style="mask-type:alpha" maskUnits="userSpaceOnUse" x="1179" y="0" width="347" height="347">
<path d="M1352.5 317.157C1432.03 317.157 1496.5 252.686 1496.5 173.157C1496.5 93.6282 1432.03 29.1572 1352.5 29.1572C1272.97 29.1572 1208.5 93.6282 1208.5 173.157C1208.5 252.686 1272.97 317.157 1352.5 317.157Z" fill="white" stroke="white" stroke-width="58.313"/>
</mask>
<g mask="url(#mask1_126_54)">
<path d="M2079.47 171.352V547.444H1953.76L1928.62 295.597H1362.07L1336.93 547.444H1211.21V171.352H1273.23C1300.05 153.443 1321.28 133.296 1336.93 110.909C1352.57 87.4031 1366.54 47.1076 1378.83 -9.97791C1392.24 -67.0633 1402.86 -150.453 1410.68 -260.147L1434.14 -589.228H1987.28V171.352H2079.47ZM1833.08 -466.661H1573.27L1559.86 -280.295C1552.04 -176.198 1543.1 -96.1657 1533.04 -40.1996C1522.98 15.7665 1508.46 58.8604 1489.46 89.0821C1471.58 119.303 1445.32 146.727 1410.68 171.352H1833.08V-466.661Z" fill="white"/>
</g>
<path d="M1298.33 94.452L1261.5 86.2499L1282.04 60.4102L1298.33 94.452Z" fill="white"/>
<path d="M1378.5 1224C1477.08 1224 1557 1144.08 1557 1045.5C1557 946.917 1477.08 867 1378.5 867C1279.92 867 1200 946.917 1200 1045.5C1200 1144.08 1279.92 1224 1378.5 1224Z" stroke="#5022D3" stroke-width="8"/>
<mask id="mask2_126_54" style="mask-type:alpha" maskUnits="userSpaceOnUse" x="1196" y="863" width="365" height="365">
<path d="M1378.5 1148.5C1435.39 1148.5 1481.5 1102.39 1481.5 1045.5C1481.5 988.615 1435.39 942.5 1378.5 942.5C1321.61 942.5 1275.5 988.615 1275.5 1045.5C1275.5 1102.39 1321.61 1148.5 1378.5 1148.5Z" fill="white" stroke="white" stroke-width="159"/>
</mask>
<g mask="url(#mask2_126_54)">
<path d="M1343.08 1151.8C1370.86 1151.8 1395.72 1158.88 1417.66 1173.03C1439.59 1187.18 1456.65 1207.91 1468.84 1235.24C1481.51 1262.07 1487.85 1294.03 1487.85 1331.11C1487.85 1371.12 1480.29 1405.77 1465.18 1435.04C1450.56 1463.83 1429.84 1486.03 1403.03 1501.64C1376.22 1516.77 1345.03 1524.33 1309.44 1524.33C1254.36 1524.33 1210.49 1505.79 1177.83 1468.71C1145.65 1431.14 1129.57 1374.29 1129.57 1298.18C1129.57 1242.07 1133.96 1195.96 1142.73 1159.85C1151.99 1123.75 1167.83 1094.23 1190.26 1071.3C1212.68 1047.88 1244.12 1029.58 1284.58 1016.41C1314.32 1006.65 1337.71 998.108 1354.77 990.789C1371.84 982.983 1390.36 972.98 1410.34 960.782L1446.17 1023.72C1429.11 1034.95 1411.08 1044.95 1392.06 1053.73C1373.05 1062.03 1350.14 1070.56 1323.33 1079.35C1300.91 1086.67 1282.87 1095.2 1269.23 1104.96C1256.06 1114.72 1245.58 1128.63 1237.78 1146.68C1229.98 1164.25 1224.62 1188.15 1221.7 1218.4C1250.46 1174 1290.92 1151.8 1343.08 1151.8ZM1308.71 1453.34C1333.57 1453.34 1353.07 1444.56 1367.2 1426.99C1381.83 1408.94 1389.14 1377.95 1389.14 1334.04C1389.14 1293.54 1383.29 1265 1371.59 1248.41C1359.89 1231.33 1342.34 1222.8 1318.95 1222.8C1300.91 1222.8 1283.85 1227.67 1267.76 1237.43C1252.16 1247.19 1239 1262.07 1228.28 1282.08V1331.11C1228.28 1371.12 1235.35 1401.62 1249.48 1422.6C1263.62 1443.09 1283.36 1453.34 1308.71 1453.34Z" fill="#5022D3"/>
</g>
<path d="M506.43 1225.86C605.526 1225.86 685.86 1145.53 685.86 1046.43C685.86 947.334 605.526 867 506.43 867C407.334 867 327 947.334 327 1046.43C327 1145.53 407.334 1225.86 506.43 1225.86Z" stroke="#5022D3" stroke-width="8"/>
<mask id="mask3_126_54" style="mask-type:alpha" maskUnits="userSpaceOnUse" x="323" y="863" width="367" height="367">
<path d="M506.43 1203.93C593.415 1203.93 663.93 1133.41 663.93 1046.43C663.93 959.445 593.415 888.93 506.43 888.93C419.445 888.93 348.93 959.445 348.93 1046.43C348.93 1133.41 419.445 1203.93 506.43 1203.93Z" fill="white" stroke="white" stroke-width="51.8599"/>
</mask>
<g mask="url(#mask3_126_54)">
<path d="M551.068 933.708C551.068 950.222 550.35 967.095 548.914 984.327H186.989C191.298 1046.79 207.096 1092.75 234.384 1122.18C261.672 1151.62 296.859 1166.34 339.946 1166.34C367.234 1166.34 392.367 1162.39 415.347 1154.49C438.326 1146.6 462.382 1134.03 487.516 1116.8L530.602 1176.03C470.282 1223.42 404.216 1247.12 332.405 1247.12C253.414 1247.12 191.657 1221.27 147.134 1169.57C103.33 1117.88 81.4277 1046.79 81.4277 956.325C81.4277 897.449 90.7631 845.393 109.434 800.159C128.823 754.207 156.111 718.308 191.298 692.46C227.203 666.612 269.212 653.688 317.325 653.688C392.726 653.688 450.534 678.458 490.748 728C530.961 777.542 551.068 846.112 551.068 933.708ZM453.047 904.629C453.047 848.625 441.916 805.904 419.655 776.466C397.394 747.028 364.002 732.309 319.48 732.309C238.334 732.309 194.17 791.903 186.989 911.091H453.047V904.629Z" fill="#5022D3"/>
<path d="M393.789 988.871L402.238 1000.5M407.94 1008.35L416.389 1019.98M422.092 1027.83L430.54 1039.46M436.243 1047.31L444.692 1058.93M450.395 1066.78L458.843 1078.41M464.546 1086.26L472.995 1097.89M478.697 1105.74L487.146 1117.37M492.849 1125.22L501.297 1136.84M507 1144.69L515.449 1156.32M521.151 1164.17L529.6 1175.8" stroke="#5022D3" stroke-width="3"/>
<path d="M442.361 1054.68C453.67 1046.47 462.872 1035.69 469.211 1023.23C475.55 1010.77 478.845 996.982 478.828 983.002" stroke="#5022D3" stroke-width="3"/>
<path d="M544.592 1050.68H524.382V1060.05C527.019 1058.85 529.743 1058.25 532.552 1058.25C535.763 1058.25 538.629 1059.02 541.152 1060.57C543.732 1062.06 545.767 1064.27 547.258 1067.19C548.749 1070.12 549.494 1073.58 549.494 1077.6C549.494 1081.84 548.491 1085.6 546.484 1088.86C544.477 1092.07 541.611 1094.57 537.884 1096.35C534.157 1098.12 529.829 1099.01 524.898 1099.01C516.241 1099.01 509.332 1095.77 504.172 1089.29L513.546 1080.78C516.413 1084.56 519.939 1086.46 524.124 1086.46C526.704 1086.46 528.682 1085.74 530.058 1084.31C531.434 1082.82 532.122 1080.67 532.122 1077.86C532.122 1074.87 531.52 1072.75 530.316 1071.49C529.169 1070.17 527.507 1069.51 525.328 1069.51C523.436 1069.51 521.372 1070.2 519.136 1071.58H508.042V1038.81H546.398L544.592 1050.68ZM600.633 1073.21V1085.77H594.613V1097.29H577.929L577.843 1085.77H553.333V1074.67L569.415 1037.01L583.949 1042.17L570.791 1073.21H578.015L579.993 1060.48H594.613V1073.21H600.633ZM616.987 1040.71C621.39 1040.71 624.847 1042 627.359 1044.58C629.904 1047.16 631.177 1050.82 631.177 1055.57C631.177 1058.52 630.592 1061.12 629.423 1063.36C628.287 1065.59 626.653 1067.31 624.521 1068.52C622.388 1069.72 619.877 1070.32 616.987 1070.32C612.584 1070.32 609.109 1069.03 606.564 1066.45C604.053 1063.87 602.797 1060.21 602.797 1055.46C602.797 1052.5 603.365 1049.91 604.5 1047.67C605.669 1045.44 607.321 1043.72 609.453 1042.51C611.586 1041.31 614.097 1040.71 616.987 1040.71ZM616.987 1048.03C615.68 1048.03 614.734 1048.62 614.149 1049.79C613.564 1050.96 613.272 1052.85 613.272 1055.46C613.272 1058.18 613.564 1060.12 614.149 1061.29C614.734 1062.43 615.68 1063 616.987 1063C618.294 1063 619.24 1062.41 619.825 1061.24C620.41 1060.07 620.702 1058.18 620.702 1055.57C620.702 1052.85 620.41 1050.92 619.825 1049.79C619.24 1048.62 618.294 1048.03 616.987 1048.03Z" fill="#5022D3"/>
</g>
<path d="M1454.32 982.278L1475 951.696L1491.14 979.662L1454.32 982.278Z" fill="#5022D3"/>
</g>
</g>
<defs>
<linearGradient id="paint0_linear_126_54" x1="886.441" y1="547.134" x2="335.932" y2="151.098" gradientUnits="userSpaceOnUse">
<stop stop-color="white"/>
<stop offset="1" stop-color="white" stop-opacity="0"/>
</linearGradient>
<clipPath id="clip0_126_54">
<rect width="1920" height="1456" fill="white"/>
</clipPath>
</defs>
</svg>
