<svg width="815" height="364" viewBox="0 0 815 364" fill="none" xmlns="http://www.w3.org/2000/svg">
<circle cx="404" cy="182" r="182" fill="white"/>
<path d="M421.5 0.830566C329.195 9.63672 257 87.3875 257 182C257 276.613 329.195 354.363 421.5 363.169C415.74 363.719 409.902 364 404 364C303.484 364 222 282.516 222 182C222 81.4841 303.484 0 404 0C409.902 0 415.74 0.281006 421.5 0.830566Z" fill="#5022D3"/>
<path d="M227.547 214.582C191.944 229.382 171.238 241.872 173.14 248.972C177.247 264.3 285.181 248.697 414.217 214.122C543.253 179.547 644.528 139.092 640.421 123.764C638.518 116.665 614.341 116.201 576.108 121.185C573.06 113.259 569.496 105.649 565.468 98.3855C700.764 70.2279 797.182 61.7074 802.195 80.4169C809.146 106.358 637.748 174.823 419.366 233.338C200.985 291.854 18.3165 318.26 11.3656 292.319C6.35238 273.61 94.1128 232.78 225.362 189.517C225.505 197.822 226.224 206.193 227.547 214.582Z" fill="#5022D3"/>
</svg>
