<svg width="1920" height="1226" viewBox="0 0 1920 1226" fill="none" xmlns="http://www.w3.org/2000/svg">
<g clip-path="url(#clip0_114_142)">
<ellipse cx="953.101" cy="699.277" rx="445.944" ry="445.588" transform="rotate(-11.7395 953.101 699.277)" fill="white"/>
<ellipse cx="953.521" cy="699.554" rx="83.8376" ry="84.1943" transform="rotate(-11.7395 953.521 699.554)" fill="#5022D3"/>
<path d="M1174.89 653.187C1200.39 775.883 1121.74 895.967 999.262 921.42C876.779 946.873 756.803 868.064 731.306 745.368C705.808 622.671 784.453 502.588 906.936 477.135C1029.42 451.682 1149.39 530.49 1174.89 653.187Z" stroke="#5022D3" stroke-width="15"/>
<path d="M1275.56 632.63C1312.48 810.288 1198.24 984.282 1020.37 1021.24C842.506 1058.21 668.4 944.133 631.481 766.475C594.562 588.817 708.806 414.823 886.671 377.861C1064.54 340.899 1238.64 454.972 1275.56 632.63Z" stroke="#5022D3" stroke-width="15"/>
<path d="M1248.11 638.336C1281.88 800.839 1177.37 959.987 1014.67 993.797C851.966 1027.61 692.699 923.277 658.929 760.773C625.16 598.27 729.674 439.123 892.375 405.312C1055.08 371.502 1214.34 475.832 1248.11 638.336Z" stroke="#5022D3" stroke-width="4"/>
<path d="M1365.55 614.295C1412.75 841.424 1266.73 1063.85 1039.4 1111.09C812.08 1158.33 589.537 1012.49 542.337 785.365C495.138 558.236 641.155 335.814 868.48 288.574C1095.8 241.334 1318.35 387.166 1365.55 614.295Z" stroke="#5022D3" stroke-width="4"/>
<mask id="mask0_114_142" style="mask-type:alpha" maskUnits="userSpaceOnUse" x="-6" y="-25" width="2628" height="1250">
<path fill-rule="evenodd" clip-rule="evenodd" d="M2621.62 -24.7261L2621.62 1224.27L-5.19196 1224.28L-5.19189 -24.723L2621.62 -24.7261ZM1044.06 1135.54C1211.36 1100.78 1337.14 976.555 1381.77 823.275C1401.46 755.627 1405.34 682.319 1390.01 608.542C1339.94 367.599 1103.87 212.897 862.735 263.008C652.917 306.61 508.397 490.909 507.38 696.775C507.228 727.504 510.274 758.714 516.777 790.008C566.847 1030.95 802.918 1185.65 1044.06 1135.54Z" fill="#D9D9D9"/>
<path d="M516.777 790.008C566.847 1030.95 802.918 1185.65 1044.06 1135.54C1211.36 1100.78 1337.14 976.555 1381.77 823.275L507.38 696.775C507.228 727.504 510.274 758.714 516.777 790.008Z" fill="#D9D9D9"/>
</mask>
<g mask="url(#mask0_114_142)">
<path d="M1896.99 873.215C1873.52 1000.86 1432.22 1026.7 911.308 930.935C390.398 835.166 -12.8592 654.05 10.6089 526.403C34.0769 398.755 475.383 372.913 996.294 468.683C1517.2 564.452 1920.46 745.568 1896.99 873.215ZM178.115 526.403C158.836 631.268 483.37 763.589 911.308 842.266C1339.25 920.942 1708.84 916.641 1728.12 811.776C1747.39 706.911 1424.23 569.953 996.294 491.276C568.356 412.6 197.395 421.538 178.115 526.403Z" fill="white"/>
<path d="M1896.99 873.215C1873.52 1000.86 1432.22 1026.7 911.308 930.935C390.398 835.166 -12.8592 654.05 10.6089 526.403C34.0769 398.755 475.383 372.913 996.294 468.683C1517.2 564.452 1920.46 745.568 1896.99 873.215ZM178.115 526.403C158.836 631.268 483.37 763.589 911.308 842.266C1339.25 920.942 1708.84 916.641 1728.12 811.776C1747.39 706.911 1424.23 569.953 996.294 491.276C568.356 412.6 197.395 421.538 178.115 526.403Z" fill="url(#paint0_linear_114_142)"/>
</g>
<line x1="1365" y1="838" x2="1453" y2="838" stroke="white" stroke-width="2"/>
<line x1="486.704" y1="277.289" x2="616.975" y2="406.289" stroke="white" stroke-width="2"/>
<line x1="101" y1="278" x2="488" y2="278" stroke="white" stroke-width="2"/>
<line x1="1454" y1="224" x2="1454" y2="839" stroke="white" stroke-width="2"/>
<line x1="102" y1="278" x2="102" y2="1070" stroke="white" stroke-width="2"/>
<path d="M516.609 -10.2976C516.609 -10.2976 217.97 176.391 212.06 179.803C206.149 183.216 198.591 181.191 195.179 175.28C191.766 169.37 193.791 161.812 199.702 158.399C205.613 154.987 516.609 -10.2976 516.609 -10.2976Z" fill="url(#paint1_linear_114_142)"/>
<path d="M668.109 246.786C668.109 246.786 506.662 347.712 503.466 349.557C500.271 351.402 496.185 350.307 494.34 347.112C492.496 343.916 493.59 339.831 496.786 337.986C499.981 336.141 668.109 246.786 668.109 246.786Z" fill="url(#paint2_linear_114_142)"/>
<path d="M387.632 194.613C387.632 194.613 147.313 344.844 142.556 347.59C137.8 350.336 131.718 348.706 128.972 343.95C126.226 339.194 127.856 333.112 132.612 330.366C137.368 327.62 387.632 194.613 387.632 194.613Z" fill="url(#paint3_linear_114_142)"/>
<circle cx="205.881" cy="169.101" r="12.3576" transform="rotate(-30 205.881 169.101)" fill="white"/>
<circle cx="500.126" cy="343.771" r="6.68069" transform="rotate(-30 500.126 343.771)" fill="white"/>
<circle cx="137.584" cy="338.978" r="9.94438" transform="rotate(-30 137.584 338.978)" fill="white"/>
</g>
<defs>
<linearGradient id="paint0_linear_114_142" x1="706.307" y1="307.239" x2="717.307" y2="959.739" gradientUnits="userSpaceOnUse">
<stop stop-color="#5022D3"/>
<stop offset="1" stop-color="#5022D3" stop-opacity="0"/>
</linearGradient>
<linearGradient id="paint1_linear_114_142" x1="195.179" y1="175.28" x2="439.296" y2="34.339" gradientUnits="userSpaceOnUse">
<stop stop-color="white"/>
<stop offset="1" stop-color="white" stop-opacity="0"/>
</linearGradient>
<linearGradient id="paint2_linear_114_142" x1="494.34" y1="347.112" x2="626.313" y2="270.917" gradientUnits="userSpaceOnUse">
<stop stop-color="white"/>
<stop offset="1" stop-color="white" stop-opacity="0"/>
</linearGradient>
<linearGradient id="paint3_linear_114_142" x1="128.972" y1="343.95" x2="325.417" y2="230.533" gradientUnits="userSpaceOnUse">
<stop stop-color="white"/>
<stop offset="1" stop-color="white" stop-opacity="0"/>
</linearGradient>
<clipPath id="clip0_114_142">
<rect width="1920" height="1226" fill="white"/>
</clipPath>
</defs>
</svg>
