<svg width="1920" height="1636" viewBox="0 0 1920 1636" fill="none" xmlns="http://www.w3.org/2000/svg">
<g clip-path="url(#clip0_102_34)">
<path d="M2120 32.2281L2120 -1226L-201 -1226L-201 32.228L-172 32.2282C-172 32.2282 19.4586 32.2283 223.495 187.245C736.167 576.748 943 1555 943 1555L957.5 1555C957.5 1555 1162.83 576.748 1675.51 187.245C1879.54 32.2284 2071 32.2284 2071 32.2284L2120 32.2281Z" fill="white"/>
<path d="M952.989 1633.51C952.334 1636.84 947.324 1636.83 946.677 1633.49C943.958 1619.5 939.112 1602.52 930.821 1593.88C928.327 1591.29 925.264 1588.94 922.193 1586.92C920.269 1585.65 920.803 1579.25 922.861 1579.25L934.462 1579.25C935.297 1579.25 935.974 1578.08 935.974 1576.63C935.974 1575.18 936.651 1574 937.486 1574L941.958 1574C942.793 1574 943.47 1575.18 943.47 1576.63C943.47 1578.08 944.148 1579.25 944.983 1579.25L955.221 1579.25C956.056 1579.25 956.733 1578.08 956.733 1576.63C956.733 1575.18 957.41 1574 958.246 1574L962.717 1574C963.553 1574 964.23 1575.18 964.23 1576.63C964.23 1578.08 964.907 1579.25 965.742 1579.25L977.14 1579.25C979.202 1579.25 979.731 1585.67 977.8 1586.92C974.691 1588.94 971.591 1591.29 969.066 1593.88C960.657 1602.52 955.744 1619.51 952.989 1633.51Z" fill="white"/>
</g>
<defs>
<clipPath id="clip0_102_34">
<rect width="1920" height="1636" fill="white"/>
</clipPath>
</defs>
</svg>
