<svg width="1920" height="7792" viewBox="0 0 1920 7792" fill="none" xmlns="http://www.w3.org/2000/svg">
<g clip-path="url(#clip0_126_1344)">
<mask id="mask0_126_1344" style="mask-type:luminance" maskUnits="userSpaceOnUse" x="0" y="0" width="1920" height="10402">
<path d="M1920 0H0V10402H1920V0Z" fill="white"/>
</mask>
<g mask="url(#mask0_126_1344)">
<path d="M756 214C758.209 214 760 212.209 760 210C760 207.791 758.209 206 756 206C753.791 206 752 207.791 752 210C752 212.209 753.791 214 756 214Z" fill="white"/>
<path d="M883 866C883 863.791 881.209 862 879 862C876.791 862 875 863.791 875 866C875 868.209 876.791 870 879 870C881.209 870 883 868.209 883 866Z" fill="white"/>
<path d="M337 389.001C337 386.792 335.209 385.001 333 385.001C330.791 385.001 329 386.792 329 389.001C329 391.21 330.791 393.001 333 393.001C335.209 393.001 337 391.21 337 389.001Z" fill="white"/>
<path d="M1735 1912C1735 1909.79 1733.21 1908 1731 1908C1728.79 1908 1727 1909.79 1727 1912C1727 1914.21 1728.79 1916 1731 1916C1733.21 1916 1735 1914.21 1735 1912Z" fill="white"/>
<path d="M871 1043C871 1040.79 869.209 1039 867 1039C864.791 1039 863 1040.79 863 1043C863 1045.21 864.791 1047 867 1047C869.209 1047 871 1045.21 871 1043Z" fill="white"/>
<path d="M361 999C361 996.791 359.209 995 357 995C354.791 995 353 996.791 353 999C353 1001.21 354.791 1003 357 1003C359.209 1003 361 1001.21 361 999Z" fill="white"/>
<path d="M349 126C349 123.791 347.209 122 345 122C342.791 122 341 123.791 341 126C341 128.209 342.791 130 345 130C347.209 130 349 128.209 349 126Z" fill="white"/>
<path d="M949 130C949 127.791 947.209 126 945 126C942.791 126 941 127.791 941 130C941 132.209 942.791 134 945 134C947.209 134 949 132.209 949 130Z" fill="white"/>
<path d="M949 351C949 348.791 947.209 347 945 347C942.791 347 941 348.791 941 351C941 353.209 942.791 355 945 355C947.209 355 949 353.209 949 351Z" fill="white"/>
<path d="M1580 112C1580 109.791 1578.21 108 1576 108C1573.79 108 1572 109.791 1572 112C1572 114.209 1573.79 116 1576 116C1578.21 116 1580 114.209 1580 112Z" fill="white"/>
<path d="M884.034 1786.22C884.606 1788.35 886.8 1789.62 888.933 1789.04C891.067 1788.47 892.334 1786.28 891.762 1784.14C891.19 1782.01 888.997 1780.74 886.863 1781.32C884.729 1781.89 883.463 1784.08 884.034 1786.22Z" fill="white"/>
<path d="M215.034 1986.94C215.606 1989.07 217.8 1990.34 219.933 1989.76C222.067 1989.19 223.334 1987 222.762 1984.86C222.19 1982.73 219.997 1981.46 217.863 1982.04C215.729 1982.61 214.463 1984.8 215.034 1986.94Z" fill="white"/>
<path d="M720.034 2070.94C720.606 2073.07 722.8 2074.34 724.933 2073.76C727.067 2073.19 728.334 2071 727.762 2068.86C727.19 2066.73 724.997 2065.46 722.863 2066.04C720.729 2066.61 719.463 2068.8 720.034 2070.94Z" fill="white"/>
<path d="M328.034 2225.94C328.606 2228.07 330.8 2229.34 332.933 2228.76C335.067 2228.19 336.334 2226 335.762 2223.86C335.19 2221.73 332.997 2220.46 330.863 2221.04C328.729 2221.61 327.463 2223.8 328.034 2225.94Z" fill="white"/>
<path d="M152.034 1695.94C152.606 1698.07 154.8 1699.34 156.933 1698.76C159.067 1698.19 160.334 1696 159.762 1693.86C159.19 1691.73 156.997 1690.46 154.863 1691.04C152.729 1691.61 151.463 1693.8 152.034 1695.94Z" fill="white"/>
<path d="M399.034 1333.94C399.606 1336.07 401.8 1337.34 403.933 1336.76C406.067 1336.19 407.334 1334 406.762 1331.86C406.19 1329.73 403.997 1328.46 401.863 1329.04C399.729 1329.61 398.463 1331.8 399.034 1333.94Z" fill="white"/>
<path d="M144.034 1374.94C144.606 1377.07 146.8 1378.34 148.933 1377.76C151.067 1377.19 152.334 1375 151.762 1372.86C151.19 1370.73 148.997 1369.46 146.863 1370.04C144.729 1370.61 143.463 1372.8 144.034 1374.94Z" fill="white"/>
<path d="M173.034 1125.94C173.606 1128.07 175.8 1129.34 177.933 1128.76C180.067 1128.19 181.334 1126 180.762 1123.86C180.19 1121.73 177.997 1120.46 175.863 1121.04C173.729 1121.61 172.463 1123.8 173.034 1125.94Z" fill="white"/>
<path d="M1739 2083C1741.21 2083 1743 2081.21 1743 2079C1743 2076.79 1741.21 2075 1739 2075C1736.79 2075 1735 2076.79 1735 2079C1735 2081.21 1736.79 2083 1739 2083Z" fill="white"/>
<path d="M1363 656C1365.21 656 1367 654.209 1367 652C1367 649.791 1365.21 648 1363 648C1360.79 648 1359 649.791 1359 652C1359 654.209 1360.79 656 1363 656Z" fill="white"/>
<path d="M1363 1142C1365.21 1142 1367 1140.21 1367 1138C1367 1135.79 1365.21 1134 1363 1134C1360.79 1134 1359 1135.79 1359 1138C1359 1140.21 1360.79 1142 1363 1142Z" fill="white"/>
<path d="M1557 1369C1559.21 1369 1561 1367.21 1561 1365C1561 1362.79 1559.21 1361 1557 1361C1554.79 1361 1553 1362.79 1553 1365C1553 1367.21 1554.79 1369 1557 1369Z" fill="white"/>
<path d="M1783 1395C1785.21 1395 1787 1393.21 1787 1391C1787 1388.79 1785.21 1387 1783 1387C1780.79 1387 1779 1388.79 1779 1391C1779 1393.21 1780.79 1395 1783 1395Z" fill="white"/>
<path d="M1728 858C1730.21 858 1732 856.209 1732 854C1732 851.791 1730.21 850 1728 850C1725.79 850 1724 851.791 1724 854C1724 856.209 1725.79 858 1728 858Z" fill="white"/>
<path d="M1775 765C1777.21 765 1779 763.209 1779 761C1779 758.791 1777.21 757 1775 757C1772.79 757 1771 758.791 1771 761C1771 763.209 1772.79 765 1775 765Z" fill="white"/>
<path d="M808 1282C810.209 1282 812 1280.21 812 1278C812 1275.79 810.209 1274 808 1274C805.791 1274 804 1275.79 804 1278C804 1280.21 805.791 1282 808 1282Z" fill="white"/>
<path d="M1200 1305C1202.21 1305 1204 1303.21 1204 1301C1204 1298.79 1202.21 1297 1200 1297C1197.79 1297 1196 1298.79 1196 1301C1196 1303.21 1197.79 1305 1200 1305Z" fill="white"/>
<path d="M1580 899C1582.21 899 1584 897.209 1584 895C1584 892.791 1582.21 891 1580 891C1577.79 891 1576 892.791 1576 895C1576 897.209 1577.79 899 1580 899Z" fill="white"/>
<path d="M1155 513C1157.21 513 1159 511.209 1159 509C1159 506.791 1157.21 505 1155 505C1152.79 505 1151 506.791 1151 509C1151 511.209 1152.79 513 1155 513Z" fill="white"/>
<path d="M1691 616C1693.21 616 1695 614.209 1695 612C1695 609.791 1693.21 608 1691 608C1688.79 608 1687 609.791 1687 612C1687 614.209 1688.79 616 1691 616Z" fill="white"/>
<path d="M1371 401C1373.21 401 1375 399.209 1375 397C1375 394.791 1373.21 393 1371 393C1368.79 393 1367 394.791 1367 397C1367 399.209 1368.79 401 1371 401Z" fill="white"/>
<path d="M1192 255C1194.21 255 1196 253.209 1196 251C1196 248.791 1194.21 247 1192 247C1189.79 247 1188 248.791 1188 251C1188 253.209 1189.79 255 1192 255Z" fill="white"/>
<path d="M1331 891C1333.21 891 1335 889.209 1335 887C1335 884.791 1333.21 883 1331 883C1328.79 883 1327 884.791 1327 887C1327 889.209 1328.79 891 1331 891Z" fill="white"/>
<path d="M228 624C230.209 624 232 622.209 232 620C232 617.791 230.209 616 228 616C225.791 616 224 617.791 224 620C224 622.209 225.791 624 228 624Z" fill="white"/>
<path d="M216 8C218.209 8 220 6.20914 220 4C220 1.79086 218.209 0 216 0C213.791 0 212 1.79086 212 4C212 6.20914 213.791 8 216 8Z" fill="white"/>
<path d="M816 12C818.209 12 820 10.2091 820 8C820 5.79086 818.209 4 816 4C813.791 4 812 5.79086 812 8C812 10.2091 813.791 12 816 12Z" fill="white"/>
<path d="M1868 1985C1870.21 1985 1872 1983.21 1872 1981C1872 1978.79 1870.21 1977 1868 1977C1865.79 1977 1864 1978.79 1864 1981C1864 1983.21 1865.79 1985 1868 1985Z" fill="white"/>
<path d="M867 570C869.209 570 871 568.209 871 566C871 563.791 869.209 562 867 562C864.791 562 863 563.791 863 566C863 568.209 864.791 570 867 570Z" fill="white"/>
<path d="M566 521C568.209 521 570 519.209 570 517C570 514.791 568.209 513 566 513C563.791 513 562 514.791 562 517C562 519.209 563.791 521 566 521Z" fill="white"/>
<path d="M1042 761C1044.21 761 1046 759.209 1046 757C1046 754.791 1044.21 753 1042 753C1039.79 753 1038 754.791 1038 757C1038 759.209 1039.79 761 1042 761Z" fill="white"/>
<path d="M417 774C419.209 774 421 772.209 421 770C421 767.791 419.209 766 417 766C414.791 766 413 767.791 413 770C413 772.209 414.791 774 417 774Z" fill="white"/>
<path d="M495 303C497.209 303 499 301.209 499 299C499 296.791 497.209 295 495 295C492.791 295 491 296.791 491 299C491 301.209 492.791 303 495 303Z" fill="white"/>
<path d="M1695 347C1697.21 347 1699 345.209 1699 343C1699 340.791 1697.21 339 1695 339C1692.79 339 1691 340.791 1691 343C1691 345.209 1692.79 347 1695 347Z" fill="white"/>
<path d="M678 807C678 804.791 676.209 803 674 803C671.791 803 670 804.791 670 807C670 809.209 671.791 811 674 811C676.209 811 678 809.209 678 807Z" fill="white"/>
<path d="M172 862C172 859.791 170.209 858 168 858C165.791 858 164 859.791 164 862C164 864.209 165.791 866 168 866C170.209 866 172 864.209 172 862Z" fill="white"/>
<path d="M147 445C147 442.791 145.209 441 143 441C140.791 441 139 442.791 139 445C139 447.209 140.791 449 143 449C145.209 449 147 447.209 147 445Z" fill="white"/>
<path d="M1072.23 1754.44C1072.8 1756.57 1074.99 1757.84 1077.12 1757.26C1079.26 1756.69 1080.53 1754.5 1079.95 1752.36C1079.38 1750.23 1077.19 1748.96 1075.05 1749.54C1072.92 1750.11 1071.65 1752.3 1072.23 1754.44Z" fill="white"/>
<path d="M1405 1835C1407.21 1835 1409 1833.21 1409 1831C1409 1828.79 1407.21 1827 1405 1827C1402.79 1827 1401 1828.79 1401 1831C1401 1833.21 1402.79 1835 1405 1835Z" fill="white"/>
<path d="M1602 1858C1604.21 1858 1606 1856.21 1606 1854C1606 1851.79 1604.21 1850 1602 1850C1599.79 1850 1598 1851.79 1598 1854C1598 1856.21 1599.79 1858 1602 1858Z" fill="white"/>
<path d="M1336.39 1538.71C1336.96 1540.84 1339.15 1542.11 1341.28 1541.53C1343.42 1540.96 1344.69 1538.77 1344.11 1536.63C1343.54 1534.5 1341.35 1533.23 1339.21 1533.81C1337.08 1534.38 1335.81 1536.57 1336.39 1538.71Z" fill="white"/>
<path d="M482.034 1880.94C482.606 1883.07 484.8 1884.34 486.933 1883.76C489.067 1883.19 490.334 1881 489.762 1878.86C489.19 1876.73 486.997 1875.46 484.863 1876.04C482.729 1876.61 481.463 1878.8 482.034 1880.94Z" fill="white"/>
<path d="M1698.03 1125.94C1698.61 1128.07 1700.8 1129.34 1702.93 1128.76C1705.07 1128.19 1706.33 1126 1705.76 1123.86C1705.19 1121.73 1703 1120.46 1700.86 1121.04C1698.73 1121.61 1697.46 1123.8 1698.03 1125.94Z" fill="white"/>
<path d="M1565 2004C1567.21 2004 1569 2002.21 1569 2000C1569 1997.79 1567.21 1996 1565 1996C1562.79 1996 1561 1997.79 1561 2000C1561 2002.21 1562.79 2004 1565 2004Z" fill="white"/>
<path d="M1097 2267C1099.21 2267 1101 2265.21 1101 2263C1101 2260.79 1099.21 2259 1097 2259C1094.79 2259 1093 2260.79 1093 2263C1093 2265.21 1094.79 2267 1097 2267Z" fill="white"/>
<path d="M1197.44 1584.23C1198.01 1586.36 1200.2 1587.63 1202.34 1587.05C1204.47 1586.48 1205.74 1584.29 1205.16 1582.15C1204.59 1580.02 1202.4 1578.75 1200.27 1579.33C1198.13 1579.9 1196.87 1582.09 1197.44 1584.23Z" fill="white"/>
<path d="M1767 1644C1769.21 1644 1771 1642.21 1771 1640C1771 1637.79 1769.21 1636 1767 1636C1764.79 1636 1763 1637.79 1763 1640C1763 1642.21 1764.79 1644 1767 1644Z" fill="white"/>
<path d="M1876 1728C1878.21 1728 1880 1726.21 1880 1724C1880 1721.79 1878.21 1720 1876 1720C1873.79 1720 1872 1721.79 1872 1724C1872 1726.21 1873.79 1728 1876 1728Z" fill="white"/>
<path d="M1447 2146C1449.21 2146 1451 2144.21 1451 2142C1451 2139.79 1449.21 2138 1447 2138C1444.79 2138 1443 2139.79 1443 2142C1443 2144.21 1444.79 2146 1447 2146Z" fill="white"/>
<path d="M1105 951C1107.21 951 1109 949.209 1109 947C1109 944.791 1107.21 943 1105 943C1102.79 943 1101 944.791 1101 947C1101 949.209 1102.79 951 1105 951Z" fill="white"/>
<path d="M409 574C411.209 574 413 572.209 413 570C413 567.791 411.209 566 409 566C406.791 566 405 567.791 405 570C405 572.209 406.791 574 409 574Z" fill="white"/>
<path d="M1097 693C1099.21 693 1101 691.209 1101 689C1101 686.791 1099.21 685 1097 685C1094.79 685 1093 686.791 1093 689C1093 691.209 1094.79 693 1097 693Z" fill="white"/>
<path d="M628 991C630.209 991 632 989.209 632 987C632 984.791 630.209 983 628 983C625.791 983 624 984.791 624 987C624 989.209 625.791 991 628 991Z" fill="white"/>
<path d="M593 1187C595.209 1187 597 1185.21 597 1183C597 1180.79 595.209 1179 593 1179C590.791 1179 589 1180.79 589 1183C589 1185.21 590.791 1187 593 1187Z" fill="white"/>
<path d="M601 1387C603.209 1387 605 1385.21 605 1383C605 1380.79 603.209 1379 601 1379C598.791 1379 597 1380.79 597 1383C597 1385.21 598.791 1387 601 1387Z" fill="white"/>
<path d="M524 75C526.209 75 528 73.2091 528 71C528 68.7909 526.209 67 524 67C521.791 67 520 68.7909 520 71C520 73.2091 521.791 75 524 75Z" fill="white"/>
<path d="M1155 57C1157.21 57 1159 55.2091 1159 53C1159 50.7909 1157.21 49 1155 49C1152.79 49 1151 50.7909 1151 53C1151 55.2091 1152.79 57 1155 57Z" fill="white"/>
<path d="M1724 45C1726.21 45 1728 43.2091 1728 41C1728 38.7909 1726.21 37 1724 37C1721.79 37 1720 38.7909 1720 41C1720 43.2091 1721.79 45 1724 45Z" fill="white"/>
<path d="M1219 1889C1221.21 1889 1223 1887.21 1223 1885C1223 1882.79 1221.21 1881 1219 1881C1216.79 1881 1215 1882.79 1215 1885C1215 1887.21 1216.79 1889 1219 1889Z" fill="white"/>
<path d="M1025 2027C1027.21 2027 1029 2025.21 1029 2023C1029 2020.79 1027.21 2019 1025 2019C1022.79 2019 1021 2020.79 1021 2023C1021 2025.21 1022.79 2027 1025 2027Z" fill="white"/>
<path d="M1029.73 1507C1030.3 1509.13 1032.49 1510.4 1034.62 1509.82C1036.76 1509.25 1038.03 1507.06 1037.45 1504.92C1036.88 1502.79 1034.69 1501.52 1032.55 1502.1C1030.42 1502.67 1029.15 1504.86 1029.73 1507Z" fill="white"/>
<path d="M1039.03 1123.94C1039.61 1126.07 1041.8 1127.34 1043.93 1126.76C1046.07 1126.19 1047.33 1124 1046.76 1121.86C1046.19 1119.73 1044 1118.46 1041.86 1119.04C1039.73 1119.61 1038.46 1121.8 1039.03 1123.94Z" fill="white"/>
<path d="M633.034 1614.94C633.606 1617.07 635.8 1618.34 637.933 1617.76C640.067 1617.19 641.334 1615 640.762 1612.86C640.19 1610.73 637.997 1609.46 635.863 1610.04C633.729 1610.61 632.463 1612.8 633.034 1614.94Z" fill="white"/>
<path d="M362.034 1548.94C362.606 1551.07 364.8 1552.34 366.933 1551.76C369.067 1551.19 370.334 1549 369.762 1546.86C369.19 1544.73 366.997 1543.46 364.863 1544.04C362.729 1544.61 361.463 1546.8 362.034 1548.94Z" fill="white"/>
<path d="M756 4742C758.209 4742 760 4740.21 760 4738C760 4735.79 758.209 4734 756 4734C753.791 4734 752 4735.79 752 4738C752 4740.21 753.791 4742 756 4742Z" fill="white"/>
<path d="M883 5394C883 5391.79 881.209 5390 879 5390C876.791 5390 875 5391.79 875 5394C875 5396.21 876.791 5398 879 5398C881.209 5398 883 5396.21 883 5394Z" fill="white"/>
<path d="M337 4917C337 4914.79 335.209 4913 333 4913C330.791 4913 329 4914.79 329 4917C329 4919.21 330.791 4921 333 4921C335.209 4921 337 4919.21 337 4917Z" fill="white"/>
<path d="M1735 6440C1735 6437.79 1733.21 6436 1731 6436C1728.79 6436 1727 6437.79 1727 6440C1727 6442.21 1728.79 6444 1731 6444C1733.21 6444 1735 6442.21 1735 6440Z" fill="white"/>
<path d="M871 5571C871 5568.79 869.209 5567 867 5567C864.791 5567 863 5568.79 863 5571C863 5573.21 864.791 5575 867 5575C869.209 5575 871 5573.21 871 5571Z" fill="white"/>
<path d="M361 5527C361 5524.79 359.209 5523 357 5523C354.791 5523 353 5524.79 353 5527C353 5529.21 354.791 5531 357 5531C359.209 5531 361 5529.21 361 5527Z" fill="white"/>
<path d="M349 4654C349 4651.79 347.209 4650 345 4650C342.791 4650 341 4651.79 341 4654C341 4656.21 342.791 4658 345 4658C347.209 4658 349 4656.21 349 4654Z" fill="white"/>
<path d="M949 4658C949 4655.79 947.209 4654 945 4654C942.791 4654 941 4655.79 941 4658C941 4660.21 942.791 4662 945 4662C947.209 4662 949 4660.21 949 4658Z" fill="white"/>
<path d="M949 4879C949 4876.79 947.209 4875 945 4875C942.791 4875 941 4876.79 941 4879C941 4881.21 942.791 4883 945 4883C947.209 4883 949 4881.21 949 4879Z" fill="white"/>
<path d="M1580 4640C1580 4637.79 1578.21 4636 1576 4636C1573.79 4636 1572 4637.79 1572 4640C1572 4642.21 1573.79 4644 1576 4644C1578.21 4644 1580 4642.21 1580 4640Z" fill="white"/>
<path d="M884.034 6314.22C884.606 6316.35 886.8 6317.62 888.933 6317.04C891.067 6316.47 892.334 6314.28 891.762 6312.14C891.19 6310.01 888.997 6308.74 886.863 6309.32C884.729 6309.89 883.463 6312.08 884.034 6314.22Z" fill="white"/>
<path d="M215.034 6514.94C215.606 6517.07 217.8 6518.34 219.933 6517.76C222.067 6517.19 223.334 6515 222.762 6512.86C222.19 6510.73 219.997 6509.46 217.863 6510.04C215.729 6510.61 214.463 6512.8 215.034 6514.94Z" fill="white"/>
<path d="M720.034 6598.94C720.606 6601.07 722.8 6602.34 724.933 6601.76C727.067 6601.19 728.334 6599 727.762 6596.86C727.19 6594.73 724.997 6593.46 722.863 6594.04C720.729 6594.61 719.463 6596.8 720.034 6598.94Z" fill="white"/>
<path d="M328.034 6753.94C328.606 6756.07 330.8 6757.34 332.933 6756.76C335.067 6756.19 336.334 6754 335.762 6751.86C335.19 6749.73 332.997 6748.46 330.863 6749.04C328.729 6749.61 327.463 6751.8 328.034 6753.94Z" fill="white"/>
<path d="M152.034 6223.94C152.606 6226.07 154.8 6227.34 156.933 6226.76C159.067 6226.19 160.334 6224 159.762 6221.86C159.19 6219.73 156.997 6218.46 154.863 6219.04C152.729 6219.61 151.463 6221.8 152.034 6223.94Z" fill="white"/>
<path d="M399.034 5861.94C399.606 5864.07 401.8 5865.34 403.933 5864.76C406.067 5864.19 407.334 5862 406.762 5859.86C406.19 5857.73 403.997 5856.46 401.863 5857.04C399.729 5857.61 398.463 5859.8 399.034 5861.94Z" fill="white"/>
<path d="M144.034 5902.94C144.606 5905.07 146.8 5906.34 148.933 5905.76C151.067 5905.19 152.334 5903 151.762 5900.86C151.19 5898.73 148.997 5897.46 146.863 5898.04C144.729 5898.61 143.463 5900.8 144.034 5902.94Z" fill="white"/>
<path d="M173.034 5653.94C173.606 5656.07 175.8 5657.34 177.933 5656.76C180.067 5656.19 181.334 5654 180.762 5651.86C180.19 5649.73 177.997 5648.46 175.863 5649.04C173.729 5649.61 172.463 5651.8 173.034 5653.94Z" fill="white"/>
<path d="M1739 6611C1741.21 6611 1743 6609.21 1743 6607C1743 6604.79 1741.21 6603 1739 6603C1736.79 6603 1735 6604.79 1735 6607C1735 6609.21 1736.79 6611 1739 6611Z" fill="white"/>
<path d="M1363 5184C1365.21 5184 1367 5182.21 1367 5180C1367 5177.79 1365.21 5176 1363 5176C1360.79 5176 1359 5177.79 1359 5180C1359 5182.21 1360.79 5184 1363 5184Z" fill="white"/>
<path d="M1363 5670C1365.21 5670 1367 5668.21 1367 5666C1367 5663.79 1365.21 5662 1363 5662C1360.79 5662 1359 5663.79 1359 5666C1359 5668.21 1360.79 5670 1363 5670Z" fill="white"/>
<path d="M1557 5897C1559.21 5897 1561 5895.21 1561 5893C1561 5890.79 1559.21 5889 1557 5889C1554.79 5889 1553 5890.79 1553 5893C1553 5895.21 1554.79 5897 1557 5897Z" fill="white"/>
<path d="M1783 5923C1785.21 5923 1787 5921.21 1787 5919C1787 5916.79 1785.21 5915 1783 5915C1780.79 5915 1779 5916.79 1779 5919C1779 5921.21 1780.79 5923 1783 5923Z" fill="white"/>
<path d="M1728 5386C1730.21 5386 1732 5384.21 1732 5382C1732 5379.79 1730.21 5378 1728 5378C1725.79 5378 1724 5379.79 1724 5382C1724 5384.21 1725.79 5386 1728 5386Z" fill="white"/>
<path d="M1775 5293C1777.21 5293 1779 5291.21 1779 5289C1779 5286.79 1777.21 5285 1775 5285C1772.79 5285 1771 5286.79 1771 5289C1771 5291.21 1772.79 5293 1775 5293Z" fill="white"/>
<path d="M808 5810C810.209 5810 812 5808.21 812 5806C812 5803.79 810.209 5802 808 5802C805.791 5802 804 5803.79 804 5806C804 5808.21 805.791 5810 808 5810Z" fill="white"/>
<path d="M1200 5833C1202.21 5833 1204 5831.21 1204 5829C1204 5826.79 1202.21 5825 1200 5825C1197.79 5825 1196 5826.79 1196 5829C1196 5831.21 1197.79 5833 1200 5833Z" fill="white"/>
<path d="M1580 5427C1582.21 5427 1584 5425.21 1584 5423C1584 5420.79 1582.21 5419 1580 5419C1577.79 5419 1576 5420.79 1576 5423C1576 5425.21 1577.79 5427 1580 5427Z" fill="white"/>
<path d="M1155 5041C1157.21 5041 1159 5039.21 1159 5037C1159 5034.79 1157.21 5033 1155 5033C1152.79 5033 1151 5034.79 1151 5037C1151 5039.21 1152.79 5041 1155 5041Z" fill="white"/>
<path d="M1691 5144C1693.21 5144 1695 5142.21 1695 5140C1695 5137.79 1693.21 5136 1691 5136C1688.79 5136 1687 5137.79 1687 5140C1687 5142.21 1688.79 5144 1691 5144Z" fill="white"/>
<path d="M1371 4929C1373.21 4929 1375 4927.21 1375 4925C1375 4922.79 1373.21 4921 1371 4921C1368.79 4921 1367 4922.79 1367 4925C1367 4927.21 1368.79 4929 1371 4929Z" fill="white"/>
<path d="M1192 4783C1194.21 4783 1196 4781.21 1196 4779C1196 4776.79 1194.21 4775 1192 4775C1189.79 4775 1188 4776.79 1188 4779C1188 4781.21 1189.79 4783 1192 4783Z" fill="white"/>
<path d="M1331 5419C1333.21 5419 1335 5417.21 1335 5415C1335 5412.79 1333.21 5411 1331 5411C1328.79 5411 1327 5412.79 1327 5415C1327 5417.21 1328.79 5419 1331 5419Z" fill="white"/>
<path d="M228 5152C230.209 5152 232 5150.21 232 5148C232 5145.79 230.209 5144 228 5144C225.791 5144 224 5145.79 224 5148C224 5150.21 225.791 5152 228 5152Z" fill="white"/>
<path d="M216 4536C218.209 4536 220 4534.21 220 4532C220 4529.79 218.209 4528 216 4528C213.791 4528 212 4529.79 212 4532C212 4534.21 213.791 4536 216 4536Z" fill="white"/>
<path d="M816 4540C818.209 4540 820 4538.21 820 4536C820 4533.79 818.209 4532 816 4532C813.791 4532 812 4533.79 812 4536C812 4538.21 813.791 4540 816 4540Z" fill="white"/>
<path d="M1868 6513C1870.21 6513 1872 6511.21 1872 6509C1872 6506.79 1870.21 6505 1868 6505C1865.79 6505 1864 6506.79 1864 6509C1864 6511.21 1865.79 6513 1868 6513Z" fill="white"/>
<path d="M867 5098C869.209 5098 871 5096.21 871 5094C871 5091.79 869.209 5090 867 5090C864.791 5090 863 5091.79 863 5094C863 5096.21 864.791 5098 867 5098Z" fill="white"/>
<path d="M566 5049C568.209 5049 570 5047.21 570 5045C570 5042.79 568.209 5041 566 5041C563.791 5041 562 5042.79 562 5045C562 5047.21 563.791 5049 566 5049Z" fill="white"/>
<path d="M1042 5289C1044.21 5289 1046 5287.21 1046 5285C1046 5282.79 1044.21 5281 1042 5281C1039.79 5281 1038 5282.79 1038 5285C1038 5287.21 1039.79 5289 1042 5289Z" fill="white"/>
<path d="M417 5302C419.209 5302 421 5300.21 421 5298C421 5295.79 419.209 5294 417 5294C414.791 5294 413 5295.79 413 5298C413 5300.21 414.791 5302 417 5302Z" fill="white"/>
<path d="M495 4831C497.209 4831 499 4829.21 499 4827C499 4824.79 497.209 4823 495 4823C492.791 4823 491 4824.79 491 4827C491 4829.21 492.791 4831 495 4831Z" fill="white"/>
<path d="M1695 4875C1697.21 4875 1699 4873.21 1699 4871C1699 4868.79 1697.21 4867 1695 4867C1692.79 4867 1691 4868.79 1691 4871C1691 4873.21 1692.79 4875 1695 4875Z" fill="white"/>
<path d="M678 5335C678 5332.79 676.209 5331 674 5331C671.791 5331 670 5332.79 670 5335C670 5337.21 671.791 5339 674 5339C676.209 5339 678 5337.21 678 5335Z" fill="white"/>
<path d="M172 5390C172 5387.79 170.209 5386 168 5386C165.791 5386 164 5387.79 164 5390C164 5392.21 165.791 5394 168 5394C170.209 5394 172 5392.21 172 5390Z" fill="white"/>
<path d="M147 4973C147 4970.79 145.209 4969 143 4969C140.791 4969 139 4970.79 139 4973C139 4975.21 140.791 4977 143 4977C145.209 4977 147 4975.21 147 4973Z" fill="white"/>
<path d="M1072.23 6282.44C1072.8 6284.57 1074.99 6285.84 1077.12 6285.26C1079.26 6284.69 1080.53 6282.5 1079.95 6280.36C1079.38 6278.23 1077.19 6276.96 1075.05 6277.54C1072.92 6278.11 1071.65 6280.3 1072.23 6282.44Z" fill="white"/>
<path d="M1405 6363C1407.21 6363 1409 6361.21 1409 6359C1409 6356.79 1407.21 6355 1405 6355C1402.79 6355 1401 6356.79 1401 6359C1401 6361.21 1402.79 6363 1405 6363Z" fill="white"/>
<path d="M1602 6386C1604.21 6386 1606 6384.21 1606 6382C1606 6379.79 1604.21 6378 1602 6378C1599.79 6378 1598 6379.79 1598 6382C1598 6384.21 1599.79 6386 1602 6386Z" fill="white"/>
<path d="M1336.39 6066.71C1336.96 6068.84 1339.15 6070.11 1341.28 6069.53C1343.42 6068.96 1344.69 6066.77 1344.11 6064.63C1343.54 6062.5 1341.35 6061.23 1339.21 6061.81C1337.08 6062.38 1335.81 6064.57 1336.39 6066.71Z" fill="white"/>
<path d="M482.034 6408.94C482.606 6411.07 484.8 6412.34 486.933 6411.76C489.067 6411.19 490.334 6409 489.762 6406.86C489.19 6404.73 486.997 6403.46 484.863 6404.04C482.729 6404.61 481.463 6406.8 482.034 6408.94Z" fill="white"/>
<path d="M1698.03 5653.94C1698.61 5656.07 1700.8 5657.34 1702.93 5656.76C1705.07 5656.19 1706.33 5654 1705.76 5651.86C1705.19 5649.73 1703 5648.46 1700.86 5649.04C1698.73 5649.61 1697.46 5651.8 1698.03 5653.94Z" fill="white"/>
<path d="M1565 6532C1567.21 6532 1569 6530.21 1569 6528C1569 6525.79 1567.21 6524 1565 6524C1562.79 6524 1561 6525.79 1561 6528C1561 6530.21 1562.79 6532 1565 6532Z" fill="white"/>
<path d="M1097 6795C1099.21 6795 1101 6793.21 1101 6791C1101 6788.79 1099.21 6787 1097 6787C1094.79 6787 1093 6788.79 1093 6791C1093 6793.21 1094.79 6795 1097 6795Z" fill="white"/>
<path d="M1197.44 6112.23C1198.01 6114.36 1200.2 6115.63 1202.34 6115.05C1204.47 6114.48 1205.74 6112.29 1205.16 6110.15C1204.59 6108.02 1202.4 6106.75 1200.27 6107.33C1198.13 6107.9 1196.87 6110.09 1197.44 6112.23Z" fill="white"/>
<path d="M1767 6172C1769.21 6172 1771 6170.21 1771 6168C1771 6165.79 1769.21 6164 1767 6164C1764.79 6164 1763 6165.79 1763 6168C1763 6170.21 1764.79 6172 1767 6172Z" fill="white"/>
<path d="M1876 6256C1878.21 6256 1880 6254.21 1880 6252C1880 6249.79 1878.21 6248 1876 6248C1873.79 6248 1872 6249.79 1872 6252C1872 6254.21 1873.79 6256 1876 6256Z" fill="white"/>
<path d="M1447 6674C1449.21 6674 1451 6672.21 1451 6670C1451 6667.79 1449.21 6666 1447 6666C1444.79 6666 1443 6667.79 1443 6670C1443 6672.21 1444.79 6674 1447 6674Z" fill="white"/>
<path d="M1105 5479C1107.21 5479 1109 5477.21 1109 5475C1109 5472.79 1107.21 5471 1105 5471C1102.79 5471 1101 5472.79 1101 5475C1101 5477.21 1102.79 5479 1105 5479Z" fill="white"/>
<path d="M409 5102C411.209 5102 413 5100.21 413 5098C413 5095.79 411.209 5094 409 5094C406.791 5094 405 5095.79 405 5098C405 5100.21 406.791 5102 409 5102Z" fill="white"/>
<path d="M1097 5221C1099.21 5221 1101 5219.21 1101 5217C1101 5214.79 1099.21 5213 1097 5213C1094.79 5213 1093 5214.79 1093 5217C1093 5219.21 1094.79 5221 1097 5221Z" fill="white"/>
<path d="M628 5519C630.209 5519 632 5517.21 632 5515C632 5512.79 630.209 5511 628 5511C625.791 5511 624 5512.79 624 5515C624 5517.21 625.791 5519 628 5519Z" fill="white"/>
<path d="M593 5715C595.209 5715 597 5713.21 597 5711C597 5708.79 595.209 5707 593 5707C590.791 5707 589 5708.79 589 5711C589 5713.21 590.791 5715 593 5715Z" fill="white"/>
<path d="M601 5915C603.209 5915 605 5913.21 605 5911C605 5908.79 603.209 5907 601 5907C598.791 5907 597 5908.79 597 5911C597 5913.21 598.791 5915 601 5915Z" fill="white"/>
<path d="M524 4603C526.209 4603 528 4601.21 528 4599C528 4596.79 526.209 4595 524 4595C521.791 4595 520 4596.79 520 4599C520 4601.21 521.791 4603 524 4603Z" fill="white"/>
<path d="M1155 4585C1157.21 4585 1159 4583.21 1159 4581C1159 4578.79 1157.21 4577 1155 4577C1152.79 4577 1151 4578.79 1151 4581C1151 4583.21 1152.79 4585 1155 4585Z" fill="white"/>
<path d="M1724 4573C1726.21 4573 1728 4571.21 1728 4569C1728 4566.79 1726.21 4565 1724 4565C1721.79 4565 1720 4566.79 1720 4569C1720 4571.21 1721.79 4573 1724 4573Z" fill="white"/>
<path d="M1219 6417C1221.21 6417 1223 6415.21 1223 6413C1223 6410.79 1221.21 6409 1219 6409C1216.79 6409 1215 6410.79 1215 6413C1215 6415.21 1216.79 6417 1219 6417Z" fill="white"/>
<path d="M1025 6555C1027.21 6555 1029 6553.21 1029 6551C1029 6548.79 1027.21 6547 1025 6547C1022.79 6547 1021 6548.79 1021 6551C1021 6553.21 1022.79 6555 1025 6555Z" fill="white"/>
<path d="M1029.73 6035C1030.3 6037.13 1032.49 6038.4 1034.62 6037.82C1036.76 6037.25 1038.03 6035.06 1037.45 6032.92C1036.88 6030.79 1034.69 6029.52 1032.55 6030.1C1030.42 6030.67 1029.15 6032.86 1029.73 6035Z" fill="white"/>
<path d="M1039.03 5651.94C1039.61 5654.07 1041.8 5655.34 1043.93 5654.76C1046.07 5654.19 1047.33 5652 1046.76 5649.86C1046.19 5647.73 1044 5646.46 1041.86 5647.04C1039.73 5647.61 1038.46 5649.8 1039.03 5651.94Z" fill="white"/>
<path d="M633.034 6142.94C633.606 6145.07 635.8 6146.34 637.933 6145.76C640.067 6145.19 641.334 6143 640.762 6140.86C640.19 6138.73 637.997 6137.46 635.863 6138.04C633.729 6138.61 632.463 6140.8 633.034 6142.94Z" fill="white"/>
<path d="M362.034 6076.94C362.606 6079.07 364.8 6080.34 366.933 6079.76C369.067 6079.19 370.334 6077 369.762 6074.86C369.19 6072.73 366.997 6071.46 364.863 6072.04C362.729 6072.61 361.463 6074.8 362.034 6076.94Z" fill="white"/>
<path d="M756 2481C758.209 2481 760 2479.21 760 2477C760 2474.79 758.209 2473 756 2473C753.791 2473 752 2474.79 752 2477C752 2479.21 753.791 2481 756 2481Z" fill="white"/>
<path d="M883 3133C883 3130.79 881.209 3129 879 3129C876.791 3129 875 3130.79 875 3133C875 3135.21 876.791 3137 879 3137C881.209 3137 883 3135.21 883 3133Z" fill="white"/>
<path d="M337 2656C337 2653.79 335.209 2652 333 2652C330.791 2652 329 2653.79 329 2656C329 2658.21 330.791 2660 333 2660C335.209 2660 337 2658.21 337 2656Z" fill="white"/>
<path d="M1735 4179C1735 4176.79 1733.21 4175 1731 4175C1728.79 4175 1727 4176.79 1727 4179C1727 4181.21 1728.79 4183 1731 4183C1733.21 4183 1735 4181.21 1735 4179Z" fill="white"/>
<path d="M871 3310C871 3307.79 869.209 3306 867 3306C864.791 3306 863 3307.79 863 3310C863 3312.21 864.791 3314 867 3314C869.209 3314 871 3312.21 871 3310Z" fill="white"/>
<path d="M361 3266C361 3263.79 359.209 3262 357 3262C354.791 3262 353 3263.79 353 3266C353 3268.21 354.791 3270 357 3270C359.209 3270 361 3268.21 361 3266Z" fill="white"/>
<path d="M349 2393C349 2390.79 347.209 2389 345 2389C342.791 2389 341 2390.79 341 2393C341 2395.21 342.791 2397 345 2397C347.209 2397 349 2395.21 349 2393Z" fill="white"/>
<path d="M949 2397C949 2394.79 947.209 2393 945 2393C942.791 2393 941 2394.79 941 2397C941 2399.21 942.791 2401 945 2401C947.209 2401 949 2399.21 949 2397Z" fill="white"/>
<path d="M949 2618C949 2615.79 947.209 2614 945 2614C942.791 2614 941 2615.79 941 2618C941 2620.21 942.791 2622 945 2622C947.209 2622 949 2620.21 949 2618Z" fill="white"/>
<path d="M1580 2379C1580 2376.79 1578.21 2375 1576 2375C1573.79 2375 1572 2376.79 1572 2379C1572 2381.21 1573.79 2383 1576 2383C1578.21 2383 1580 2381.21 1580 2379Z" fill="white"/>
<path d="M884.034 4053.22C884.606 4055.35 886.8 4056.62 888.933 4056.04C891.067 4055.47 892.334 4053.28 891.762 4051.14C891.19 4049.01 888.997 4047.74 886.863 4048.32C884.729 4048.89 883.463 4051.08 884.034 4053.22Z" fill="white"/>
<path d="M215.034 4253.94C215.606 4256.07 217.8 4257.34 219.933 4256.76C222.067 4256.19 223.334 4254 222.762 4251.86C222.19 4249.73 219.997 4248.46 217.863 4249.04C215.729 4249.61 214.463 4251.8 215.034 4253.94Z" fill="white"/>
<path d="M720.034 4337.94C720.606 4340.07 722.8 4341.34 724.933 4340.76C727.067 4340.19 728.334 4338 727.762 4335.86C727.19 4333.73 724.997 4332.46 722.863 4333.04C720.729 4333.61 719.463 4335.8 720.034 4337.94Z" fill="white"/>
<path d="M328.034 4492.94C328.606 4495.07 330.8 4496.34 332.933 4495.76C335.067 4495.19 336.334 4493 335.762 4490.86C335.19 4488.73 332.997 4487.46 330.863 4488.04C328.729 4488.61 327.463 4490.8 328.034 4492.94Z" fill="white"/>
<path d="M152.034 3962.94C152.606 3965.07 154.8 3966.34 156.933 3965.76C159.067 3965.19 160.334 3963 159.762 3960.86C159.19 3958.73 156.997 3957.46 154.863 3958.04C152.729 3958.61 151.463 3960.8 152.034 3962.94Z" fill="white"/>
<path d="M399.034 3600.94C399.606 3603.07 401.8 3604.34 403.933 3603.76C406.067 3603.19 407.334 3601 406.762 3598.86C406.19 3596.73 403.997 3595.46 401.863 3596.04C399.729 3596.61 398.463 3598.8 399.034 3600.94Z" fill="white"/>
<path d="M144.034 3641.94C144.606 3644.07 146.8 3645.34 148.933 3644.76C151.067 3644.19 152.334 3642 151.762 3639.86C151.19 3637.73 148.997 3636.46 146.863 3637.04C144.729 3637.61 143.463 3639.8 144.034 3641.94Z" fill="white"/>
<path d="M173.034 3392.94C173.606 3395.07 175.8 3396.34 177.933 3395.76C180.067 3395.19 181.334 3393 180.762 3390.86C180.19 3388.73 177.997 3387.46 175.863 3388.04C173.729 3388.61 172.463 3390.8 173.034 3392.94Z" fill="white"/>
<path d="M1739 4350C1741.21 4350 1743 4348.21 1743 4346C1743 4343.79 1741.21 4342 1739 4342C1736.79 4342 1735 4343.79 1735 4346C1735 4348.21 1736.79 4350 1739 4350Z" fill="white"/>
<path d="M1363 2923C1365.21 2923 1367 2921.21 1367 2919C1367 2916.79 1365.21 2915 1363 2915C1360.79 2915 1359 2916.79 1359 2919C1359 2921.21 1360.79 2923 1363 2923Z" fill="white"/>
<path d="M1363 3409C1365.21 3409 1367 3407.21 1367 3405C1367 3402.79 1365.21 3401 1363 3401C1360.79 3401 1359 3402.79 1359 3405C1359 3407.21 1360.79 3409 1363 3409Z" fill="white"/>
<path d="M1557 3636C1559.21 3636 1561 3634.21 1561 3632C1561 3629.79 1559.21 3628 1557 3628C1554.79 3628 1553 3629.79 1553 3632C1553 3634.21 1554.79 3636 1557 3636Z" fill="white"/>
<path d="M1783 3662C1785.21 3662 1787 3660.21 1787 3658C1787 3655.79 1785.21 3654 1783 3654C1780.79 3654 1779 3655.79 1779 3658C1779 3660.21 1780.79 3662 1783 3662Z" fill="white"/>
<path d="M1728 3125C1730.21 3125 1732 3123.21 1732 3121C1732 3118.79 1730.21 3117 1728 3117C1725.79 3117 1724 3118.79 1724 3121C1724 3123.21 1725.79 3125 1728 3125Z" fill="white"/>
<path d="M1775 3032C1777.21 3032 1779 3030.21 1779 3028C1779 3025.79 1777.21 3024 1775 3024C1772.79 3024 1771 3025.79 1771 3028C1771 3030.21 1772.79 3032 1775 3032Z" fill="white"/>
<path d="M808 3549C810.209 3549 812 3547.21 812 3545C812 3542.79 810.209 3541 808 3541C805.791 3541 804 3542.79 804 3545C804 3547.21 805.791 3549 808 3549Z" fill="white"/>
<path d="M1200 3572C1202.21 3572 1204 3570.21 1204 3568C1204 3565.79 1202.21 3564 1200 3564C1197.79 3564 1196 3565.79 1196 3568C1196 3570.21 1197.79 3572 1200 3572Z" fill="white"/>
<path d="M1580 3166C1582.21 3166 1584 3164.21 1584 3162C1584 3159.79 1582.21 3158 1580 3158C1577.79 3158 1576 3159.79 1576 3162C1576 3164.21 1577.79 3166 1580 3166Z" fill="white"/>
<path d="M1155 2780C1157.21 2780 1159 2778.21 1159 2776C1159 2773.79 1157.21 2772 1155 2772C1152.79 2772 1151 2773.79 1151 2776C1151 2778.21 1152.79 2780 1155 2780Z" fill="white"/>
<path d="M1691 2883C1693.21 2883 1695 2881.21 1695 2879C1695 2876.79 1693.21 2875 1691 2875C1688.79 2875 1687 2876.79 1687 2879C1687 2881.21 1688.79 2883 1691 2883Z" fill="white"/>
<path d="M1371 2668C1373.21 2668 1375 2666.21 1375 2664C1375 2661.79 1373.21 2660 1371 2660C1368.79 2660 1367 2661.79 1367 2664C1367 2666.21 1368.79 2668 1371 2668Z" fill="white"/>
<path d="M1192 2522C1194.21 2522 1196 2520.21 1196 2518C1196 2515.79 1194.21 2514 1192 2514C1189.79 2514 1188 2515.79 1188 2518C1188 2520.21 1189.79 2522 1192 2522Z" fill="white"/>
<path d="M1331 3158C1333.21 3158 1335 3156.21 1335 3154C1335 3151.79 1333.21 3150 1331 3150C1328.79 3150 1327 3151.79 1327 3154C1327 3156.21 1328.79 3158 1331 3158Z" fill="white"/>
<path d="M228 2891C230.209 2891 232 2889.21 232 2887C232 2884.79 230.209 2883 228 2883C225.791 2883 224 2884.79 224 2887C224 2889.21 225.791 2891 228 2891Z" fill="white"/>
<path d="M216 2275C218.209 2275 220 2273.21 220 2271C220 2268.79 218.209 2267 216 2267C213.791 2267 212 2268.79 212 2271C212 2273.21 213.791 2275 216 2275Z" fill="white"/>
<path d="M816 2279C818.209 2279 820 2277.21 820 2275C820 2272.79 818.209 2271 816 2271C813.791 2271 812 2272.79 812 2275C812 2277.21 813.791 2279 816 2279Z" fill="white"/>
<path d="M1868 4252C1870.21 4252 1872 4250.21 1872 4248C1872 4245.79 1870.21 4244 1868 4244C1865.79 4244 1864 4245.79 1864 4248C1864 4250.21 1865.79 4252 1868 4252Z" fill="white"/>
<path d="M867 2837C869.209 2837 871 2835.21 871 2833C871 2830.79 869.209 2829 867 2829C864.791 2829 863 2830.79 863 2833C863 2835.21 864.791 2837 867 2837Z" fill="white"/>
<path d="M566 2788C568.209 2788 570 2786.21 570 2784C570 2781.79 568.209 2780 566 2780C563.791 2780 562 2781.79 562 2784C562 2786.21 563.791 2788 566 2788Z" fill="white"/>
<path d="M1042 3028C1044.21 3028 1046 3026.21 1046 3024C1046 3021.79 1044.21 3020 1042 3020C1039.79 3020 1038 3021.79 1038 3024C1038 3026.21 1039.79 3028 1042 3028Z" fill="white"/>
<path d="M417 3041C419.209 3041 421 3039.21 421 3037C421 3034.79 419.209 3033 417 3033C414.791 3033 413 3034.79 413 3037C413 3039.21 414.791 3041 417 3041Z" fill="white"/>
<path d="M495 2570C497.209 2570 499 2568.21 499 2566C499 2563.79 497.209 2562 495 2562C492.791 2562 491 2563.79 491 2566C491 2568.21 492.791 2570 495 2570Z" fill="white"/>
<path d="M1695 2614C1697.21 2614 1699 2612.21 1699 2610C1699 2607.79 1697.21 2606 1695 2606C1692.79 2606 1691 2607.79 1691 2610C1691 2612.21 1692.79 2614 1695 2614Z" fill="white"/>
<path d="M678 3074C678 3071.79 676.209 3070 674 3070C671.791 3070 670 3071.79 670 3074C670 3076.21 671.791 3078 674 3078C676.209 3078 678 3076.21 678 3074Z" fill="white"/>
<path d="M172 3129C172 3126.79 170.209 3125 168 3125C165.791 3125 164 3126.79 164 3129C164 3131.21 165.791 3133 168 3133C170.209 3133 172 3131.21 172 3129Z" fill="white"/>
<path d="M147 2712C147 2709.79 145.209 2708 143 2708C140.791 2708 139 2709.79 139 2712C139 2714.21 140.791 2716 143 2716C145.209 2716 147 2714.21 147 2712Z" fill="white"/>
<path d="M1072.23 4021.44C1072.8 4023.57 1074.99 4024.84 1077.12 4024.26C1079.26 4023.69 1080.53 4021.5 1079.95 4019.36C1079.38 4017.23 1077.19 4015.96 1075.05 4016.54C1072.92 4017.11 1071.65 4019.3 1072.23 4021.44Z" fill="white"/>
<path d="M1405 4102C1407.21 4102 1409 4100.21 1409 4098C1409 4095.79 1407.21 4094 1405 4094C1402.79 4094 1401 4095.79 1401 4098C1401 4100.21 1402.79 4102 1405 4102Z" fill="white"/>
<path d="M1602 4125C1604.21 4125 1606 4123.21 1606 4121C1606 4118.79 1604.21 4117 1602 4117C1599.79 4117 1598 4118.79 1598 4121C1598 4123.21 1599.79 4125 1602 4125Z" fill="white"/>
<path d="M1336.39 3805.71C1336.96 3807.84 1339.15 3809.11 1341.28 3808.53C1343.42 3807.96 1344.69 3805.77 1344.11 3803.63C1343.54 3801.5 1341.35 3800.23 1339.21 3800.81C1337.08 3801.38 1335.81 3803.57 1336.39 3805.71Z" fill="white"/>
<path d="M482.034 4147.94C482.606 4150.07 484.8 4151.34 486.933 4150.76C489.067 4150.19 490.334 4148 489.762 4145.86C489.19 4143.73 486.997 4142.46 484.863 4143.04C482.729 4143.61 481.463 4145.8 482.034 4147.94Z" fill="white"/>
<path d="M1698.03 3392.94C1698.61 3395.07 1700.8 3396.34 1702.93 3395.76C1705.07 3395.19 1706.33 3393 1705.76 3390.86C1705.19 3388.73 1703 3387.46 1700.86 3388.04C1698.73 3388.61 1697.46 3390.8 1698.03 3392.94Z" fill="white"/>
<path d="M1565 4271C1567.21 4271 1569 4269.21 1569 4267C1569 4264.79 1567.21 4263 1565 4263C1562.79 4263 1561 4264.79 1561 4267C1561 4269.21 1562.79 4271 1565 4271Z" fill="white"/>
<path d="M1097 4534C1099.21 4534 1101 4532.21 1101 4530C1101 4527.79 1099.21 4526 1097 4526C1094.79 4526 1093 4527.79 1093 4530C1093 4532.21 1094.79 4534 1097 4534Z" fill="white"/>
<path d="M1197.44 3851.23C1198.01 3853.36 1200.2 3854.63 1202.34 3854.05C1204.47 3853.48 1205.74 3851.29 1205.16 3849.15C1204.59 3847.02 1202.4 3845.75 1200.27 3846.33C1198.13 3846.9 1196.87 3849.09 1197.44 3851.23Z" fill="white"/>
<path d="M1767 3911C1769.21 3911 1771 3909.21 1771 3907C1771 3904.79 1769.21 3903 1767 3903C1764.79 3903 1763 3904.79 1763 3907C1763 3909.21 1764.79 3911 1767 3911Z" fill="white"/>
<path d="M1876 3995C1878.21 3995 1880 3993.21 1880 3991C1880 3988.79 1878.21 3987 1876 3987C1873.79 3987 1872 3988.79 1872 3991C1872 3993.21 1873.79 3995 1876 3995Z" fill="white"/>
<path d="M1447 4413C1449.21 4413 1451 4411.21 1451 4409C1451 4406.79 1449.21 4405 1447 4405C1444.79 4405 1443 4406.79 1443 4409C1443 4411.21 1444.79 4413 1447 4413Z" fill="white"/>
<path d="M1105 3218C1107.21 3218 1109 3216.21 1109 3214C1109 3211.79 1107.21 3210 1105 3210C1102.79 3210 1101 3211.79 1101 3214C1101 3216.21 1102.79 3218 1105 3218Z" fill="white"/>
<path d="M409 2841C411.209 2841 413 2839.21 413 2837C413 2834.79 411.209 2833 409 2833C406.791 2833 405 2834.79 405 2837C405 2839.21 406.791 2841 409 2841Z" fill="white"/>
<path d="M1097 2960C1099.21 2960 1101 2958.21 1101 2956C1101 2953.79 1099.21 2952 1097 2952C1094.79 2952 1093 2953.79 1093 2956C1093 2958.21 1094.79 2960 1097 2960Z" fill="white"/>
<path d="M628 3258C630.209 3258 632 3256.21 632 3254C632 3251.79 630.209 3250 628 3250C625.791 3250 624 3251.79 624 3254C624 3256.21 625.791 3258 628 3258Z" fill="white"/>
<path d="M593 3454C595.209 3454 597 3452.21 597 3450C597 3447.79 595.209 3446 593 3446C590.791 3446 589 3447.79 589 3450C589 3452.21 590.791 3454 593 3454Z" fill="white"/>
<path d="M601 3654C603.209 3654 605 3652.21 605 3650C605 3647.79 603.209 3646 601 3646C598.791 3646 597 3647.79 597 3650C597 3652.21 598.791 3654 601 3654Z" fill="white"/>
<path d="M524 2342C526.209 2342 528 2340.21 528 2338C528 2335.79 526.209 2334 524 2334C521.791 2334 520 2335.79 520 2338C520 2340.21 521.791 2342 524 2342Z" fill="white"/>
<path d="M1155 2324C1157.21 2324 1159 2322.21 1159 2320C1159 2317.79 1157.21 2316 1155 2316C1152.79 2316 1151 2317.79 1151 2320C1151 2322.21 1152.79 2324 1155 2324Z" fill="white"/>
<path d="M1724 2312C1726.21 2312 1728 2310.21 1728 2308C1728 2305.79 1726.21 2304 1724 2304C1721.79 2304 1720 2305.79 1720 2308C1720 2310.21 1721.79 2312 1724 2312Z" fill="white"/>
<path d="M1219 4156C1221.21 4156 1223 4154.21 1223 4152C1223 4149.79 1221.21 4148 1219 4148C1216.79 4148 1215 4149.79 1215 4152C1215 4154.21 1216.79 4156 1219 4156Z" fill="white"/>
<path d="M1025 4294C1027.21 4294 1029 4292.21 1029 4290C1029 4287.79 1027.21 4286 1025 4286C1022.79 4286 1021 4287.79 1021 4290C1021 4292.21 1022.79 4294 1025 4294Z" fill="white"/>
<path d="M1029.73 3774C1030.3 3776.13 1032.49 3777.4 1034.62 3776.82C1036.76 3776.25 1038.03 3774.06 1037.45 3771.92C1036.88 3769.79 1034.69 3768.52 1032.55 3769.1C1030.42 3769.67 1029.15 3771.86 1029.73 3774Z" fill="white"/>
<path d="M1039.03 3390.94C1039.61 3393.07 1041.8 3394.34 1043.93 3393.76C1046.07 3393.19 1047.33 3391 1046.76 3388.86C1046.19 3386.73 1044 3385.46 1041.86 3386.04C1039.73 3386.61 1038.46 3388.8 1039.03 3390.94Z" fill="white"/>
<path d="M633.034 3881.94C633.606 3884.07 635.8 3885.34 637.933 3884.76C640.067 3884.19 641.334 3882 640.762 3879.86C640.19 3877.73 637.997 3876.46 635.863 3877.04C633.729 3877.61 632.463 3879.8 633.034 3881.94Z" fill="white"/>
<path d="M362.034 3815.94C362.606 3818.07 364.8 3819.34 366.933 3818.76C369.067 3818.19 370.334 3816 369.762 3813.86C369.19 3811.73 366.997 3810.46 364.863 3811.04C362.729 3811.61 361.463 3813.8 362.034 3815.94Z" fill="white"/>
<path d="M756 7015C758.209 7015 760 7013.21 760 7011C760 7008.79 758.209 7007 756 7007C753.791 7007 752 7008.79 752 7011C752 7013.21 753.791 7015 756 7015Z" fill="white"/>
<path d="M883 7667C883 7664.79 881.209 7663 879 7663C876.791 7663 875 7664.79 875 7667C875 7669.21 876.791 7671 879 7671C881.209 7671 883 7669.21 883 7667Z" fill="white"/>
<path d="M337 7190C337 7187.79 335.209 7186 333 7186C330.791 7186 329 7187.79 329 7190C329 7192.21 330.791 7194 333 7194C335.209 7194 337 7192.21 337 7190Z" fill="white"/>
<path d="M349 6927C349 6924.79 347.209 6923 345 6923C342.791 6923 341 6924.79 341 6927C341 6929.21 342.791 6931 345 6931C347.209 6931 349 6929.21 349 6927Z" fill="white"/>
<path d="M949 6931C949 6928.79 947.209 6927 945 6927C942.791 6927 941 6928.79 941 6931C941 6933.21 942.791 6935 945 6935C947.209 6935 949 6933.21 949 6931Z" fill="white"/>
<path d="M949 7152C949 7149.79 947.209 7148 945 7148C942.791 7148 941 7149.79 941 7152C941 7154.21 942.791 7156 945 7156C947.209 7156 949 7154.21 949 7152Z" fill="white"/>
<path d="M1580 6913C1580 6910.79 1578.21 6909 1576 6909C1573.79 6909 1572 6910.79 1572 6913C1572 6915.21 1573.79 6917 1576 6917C1578.21 6917 1580 6915.21 1580 6913Z" fill="white"/>
<path d="M1363 7457C1365.21 7457 1367 7455.21 1367 7453C1367 7450.79 1365.21 7449 1363 7449C1360.79 7449 1359 7450.79 1359 7453C1359 7455.21 1360.79 7457 1363 7457Z" fill="white"/>
<path d="M1728 7659C1730.21 7659 1732 7657.21 1732 7655C1732 7652.79 1730.21 7651 1728 7651C1725.79 7651 1724 7652.79 1724 7655C1724 7657.21 1725.79 7659 1728 7659Z" fill="white"/>
<path d="M1775 7566C1777.21 7566 1779 7564.21 1779 7562C1779 7559.79 1777.21 7558 1775 7558C1772.79 7558 1771 7559.79 1771 7562C1771 7564.21 1772.79 7566 1775 7566Z" fill="white"/>
<path d="M1580 7700C1582.21 7700 1584 7698.21 1584 7696C1584 7693.79 1582.21 7692 1580 7692C1577.79 7692 1576 7693.79 1576 7696C1576 7698.21 1577.79 7700 1580 7700Z" fill="white"/>
<path d="M1155 7314C1157.21 7314 1159 7312.21 1159 7310C1159 7307.79 1157.21 7306 1155 7306C1152.79 7306 1151 7307.79 1151 7310C1151 7312.21 1152.79 7314 1155 7314Z" fill="white"/>
<path d="M1691 7417C1693.21 7417 1695 7415.21 1695 7413C1695 7410.79 1693.21 7409 1691 7409C1688.79 7409 1687 7410.79 1687 7413C1687 7415.21 1688.79 7417 1691 7417Z" fill="white"/>
<path d="M1371 7202C1373.21 7202 1375 7200.21 1375 7198C1375 7195.79 1373.21 7194 1371 7194C1368.79 7194 1367 7195.79 1367 7198C1367 7200.21 1368.79 7202 1371 7202Z" fill="white"/>
<path d="M1192 7056C1194.21 7056 1196 7054.21 1196 7052C1196 7049.79 1194.21 7048 1192 7048C1189.79 7048 1188 7049.79 1188 7052C1188 7054.21 1189.79 7056 1192 7056Z" fill="white"/>
<path d="M1331 7692C1333.21 7692 1335 7690.21 1335 7688C1335 7685.79 1333.21 7684 1331 7684C1328.79 7684 1327 7685.79 1327 7688C1327 7690.21 1328.79 7692 1331 7692Z" fill="white"/>
<path d="M228 7425C230.209 7425 232 7423.21 232 7421C232 7418.79 230.209 7417 228 7417C225.791 7417 224 7418.79 224 7421C224 7423.21 225.791 7425 228 7425Z" fill="white"/>
<path d="M216 6809C218.209 6809 220 6807.21 220 6805C220 6802.79 218.209 6801 216 6801C213.791 6801 212 6802.79 212 6805C212 6807.21 213.791 6809 216 6809Z" fill="white"/>
<path d="M816 6813C818.209 6813 820 6811.21 820 6809C820 6806.79 818.209 6805 816 6805C813.791 6805 812 6806.79 812 6809C812 6811.21 813.791 6813 816 6813Z" fill="white"/>
<path d="M867 7371C869.209 7371 871 7369.21 871 7367C871 7364.79 869.209 7363 867 7363C864.791 7363 863 7364.79 863 7367C863 7369.21 864.791 7371 867 7371Z" fill="white"/>
<path d="M566 7322C568.209 7322 570 7320.21 570 7318C570 7315.79 568.209 7314 566 7314C563.791 7314 562 7315.79 562 7318C562 7320.21 563.791 7322 566 7322Z" fill="white"/>
<path d="M1042 7562C1044.21 7562 1046 7560.21 1046 7558C1046 7555.79 1044.21 7554 1042 7554C1039.79 7554 1038 7555.79 1038 7558C1038 7560.21 1039.79 7562 1042 7562Z" fill="white"/>
<path d="M417 7575C419.209 7575 421 7573.21 421 7571C421 7568.79 419.209 7567 417 7567C414.791 7567 413 7568.79 413 7571C413 7573.21 414.791 7575 417 7575Z" fill="white"/>
<path d="M495 7104C497.209 7104 499 7102.21 499 7100C499 7097.79 497.209 7096 495 7096C492.791 7096 491 7097.79 491 7100C491 7102.21 492.791 7104 495 7104Z" fill="white"/>
<path d="M1695 7148C1697.21 7148 1699 7146.21 1699 7144C1699 7141.79 1697.21 7140 1695 7140C1692.79 7140 1691 7141.79 1691 7144C1691 7146.21 1692.79 7148 1695 7148Z" fill="white"/>
<path d="M678 7608C678 7605.79 676.209 7604 674 7604C671.791 7604 670 7605.79 670 7608C670 7610.21 671.791 7612 674 7612C676.209 7612 678 7610.21 678 7608Z" fill="white"/>
<path d="M172 7663C172 7660.79 170.209 7659 168 7659C165.791 7659 164 7660.79 164 7663C164 7665.21 165.791 7667 168 7667C170.209 7667 172 7665.21 172 7663Z" fill="white"/>
<path d="M147 7246C147 7243.79 145.209 7242 143 7242C140.791 7242 139 7243.79 139 7246C139 7248.21 140.791 7250 143 7250C145.209 7250 147 7248.21 147 7246Z" fill="white"/>
<path d="M1105 7752C1107.21 7752 1109 7750.21 1109 7748C1109 7745.79 1107.21 7744 1105 7744C1102.79 7744 1101 7745.79 1101 7748C1101 7750.21 1102.79 7752 1105 7752Z" fill="white"/>
<path d="M409 7375C411.209 7375 413 7373.21 413 7371C413 7368.79 411.209 7367 409 7367C406.791 7367 405 7368.79 405 7371C405 7373.21 406.791 7375 409 7375Z" fill="white"/>
<path d="M1097 7494C1099.21 7494 1101 7492.21 1101 7490C1101 7487.79 1099.21 7486 1097 7486C1094.79 7486 1093 7487.79 1093 7490C1093 7492.21 1094.79 7494 1097 7494Z" fill="white"/>
<path d="M628 7792C630.209 7792 632 7790.21 632 7788C632 7785.79 630.209 7784 628 7784C625.791 7784 624 7785.79 624 7788C624 7790.21 625.791 7792 628 7792Z" fill="white"/>
<path d="M524 6876C526.209 6876 528 6874.21 528 6872C528 6869.79 526.209 6868 524 6868C521.791 6868 520 6869.79 520 6872C520 6874.21 521.791 6876 524 6876Z" fill="white"/>
<path d="M1155 6858C1157.21 6858 1159 6856.21 1159 6854C1159 6851.79 1157.21 6850 1155 6850C1152.79 6850 1151 6851.79 1151 6854C1151 6856.21 1152.79 6858 1155 6858Z" fill="white"/>
<path d="M1724 6846C1726.21 6846 1728 6844.21 1728 6842C1728 6839.79 1726.21 6838 1724 6838C1721.79 6838 1720 6839.79 1720 6842C1720 6844.21 1721.79 6846 1724 6846Z" fill="white"/>
</g>
</g>
<defs>
<clipPath id="clip0_126_1344">
<rect width="1920" height="7792" fill="white"/>
</clipPath>
</defs>
</svg>
