<svg width="1920" height="799" viewBox="0 0 1920 799" fill="none" xmlns="http://www.w3.org/2000/svg">
<path d="M1219.1 694.584C1212.14 700.79 1204.9 706.796 1197.41 712.588C1193.25 715.802 1189.04 718.92 1184.8 721.944L1202.03 658.85L1227.93 662.155C1235.76 663.155 1242.24 664.69 1247.36 666.762C1242.71 671.824 1237.91 676.786 1232.95 681.642C1231.56 680.627 1229.19 679.904 1225.82 679.475L1222.02 678.989L1217.78 694.416L1219.1 694.584Z" fill="white"/>
<path d="M1314.72 565.955C1301.53 594.347 1284.88 621.391 1264.84 646.408L1235.63 642.681L1243.12 612.7C1245.73 602.139 1249.29 589.954 1253.82 576.145L1228.27 633.01L1204.46 629.971L1209.24 570.705C1208.09 578.958 1206.92 585.753 1205.74 591.09C1204.64 596.355 1203.23 601.83 1201.5 607.514L1192.8 637.215L1168.38 634.098L1197.31 550.971L1227.26 554.793L1221.41 612.675L1245.54 557.126L1276.96 561.136L1260.71 642.502L1306.21 564.869L1314.72 565.955Z" fill="white"/>
<path d="M1343.52 478.719C1340.05 495.55 1335.49 512.174 1329.86 528.474L1334.04 512.911L1315.26 510.515L1305.91 544.373L1281.12 541.209L1304.16 457.33L1328.95 460.494L1320.46 491.469L1339.36 493.882L1343.52 478.719Z" fill="white"/>
<path d="M1351.59 388.165C1352.05 406.368 1351.26 424.567 1349.24 442.626L1338.54 441.261L1347.65 407.371L1328.87 404.975L1319.52 438.833L1294.72 435.669L1317.77 351.79L1342.56 354.954L1334.07 385.93L1351.59 388.165Z" fill="white"/>
<path d="M1325.29 256.088L1285.58 323.846L1301.83 242.48L1270.41 238.47L1246.29 294.019L1252.13 236.136L1222.18 232.315L1193.25 315.442L1217.67 318.559L1226.37 288.857C1228.1 283.174 1229.51 277.699 1230.61 272.434C1231.79 267.097 1232.96 260.302 1234.11 252.049L1229.34 311.315L1253.14 314.354L1278.69 257.489C1274.16 271.298 1270.6 283.483 1267.99 294.044L1260.5 324.025L1309.64 330.295L1317.17 314.417L1337.18 316.97L1335.9 333.647L1346.64 335.018C1344.59 322.336 1341.92 309.718 1338.62 297.211L1338.47 299.173L1325.1 297.466L1333.52 279.593C1331.04 271.7 1328.29 263.861 1325.29 256.088Z" fill="white"/>
<path d="M1264.68 150.899L1247.16 215.045L1276.61 218.804C1290.06 220.52 1300.36 219.801 1307.52 216.646C1303.89 209.644 1300.03 202.719 1295.94 195.879C1295.22 197.489 1294.21 198.797 1292.91 199.803C1290.69 201.516 1286.84 202.022 1281.36 201.323L1276.58 200.712L1281.56 182.387L1287.57 183.155C1287.73 183.175 1287.89 183.197 1288.05 183.22C1282.15 174.145 1275.84 165.238 1269.11 156.522C1267.65 154.631 1266.17 152.757 1264.68 150.899Z" fill="white"/>
<path d="M1244.8 127.924C1248.74 132.148 1252.62 136.476 1256.41 140.907L1236.53 213.688L1212.6 210.634L1219.54 184.826C1221.52 177.844 1223.48 171.981 1225.43 167.24C1227.45 162.508 1230.4 156.066 1234.28 147.912L1197.99 208.77L1168.66 205.026L1191.58 121.132L1215.51 124.186L1208.35 149.717C1206.34 156.945 1204.18 163.364 1201.88 168.974C1199.65 174.595 1197.04 180.333 1194.04 186.187L1230.73 126.128L1244.8 127.924Z" fill="white"/>
<path d="M1140.42 48.2504C1139.24 52.2086 1138.39 56.2543 1137.85 60.3875C1136.42 71.5141 1138.21 80.5571 1143.21 87.5163C1148.3 94.4859 1156.29 98.6652 1167.17 100.054C1178.21 101.464 1187.54 99.7844 1195.14 95.0163C1197.95 93.2535 1200.51 91.2718 1202.83 89.0714C1196.95 84.3714 1190.96 79.8585 1184.86 75.534C1184.45 76.1043 1184.03 76.6601 1183.59 77.2014C1180.32 81.2748 1176.27 83.0034 1171.44 82.3873C1167.92 81.9383 1165.46 80.4179 1164.05 77.826C1162.72 75.2446 1162.4 71.213 1163.11 65.7315C1163.29 64.3589 1163.5 62.968 1163.75 61.559C1156.11 56.8447 1148.32 52.4078 1140.42 48.2504Z" fill="white"/>
<path d="M1110.68 34.1598C1118.38 37.4204 1125.98 40.9307 1133.48 44.6888L1120.66 91.6238L1095.87 88.4599L1104.98 54.5705L1086.2 52.1741L1076.85 86.0323L1052.06 82.8685L1069.51 19.3378C1077.42 21.7022 1085.27 24.3155 1093.04 27.176L1091.4 33.1288L1110.3 35.5409L1110.68 34.1598Z" fill="white"/>
<path fill-rule="evenodd" clip-rule="evenodd" d="M996.014 4.73333C1017.34 6.91707 1038.48 10.8184 1059.2 16.4087C1059.18 16.616 1059.16 16.8247 1059.13 17.0348C1058.39 22.7618 1056.05 27.0371 1052.11 29.8607C1048.17 32.6842 1043.46 34.4522 1037.96 35.1643C1042.9 36.7935 1046.72 39.151 1049.4 42.2372C1052.07 45.3234 1053.05 49.6891 1052.32 55.3343C1051.27 63.5157 1047.1 69.6789 1039.83 73.8237C1032.66 77.8972 1021.62 78.9837 1006.73 77.0833L977.277 73.3245L996.014 4.73333ZM1029.81 23.8951C1028.09 25.5889 1024.9 26.1381 1020.24 25.5429L1015.94 24.9948L1020.18 9.56842L1023.98 10.054C1027.5 10.503 1029.94 11.2715 1031.29 12.3594C1032.73 13.4577 1033.32 14.9886 1033.07 16.9522C1032.7 19.8156 1031.61 22.13 1029.81 23.8951ZM1023.03 58.0821C1020.81 59.7951 1016.96 60.3017 1011.48 59.6021L1006.69 58.9913L1011.68 40.6666L1017.69 41.4341C1024.64 42.3216 1027.82 45.1379 1027.2 49.8831C1026.73 53.5648 1025.34 56.2978 1023.03 58.0821Z" fill="white"/>
<path d="M949.671 2.6996C961.557 2.52874 973.437 2.89038 985.27 3.77967L966.643 71.9672L942.712 68.913L949.658 43.1049C951.639 36.1228 953.601 30.2609 955.543 25.5191C957.567 20.7878 960.518 14.3453 964.397 6.19166L928.108 67.0491L898.777 63.3057L914.777 4.73692C923.134 3.8789 931.506 3.28743 939.879 2.96083L938.467 7.99683C936.454 15.2243 934.296 21.6431 931.992 27.2535C929.77 32.8744 927.16 38.6119 924.159 44.466L949.671 2.6996Z" fill="white"/>
<path d="M835.305 21.263C844.569 18.3159 853.908 15.7225 863.302 13.4802C862.208 17.1906 861.435 20.7983 860.983 24.3035C859.517 35.6756 862.997 41.8993 871.424 42.9748C874.124 43.3194 876.78 43.0348 879.393 42.1208C882.088 41.2173 885.137 39.8185 888.542 37.9245L896.017 53.4732C891.637 56.49 886.767 58.7792 881.41 60.3407C876.145 61.831 870.526 62.195 864.553 61.4328C857.763 60.5661 852.005 58.4591 847.281 55.1119C842.567 51.6828 839.121 47.1266 836.943 41.4432C834.847 35.7703 834.29 29.1295 835.271 21.5208C835.282 21.4348 835.293 21.3489 835.305 21.263Z" fill="white"/>
<path d="M777.513 44.8345C785.347 40.8895 793.273 37.2254 801.277 33.8405C802.036 34.0586 802.847 34.2228 803.711 34.3329C806.41 34.6775 809.067 34.3928 811.68 33.4789C814.374 32.5754 817.423 31.1765 820.828 29.2825L828.304 44.8314C823.923 47.8481 819.054 50.1373 813.696 51.6989C808.431 53.1891 802.812 53.5531 796.84 52.7908C790.049 51.9242 784.292 49.8172 779.567 46.4699C778.853 45.9506 778.168 45.4055 777.513 44.8345Z" fill="white"/>
<path d="M743.73 63.9752L767.878 67.0573L744.961 150.952L720.17 147.788L729.281 113.898L710.504 111.502L701.148 145.36L676.358 142.196L685.551 108.729C694.252 100.672 703.386 92.9323 712.95 85.5428C714.896 84.0395 716.851 82.5571 718.816 81.0956L715.704 92.4567L734.603 94.8688L742.926 64.4854C743.194 64.315 743.462 64.1449 743.73 63.9752Z" fill="white"/>
<path d="M659.536 135.18C664.831 129.266 670.329 123.485 676.029 117.844C674.394 124.46 670.429 129.563 664.133 133.152C662.745 133.94 661.212 134.616 659.536 135.18Z" fill="white"/>
<path fill-rule="evenodd" clip-rule="evenodd" d="M596.403 230.537C608.346 205.128 623.077 180.813 640.533 158.082L656.333 160.098L640.087 241.463L685.584 163.831L715.283 167.622L716.664 254.617L690.402 251.265L691.679 234.589L671.675 232.036L664.139 247.914L615.007 241.643L622.49 211.663C625.1 201.102 628.667 188.917 633.192 175.107L607.647 231.972L596.403 230.537ZM679.599 215.084L692.976 216.791L695.569 181.197L679.599 215.084Z" fill="white"/>
<path d="M562.825 342.26C567.006 313.623 574.305 285.428 584.651 258.226L586.643 258.481L563.725 342.375L562.825 342.26Z" fill="white"/>
<path d="M558.953 415.567C558.251 397.816 558.74 380.054 560.405 362.409L573.034 364.021L558.953 415.567Z" fill="white"/>
<path fill-rule="evenodd" clip-rule="evenodd" d="M561.745 449.399C561.636 448.532 561.53 447.666 561.426 446.798L583.668 365.378L609.563 368.683C621.099 370.155 629.699 372.791 635.363 376.591C641.109 380.401 643.523 385.865 642.605 392.983C641.867 398.71 639.527 402.985 635.587 405.809C631.647 408.632 626.929 410.4 621.431 411.112C626.377 412.741 630.19 415.099 632.869 418.185C635.548 421.271 636.523 425.637 635.795 431.282C634.74 439.464 630.578 445.627 623.307 449.772C616.129 453.845 605.095 454.932 590.204 453.031L561.745 449.399ZM613.279 399.843C611.564 401.537 608.374 402.086 603.711 401.491L599.416 400.943L603.65 385.516L607.454 386.002C610.972 386.451 613.41 387.219 614.766 388.307C616.205 389.406 616.798 390.937 616.544 392.9C616.175 395.764 615.087 398.078 613.279 399.843ZM606.501 434.03C604.284 435.743 600.435 436.25 594.953 435.55L590.167 434.939L595.149 416.615L601.163 417.382C608.117 418.27 611.288 421.086 610.676 425.831C610.202 429.513 608.81 432.246 606.501 434.03Z" fill="white"/>
<path fill-rule="evenodd" clip-rule="evenodd" d="M591.045 556.657L597.619 530.319C600.228 519.758 603.795 507.573 608.32 493.763L585.792 543.914C583.217 537.343 580.828 530.724 578.623 524.064L600.044 474.745L631.462 478.754L615.215 560.12L660.712 482.487L690.411 486.278L691.793 573.273L665.53 569.922L666.807 553.245L646.803 550.692L639.267 566.57L592.795 560.639C592.204 559.314 591.62 557.986 591.045 556.657ZM654.727 533.74L668.104 535.448L670.698 499.853L654.727 533.74Z" fill="white"/>
<path d="M641.652 642.128C641.518 641.955 641.384 641.781 641.25 641.608C634.813 633.277 628.761 624.77 623.09 616.11L631.355 586.017L656.146 589.181L647.661 620.157L666.56 622.569L675.045 591.593L699.835 594.757L676.918 678.652L673.223 678.18C667.429 672.317 661.786 666.239 656.304 659.95L661.238 641.599L642.461 639.202L641.652 642.128Z" fill="white"/>
<path d="M724.784 722.091C715.323 715.348 706.113 708.15 697.186 700.502C700.833 700.1 704.707 700.161 708.808 700.684C720.426 702.167 728.869 706.987 734.137 715.144L724.784 722.091Z" fill="white"/>
<path d="M755.228 741.736C748.239 737.67 741.357 733.377 734.593 728.86C738.493 722.935 743.479 718.104 749.551 714.367C757.059 709.67 766.049 707.99 776.522 709.326C788.14 710.809 796.583 715.629 801.851 723.786L787.09 734.75C785.277 732.689 783.364 731.073 781.353 729.901C779.353 728.648 777.043 727.855 774.425 727.52C769.598 726.904 765.412 728.408 761.868 732.03C759.242 734.732 757.029 737.967 755.228 741.736Z" fill="white"/>
<path d="M838.914 778.209C840.735 771.944 842.54 766.629 844.328 762.263C846.352 757.532 849.304 751.089 853.183 742.936L833.212 776.427C828.402 774.883 823.619 773.247 818.865 771.518L849.629 721.151L878.347 724.817L862.044 784.494C854.279 782.634 846.565 780.538 838.914 778.209Z" fill="white"/>
<path fill-rule="evenodd" clip-rule="evenodd" d="M940.528 795.21C940.776 794.201 940.969 793.157 941.108 792.078C941.836 786.433 940.86 782.067 938.181 778.981C935.502 775.895 931.69 773.537 926.744 771.908C932.241 771.196 936.96 769.428 940.9 766.605C944.84 763.781 947.179 759.506 947.917 753.779C948.835 746.661 946.421 741.197 940.675 737.387C935.011 733.587 926.411 730.951 914.875 729.479L888.981 726.174L872.41 786.833C880.466 788.537 888.572 789.992 896.714 791.194L900.462 777.41L906.475 778.178C913.43 779.066 916.601 781.882 915.989 786.627C915.634 789.382 914.765 791.605 913.383 793.297C922.403 794.243 931.457 794.881 940.528 795.21ZM909.023 762.287C913.687 762.882 916.876 762.333 918.592 760.639C920.399 758.874 921.487 756.56 921.857 753.696C922.11 751.733 921.517 750.202 920.079 749.103C918.722 748.015 916.285 747.247 912.767 746.798L908.962 746.312L904.728 761.739L909.023 762.287Z" fill="white"/>
<path d="M973.296 795.049C964.694 795.446 956.089 795.563 947.495 795.402L963.885 735.733L988.675 738.897L980.19 769.873L999.09 772.285L1007.57 741.309L1032.37 744.473L1019.89 790.135C1011 791.608 1002.08 792.774 993.143 793.636L993.767 791.315L974.99 788.918L973.296 795.049Z" fill="white"/>
<path d="M1106.53 765.36C1105.74 763.66 1104.8 762.062 1103.71 760.564C1098.7 753.604 1090.71 749.425 1079.75 748.026C1068.79 746.627 1059.46 748.306 1051.78 753.064C1044.19 757.75 1038.39 764.077 1034.36 772.047C1031.66 777.408 1029.61 782.948 1028.21 788.665C1037.81 786.863 1047.37 784.701 1056.86 782.176C1058.54 777.94 1060.65 774.21 1063.19 770.986C1066.55 766.841 1070.65 765.076 1075.48 765.692C1078.99 766.141 1081.42 767.657 1082.75 770.238C1083.31 771.237 1083.71 772.465 1083.94 773.922C1091.53 771.309 1099.06 768.455 1106.53 765.36Z" fill="white"/>
<path d="M1157.19 739.947L1144.55 738.334L1151.5 712.526C1153.48 705.544 1155.44 699.682 1157.38 694.94C1159.41 690.209 1162.36 683.766 1166.24 675.612L1129.95 736.47L1100.62 732.726L1123.54 648.832L1147.47 651.886L1140.31 677.418C1138.29 684.645 1136.14 691.064 1133.83 696.674C1131.61 702.295 1129 708.033 1126 713.887L1162.68 653.828L1191.4 657.493L1171.27 731.168C1166.62 734.204 1161.93 737.13 1157.19 739.947Z" fill="white"/>
<path d="M817.781 771.123C811.009 768.638 804.298 765.966 797.654 763.107L810.481 716.155L834.412 719.209L827.253 744.741C825.24 751.968 823.081 758.387 820.778 763.998C819.847 766.352 818.848 768.727 817.781 771.123Z" fill="white"/>
<path d="M577.039 519.174C571.938 503.063 567.909 486.726 564.938 470.264L581.759 472.411L577.039 519.174Z" fill="white"/>
<path d="M660.322 461.98L635.532 458.816L658.573 374.938L683.363 378.101L674.878 409.077L693.778 411.489L702.262 380.513L727.053 383.677L704.135 467.572L679.345 464.408L688.455 430.518L669.678 428.122L660.322 461.98Z" fill="white"/>
<path fill-rule="evenodd" clip-rule="evenodd" d="M798.393 399.768C793.386 392.808 785.401 388.629 774.437 387.23C763.474 385.831 754.151 387.51 746.469 392.268C738.879 396.954 733.074 403.281 729.052 411.251C725.031 419.22 722.456 427.581 721.327 436.336C719.892 447.462 721.678 456.505 726.686 463.464C731.775 470.434 739.76 474.613 750.641 476.002C761.686 477.412 771.009 475.732 778.61 470.964C786.21 466.196 792.021 459.828 796.042 451.859C800.064 443.89 802.639 435.528 803.768 426.774C805.202 415.647 803.411 406.645 798.393 399.768ZM757.88 410.19C761.242 406.045 765.336 404.281 770.163 404.897C773.682 405.346 776.106 406.861 777.436 409.442C778.859 411.952 779.222 415.907 778.526 421.307C777.83 426.707 776.565 432.325 774.731 438.162C772.979 444.009 770.422 449.005 767.06 453.149C763.79 457.223 759.742 458.951 754.915 458.335C751.397 457.886 748.932 456.366 747.52 453.774C746.189 451.193 745.878 447.161 746.584 441.68C747.259 436.444 748.468 430.943 750.209 425.177C752.043 419.341 754.6 414.345 757.88 410.19Z" fill="white"/>
<path fill-rule="evenodd" clip-rule="evenodd" d="M887.236 490.94L894.719 460.96C897.328 450.399 900.895 438.213 905.42 424.404L879.875 481.269L856.067 478.23L860.84 418.964C859.693 427.217 858.525 434.012 857.338 439.349C856.243 444.614 854.831 450.089 853.1 455.773L844.405 485.474L819.983 482.357L848.914 399.23L878.859 403.052L873.017 460.934L897.145 405.385L928.562 409.395L912.316 490.761L957.812 413.128L987.512 416.918L988.893 503.914L962.63 500.562L963.907 483.885L943.903 481.332L936.367 497.21L887.236 490.94ZM965.204 466.088L951.827 464.381L967.798 430.494L965.204 466.088Z" fill="white"/>
<path d="M1049.08 422.281C1060.7 423.764 1069.14 428.584 1074.41 436.741L1059.65 447.705C1057.83 445.644 1055.92 444.028 1053.91 442.856C1051.91 441.603 1049.6 440.809 1046.98 440.475C1042.16 439.859 1037.97 441.362 1034.43 444.985C1030.97 448.536 1028.24 453.01 1026.21 458.406C1024.26 463.813 1022.97 469.012 1022.33 474.002C1020.86 485.374 1024.34 491.598 1032.77 492.674C1035.47 493.018 1038.12 492.733 1040.74 491.819C1043.43 490.916 1046.48 489.517 1049.89 487.623L1057.36 503.172C1052.98 506.189 1048.11 508.478 1042.75 510.04C1037.49 511.53 1031.87 511.894 1025.9 511.131C1019.11 510.265 1013.35 508.158 1008.62 504.811C1003.91 501.382 1000.46 496.825 998.287 491.142C996.191 485.469 995.633 478.828 996.614 471.22C997.743 462.465 1000.4 454.114 1004.59 446.166C1008.77 438.218 1014.61 431.936 1022.11 427.321C1029.62 422.625 1038.61 420.945 1049.08 422.281Z" fill="white"/>
<path d="M1142.12 445.383C1136.85 437.226 1128.41 432.406 1116.79 430.923C1106.32 429.587 1097.33 431.267 1089.82 435.963C1082.32 440.578 1076.48 446.86 1072.3 454.808C1068.11 462.756 1065.46 471.107 1064.33 479.862C1063.35 487.47 1063.9 494.111 1066 499.784C1068.18 505.467 1071.62 510.024 1076.34 513.453C1081.06 516.8 1086.82 518.907 1093.61 519.774C1099.58 520.536 1105.2 520.172 1110.47 518.682C1115.82 517.12 1120.69 514.831 1125.07 511.814L1117.6 496.265C1114.19 498.159 1111.15 499.558 1108.45 500.462C1105.84 501.376 1103.18 501.66 1100.48 501.316C1092.05 500.24 1088.57 494.016 1090.04 482.644C1090.68 477.653 1091.98 472.455 1093.92 467.048C1095.95 461.652 1098.69 457.178 1102.14 453.627C1105.68 450.004 1109.87 448.501 1114.7 449.117C1117.31 449.451 1119.62 450.245 1121.62 451.498C1123.64 452.67 1125.55 454.286 1127.36 456.347L1142.12 445.383Z" fill="white"/>
<path d="M1195.7 530.308L1171.77 527.254L1178.71 501.446C1180.7 494.464 1182.66 488.602 1184.6 483.86C1186.62 479.128 1189.58 472.686 1193.45 464.532L1157.17 525.39L1127.83 521.646L1150.75 437.752L1174.68 440.806L1167.52 466.337C1165.51 473.565 1163.35 479.984 1161.05 485.594C1158.83 491.215 1156.22 496.953 1153.22 502.807L1189.9 442.748L1218.62 446.413L1195.7 530.308Z" fill="white"/>
<path fill-rule="evenodd" clip-rule="evenodd" d="M1278.45 500.578C1275.77 497.492 1271.96 495.134 1267.02 493.505C1272.51 492.793 1277.23 491.025 1281.17 488.202C1285.11 485.378 1287.45 481.103 1288.19 475.376C1289.11 468.258 1286.69 462.794 1280.95 458.983C1275.28 455.184 1266.68 452.548 1255.15 451.075L1229.25 447.771L1206.33 531.665L1235.79 535.424C1250.68 537.325 1261.71 536.238 1268.89 532.164C1276.16 528.019 1280.32 521.856 1281.38 513.675C1282.11 508.03 1281.13 503.664 1278.45 500.578ZM1258.86 482.236C1257.15 483.93 1253.96 484.479 1249.29 483.884L1245 483.335L1249.23 467.909L1253.04 468.395C1256.56 468.844 1258.99 469.612 1260.35 470.7C1261.79 471.798 1262.38 473.329 1262.13 475.293C1261.76 478.156 1260.67 480.471 1258.86 482.236ZM1252.08 516.423C1249.87 518.136 1246.02 518.642 1240.54 517.943L1235.75 517.332L1240.73 499.007L1246.75 499.775C1253.7 500.662 1256.87 503.479 1256.26 508.224C1255.79 511.906 1254.39 514.638 1252.08 516.423Z" fill="white"/>
<path d="M777.309 506.1C772.04 497.943 763.597 493.123 751.979 491.641C741.507 490.304 732.517 491.984 725.008 496.681C717.511 501.296 711.67 507.577 707.485 515.526C703.3 523.474 700.643 531.825 699.514 540.579C698.533 548.188 699.09 554.828 701.186 560.501C703.364 566.185 706.81 570.741 711.524 574.17C716.249 577.517 722.006 579.624 728.797 580.491C734.769 581.253 740.388 580.889 745.653 579.399C751.011 577.837 755.88 575.548 760.261 572.531L752.785 556.983C749.38 558.877 746.331 560.275 743.637 561.179C741.024 562.093 738.367 562.378 735.668 562.033C727.24 560.957 723.76 554.734 725.226 543.362C725.87 538.371 727.164 533.172 729.109 527.765C731.135 522.369 733.874 517.896 737.326 514.344C740.87 510.722 745.056 509.219 749.883 509.835C752.501 510.169 754.81 510.962 756.811 512.216C758.822 513.387 760.734 515.003 762.548 517.064L777.309 506.1Z" fill="white"/>
<path d="M819.693 500.282C831.311 501.765 839.754 506.585 845.022 514.742L830.261 525.706C828.448 523.645 826.536 522.029 824.525 520.858C822.524 519.604 820.214 518.811 817.596 518.477C812.769 517.861 808.584 519.364 805.04 522.986C801.588 526.537 798.849 531.011 796.822 536.407C794.878 541.814 793.584 547.013 792.94 552.003C791.474 563.376 794.954 569.599 803.381 570.675C806.081 571.02 808.738 570.735 811.35 569.821C814.045 568.917 817.094 567.519 820.498 565.625L827.974 581.173C823.594 584.19 818.724 586.479 813.367 588.041C808.102 589.531 802.483 589.895 796.511 589.133C789.72 588.266 783.962 586.159 779.238 582.812C774.524 579.383 771.078 574.827 768.9 569.143C766.804 563.47 766.247 556.83 767.228 549.221C768.356 540.467 771.013 532.116 775.198 524.167C779.383 516.219 785.225 509.938 792.722 505.323C800.23 500.626 809.221 498.946 819.693 500.282Z" fill="white"/>
<path d="M874.669 596.613L898.6 599.667L921.518 515.773L892.801 512.108L856.116 572.166C859.116 566.312 861.727 560.575 863.949 554.954C866.253 549.343 868.411 542.924 870.424 535.697L877.583 510.166L853.652 507.111L830.734 591.006L860.065 594.749L896.354 533.892C892.475 542.045 889.524 548.488 887.5 553.219C885.558 557.961 883.596 563.823 881.615 570.805L874.669 596.613Z" fill="white"/>
<path fill-rule="evenodd" clip-rule="evenodd" d="M969.915 562.864C974.861 564.493 978.673 566.851 981.352 569.937C984.032 573.024 985.007 577.389 984.279 583.034C983.224 591.216 979.061 597.379 971.791 601.524C964.613 605.597 953.578 606.684 938.688 604.783L909.234 601.024L932.152 517.13L958.047 520.435C969.583 521.907 978.183 524.543 983.847 528.343C989.592 532.153 992.006 537.617 991.089 544.735C990.35 550.462 988.011 554.737 984.071 557.561C980.131 560.384 975.412 562.152 969.915 562.864ZM952.195 553.243C956.858 553.838 960.047 553.289 961.763 551.595C963.57 549.83 964.659 547.516 965.028 544.652C965.281 542.689 964.689 541.158 963.25 540.059C961.894 538.971 959.456 538.203 955.938 537.754L952.134 537.268L947.899 552.695L952.195 553.243ZM943.437 587.302C948.918 588.002 952.768 587.495 954.984 585.782C957.294 583.998 958.685 581.265 959.16 577.583C959.772 572.838 956.601 570.022 949.646 569.134L943.633 568.367L938.651 586.691L943.437 587.302Z" fill="white"/>
<path d="M984.016 610.568L1008.81 613.732L1018.16 579.874L1036.94 582.271L1027.83 616.16L1052.62 619.324L1075.54 535.429L1050.75 532.265L1042.26 563.241L1023.36 560.829L1031.85 529.853L1007.06 526.69L984.016 610.568Z" fill="white"/>
<path fill-rule="evenodd" clip-rule="evenodd" d="M1122.92 538.982C1133.88 540.381 1141.87 544.561 1146.88 551.52C1151.89 558.397 1153.69 567.399 1152.25 578.526C1151.12 587.28 1148.55 595.642 1144.53 603.611C1140.5 611.58 1134.69 617.948 1127.09 622.717C1119.49 627.485 1110.17 629.164 1099.12 627.754C1088.24 626.365 1080.26 622.186 1075.17 615.216C1070.16 608.257 1068.38 599.214 1069.81 588.088C1070.94 579.333 1073.51 570.972 1077.54 563.003C1081.56 555.034 1087.36 548.706 1094.95 544.02C1102.63 539.262 1111.96 537.583 1122.92 538.982ZM1118.65 556.649C1113.82 556.032 1109.73 557.797 1106.36 561.942C1103.08 566.097 1100.53 571.093 1098.69 576.929C1096.95 582.695 1095.74 588.196 1095.07 593.432C1094.36 598.913 1094.67 602.945 1096 605.526C1097.42 608.118 1099.88 609.638 1103.4 610.087C1108.23 610.703 1112.27 608.975 1115.54 604.901C1118.91 600.757 1121.46 595.761 1123.21 589.914C1125.05 584.077 1126.31 578.459 1127.01 573.059C1127.71 567.659 1127.34 563.704 1125.92 561.194C1124.59 558.613 1122.17 557.098 1118.65 556.649Z" fill="white"/>
<path d="M802.181 187.444C796.912 179.287 788.469 174.467 776.851 172.984C766.379 171.648 757.388 173.328 749.88 178.025C742.383 182.639 736.541 188.921 732.356 196.869C728.171 204.817 725.515 213.169 724.386 221.923C723.405 229.531 723.962 236.172 726.058 241.845C728.236 247.528 731.682 252.085 736.396 255.514C741.12 258.861 746.878 260.968 753.669 261.835C759.641 262.597 765.26 262.233 770.525 260.743C775.882 259.181 780.751 256.892 785.132 253.875L777.657 238.326C774.252 240.22 771.203 241.619 768.508 242.523C765.896 243.437 763.239 243.721 760.539 243.377C752.112 242.301 748.632 236.078 750.098 224.705C750.742 219.715 752.036 214.516 753.98 209.109C756.007 203.713 758.746 199.239 762.198 195.688C765.742 192.066 769.927 190.562 774.754 191.178C777.373 191.513 779.682 192.306 781.683 193.559C783.694 194.731 785.606 196.347 787.419 198.408L802.181 187.444Z" fill="white"/>
<path d="M844.565 181.626C856.183 183.109 864.626 187.929 869.894 196.086L855.133 207.05C853.32 204.989 851.408 203.373 849.396 202.201C847.396 200.948 845.086 200.154 842.468 199.82C837.641 199.204 833.455 200.707 829.911 204.33C826.46 207.881 823.72 212.355 821.694 217.751C819.749 223.158 818.455 228.357 817.812 233.347C816.346 244.72 819.826 250.943 828.253 252.019C830.953 252.363 833.609 252.079 836.222 251.165C838.916 250.261 841.966 248.862 845.37 246.968L852.846 262.517C848.465 265.534 843.596 267.823 838.239 269.385C832.974 270.875 827.355 271.239 821.382 270.477C814.591 269.61 808.834 267.503 804.11 264.156C799.396 260.727 795.95 256.17 793.772 250.487C791.676 244.814 791.118 238.173 792.1 230.565C793.228 221.811 795.885 213.46 800.07 205.511C804.255 197.563 810.096 191.281 817.594 186.666C825.102 181.97 834.092 180.29 844.565 181.626Z" fill="white"/>
<path d="M899.541 277.957L923.472 281.011L946.39 197.117L917.672 193.452L880.988 253.51C883.988 247.656 886.599 241.918 888.821 236.297C891.124 230.687 893.283 224.268 895.296 217.041L902.455 191.509L878.524 188.455L855.606 272.35L884.937 276.093L921.225 215.236C917.347 223.389 914.395 229.832 912.371 234.563C910.429 239.305 908.468 245.167 906.486 252.149L899.541 277.957Z" fill="white"/>
<path fill-rule="evenodd" clip-rule="evenodd" d="M994.787 244.208C999.732 245.837 1003.55 248.195 1006.22 251.281C1008.9 254.367 1009.88 258.733 1009.15 264.378C1008.1 272.56 1003.93 278.723 996.663 282.868C989.484 286.941 978.45 288.028 963.56 286.127L934.106 282.368L957.024 198.474L982.918 201.779C994.454 203.251 1003.05 205.887 1008.72 209.687C1014.46 213.497 1016.88 218.961 1015.96 226.079C1015.22 231.806 1012.88 236.081 1008.94 238.905C1005 241.728 1000.28 243.496 994.787 244.208ZM977.066 234.587C981.73 235.182 984.919 234.633 986.635 232.939C988.442 231.174 989.531 228.86 989.9 225.996C990.153 224.033 989.56 222.502 988.122 221.403C986.765 220.315 984.328 219.547 980.81 219.098L977.005 218.612L972.771 234.039L977.066 234.587ZM968.309 268.646C973.79 269.345 977.639 268.839 979.856 267.126C982.165 265.342 983.557 262.609 984.032 258.927C984.644 254.182 981.473 251.366 974.518 250.478L968.505 249.711L963.522 268.035L968.309 268.646Z" fill="white"/>
<path d="M1008.89 291.912L1033.68 295.076L1043.03 261.218L1061.81 263.614L1052.7 297.504L1077.49 300.668L1100.41 216.773L1075.62 213.609L1067.13 244.585L1048.23 242.173L1056.72 211.197L1031.93 208.033L1008.89 291.912Z" fill="white"/>
<path fill-rule="evenodd" clip-rule="evenodd" d="M1147.79 220.326C1158.76 221.725 1166.74 225.904 1171.75 232.863C1176.77 239.741 1178.56 248.743 1177.12 259.87C1175.99 268.624 1173.42 276.985 1169.4 284.955C1165.38 292.924 1159.57 299.292 1151.97 304.06C1144.36 308.828 1135.04 310.508 1124 309.098C1113.12 307.709 1105.13 303.53 1100.04 296.56C1095.03 289.601 1093.25 280.558 1094.68 269.431C1095.81 260.677 1098.39 252.316 1102.41 244.347C1106.43 236.377 1112.23 230.05 1119.82 225.363C1127.51 220.606 1136.83 218.927 1147.79 220.326ZM1143.52 237.993C1138.69 237.376 1134.6 239.141 1131.24 243.286C1127.96 247.441 1125.4 252.437 1123.56 258.273C1121.82 264.039 1120.62 269.539 1119.94 274.776C1119.23 280.257 1119.54 284.289 1120.88 286.87C1122.29 289.462 1124.75 290.982 1128.27 291.431C1133.1 292.047 1137.15 290.319 1140.42 286.245C1143.78 282.1 1146.33 277.105 1148.09 271.257C1149.92 265.421 1151.19 259.803 1151.88 254.403C1152.58 249.003 1152.21 245.048 1150.79 242.538C1149.46 239.957 1147.04 238.442 1143.52 237.993Z" fill="white"/>
<path fill-rule="evenodd" clip-rule="evenodd" d="M839.219 83.1475C834.212 76.1883 826.227 72.0091 815.263 70.6099C804.3 69.2107 794.977 70.89 787.295 75.6476C779.705 80.3338 773.899 86.6614 769.878 94.6305C765.857 102.6 763.282 110.961 762.153 119.715C760.718 130.842 762.504 139.885 767.511 146.844C772.6 153.814 780.586 157.993 791.467 159.382C802.512 160.792 811.835 159.112 819.435 154.344C827.036 149.576 832.847 143.208 836.868 135.239C840.89 127.269 843.465 118.908 844.593 110.154C846.028 99.027 844.237 90.0249 839.219 83.1475ZM798.706 93.5695C802.068 89.4248 806.162 87.6606 810.989 88.2766C814.507 88.7256 816.932 90.2408 818.262 92.8222C819.685 95.3323 820.048 99.2872 819.352 104.687C818.656 110.087 817.39 115.705 815.557 121.541C813.805 127.389 811.248 132.384 807.886 136.529C804.616 140.603 800.568 142.331 795.741 141.715C792.223 141.266 789.758 139.746 788.345 137.154C787.015 134.572 786.703 130.541 787.41 125.059C788.085 119.823 789.294 114.323 791.035 108.557C792.869 102.721 795.426 97.7247 798.706 93.5695Z" fill="white"/>
<path fill-rule="evenodd" clip-rule="evenodd" d="M747.22 598.31C758.183 599.709 766.169 603.888 771.176 610.848C776.194 617.725 777.985 626.727 776.55 637.854C775.422 646.608 772.847 654.969 768.825 662.939C764.804 670.908 758.993 677.276 751.393 682.044C743.792 686.812 734.469 688.492 723.424 687.082C712.543 685.693 704.557 681.514 699.468 674.544C694.461 667.585 692.675 658.542 694.11 647.415C695.239 638.661 697.814 630.3 701.835 622.331C705.856 614.362 711.662 608.034 719.252 603.348C726.934 598.59 736.257 596.911 747.22 598.31ZM742.946 615.977C738.119 615.361 734.025 617.125 730.663 621.27C727.383 625.425 724.826 630.421 722.992 636.257C721.251 642.023 720.042 647.523 719.367 652.76C718.66 658.241 718.972 662.273 720.303 664.854C721.715 667.446 724.18 668.966 727.698 669.415C732.525 670.031 736.573 668.303 739.843 664.229C743.205 660.085 745.762 655.089 747.514 649.242C749.348 643.405 750.612 637.787 751.309 632.387C752.005 626.987 751.642 623.032 750.219 620.522C748.889 617.941 746.464 616.426 742.946 615.977Z" fill="white"/>
<path fill-rule="evenodd" clip-rule="evenodd" d="M928.062 174.32L977.193 180.59L984.729 164.712L1004.73 167.265L1003.46 183.942L1029.72 187.294L1028.34 100.298L998.638 96.5079L953.142 174.14L969.388 92.7748L937.97 88.7652L913.843 144.314L919.685 86.4315L889.74 82.6099L860.809 165.737L885.231 168.854L893.926 139.152C895.657 133.469 897.069 127.994 898.164 122.729C899.351 117.392 900.518 110.597 901.666 102.344L896.893 161.61L920.701 164.649L946.246 107.784C941.721 121.593 938.154 133.778 935.545 144.34L928.062 174.32ZM992.653 147.761L1006.03 149.468L1008.62 113.874L992.653 147.761Z" fill="white"/>
<path d="M1115.23 120.12C1109.97 111.964 1101.52 107.144 1089.91 105.661C1079.43 104.325 1070.44 106.005 1062.93 110.701C1055.44 115.316 1049.6 121.598 1045.41 129.546C1041.23 137.494 1038.57 145.845 1037.44 154.6C1036.46 162.208 1037.02 168.849 1039.11 174.522C1041.29 180.205 1044.74 184.762 1049.45 188.191C1054.17 191.538 1059.93 193.645 1066.72 194.511C1072.7 195.274 1078.31 194.91 1083.58 193.419C1088.94 191.858 1093.81 189.569 1098.19 186.552L1090.71 171.003C1087.31 172.897 1084.26 174.296 1081.56 175.199C1078.95 176.113 1076.29 176.398 1073.59 176.054C1065.17 174.978 1061.69 168.754 1063.15 157.382C1063.8 152.392 1065.09 147.193 1067.03 141.786C1069.06 136.39 1071.8 131.916 1075.25 128.365C1078.8 124.742 1082.98 123.239 1087.81 123.855C1090.43 124.189 1092.74 124.983 1094.74 126.236C1096.75 127.408 1098.66 129.024 1100.47 131.085L1115.23 120.12Z" fill="white"/>
<path d="M1157.62 114.303C1169.24 115.786 1177.68 120.606 1182.95 128.763L1168.19 139.727C1166.37 137.666 1164.46 136.05 1162.45 134.878C1160.45 133.625 1158.14 132.831 1155.52 132.497C1150.7 131.881 1146.51 133.384 1142.97 137.007C1139.51 140.558 1136.77 145.032 1134.75 150.428C1132.8 155.835 1131.51 161.033 1130.87 166.024C1129.4 177.396 1132.88 183.62 1141.31 184.696C1144.01 185.04 1146.66 184.756 1149.28 183.842C1151.97 182.938 1155.02 181.539 1158.42 179.645L1165.9 195.194C1161.52 198.211 1156.65 200.5 1151.29 202.061C1146.03 203.552 1140.41 203.916 1134.44 203.154C1127.65 202.287 1121.89 200.18 1117.16 196.833C1112.45 193.404 1109 188.847 1106.83 183.164C1104.73 177.491 1104.17 170.85 1105.15 163.241C1106.28 154.487 1108.94 146.136 1113.12 138.188C1117.31 130.24 1123.15 123.958 1130.65 119.343C1138.16 114.647 1147.15 112.967 1157.62 114.303Z" fill="white"/>
<path fill-rule="evenodd" clip-rule="evenodd" d="M860.019 702.02L867.502 672.039C870.111 661.478 873.678 649.293 878.203 635.484L852.658 692.349L828.85 689.31L833.623 630.044C832.475 638.297 831.308 645.092 830.121 650.429C829.026 655.694 827.613 661.169 825.883 666.853L817.188 696.554L792.766 693.437L821.697 610.31L851.642 614.132L845.8 672.014L869.927 616.465L901.345 620.475L885.098 701.841L930.595 624.208L960.294 627.998L961.676 714.994L935.413 711.642L936.69 694.965L916.686 692.412L909.15 708.29L860.019 702.02ZM937.987 677.168L924.61 675.461L940.581 641.574L937.987 677.168Z" fill="white"/>
<path d="M1021.86 633.361C1033.48 634.844 1041.92 639.664 1047.19 647.821L1032.43 658.785C1030.62 656.724 1028.71 655.108 1026.69 653.936C1024.69 652.683 1022.38 651.889 1019.77 651.555C1014.94 650.939 1010.75 652.442 1007.21 656.065C1003.76 659.616 1001.02 664.09 998.992 669.486C997.047 674.893 995.753 680.092 995.11 685.082C993.643 696.454 997.123 702.678 1005.55 703.753C1008.25 704.098 1010.91 703.814 1013.52 702.9C1016.21 701.996 1019.26 700.597 1022.67 698.703L1030.14 714.252C1025.76 717.269 1020.89 719.558 1015.54 721.12C1010.27 722.61 1004.65 722.974 998.68 722.212C991.889 721.345 986.131 719.238 981.407 715.891C976.693 712.462 973.247 707.906 971.069 702.222C968.973 696.549 968.416 689.908 969.397 682.299C970.526 673.545 973.183 665.194 977.368 657.246C981.553 649.298 987.394 643.016 994.891 638.401C1002.4 633.705 1011.39 632.025 1021.86 633.361Z" fill="white"/>
<path d="M1114.91 656.463C1109.64 648.306 1101.19 643.486 1089.58 642.003C1079.1 640.667 1070.11 642.347 1062.61 647.043C1055.11 651.658 1049.27 657.94 1045.08 665.888C1040.9 673.836 1038.24 682.188 1037.11 690.942C1036.13 698.55 1036.69 705.191 1038.78 710.864C1040.96 716.547 1044.41 721.104 1049.12 724.533C1053.85 727.88 1059.6 729.987 1066.39 730.853C1072.37 731.616 1077.98 731.252 1083.25 729.762C1088.61 728.2 1093.48 725.911 1097.86 722.894L1090.38 707.345C1086.98 709.239 1083.93 710.638 1081.23 711.541C1078.62 712.455 1075.96 712.74 1073.26 712.396C1064.84 711.32 1061.36 705.096 1062.82 693.724C1063.47 688.734 1064.76 683.535 1066.71 678.128C1068.73 672.732 1071.47 668.258 1074.92 664.707C1078.47 661.085 1082.65 659.581 1087.48 660.197C1090.1 660.531 1092.41 661.325 1094.41 662.578C1096.42 663.75 1098.33 665.366 1100.14 667.427L1114.91 656.463Z" fill="white"/>
<path fill-rule="evenodd" clip-rule="evenodd" d="M635.04 305.572C639.986 307.201 643.798 309.559 646.477 312.645C649.156 315.731 650.132 320.097 649.404 325.742C648.349 333.924 644.186 340.087 636.916 344.232C629.738 348.305 618.703 349.392 603.813 347.491L574.359 343.732L597.277 259.838L623.171 263.143C634.707 264.615 643.307 267.251 648.971 271.051C654.717 274.861 657.131 280.325 656.214 287.443C655.475 293.17 653.136 297.445 649.196 300.269C645.256 303.092 640.537 304.86 635.04 305.572ZM617.319 295.951C621.983 296.546 625.172 295.997 626.888 294.303C628.695 292.538 629.784 290.224 630.153 287.36C630.406 285.397 629.814 283.866 628.375 282.767C627.018 281.679 624.581 280.911 621.063 280.462L617.258 279.976L613.024 295.403L617.319 295.951ZM608.562 330.01C614.043 330.71 617.893 330.203 620.109 328.49C622.418 326.706 623.81 323.973 624.285 320.291C624.897 315.546 621.726 312.73 614.771 311.842L608.758 311.075L603.775 329.399L608.562 330.01Z" fill="white"/>
<path d="M649.141 353.276L673.931 356.44L683.287 322.582L702.063 324.979L692.953 358.868L717.743 362.032L740.661 278.137L715.871 274.973L707.386 305.949L688.487 303.537L696.972 272.561L672.181 269.397L649.141 353.276Z" fill="white"/>
<path fill-rule="evenodd" clip-rule="evenodd" d="M788.046 281.69C799.009 283.089 806.995 287.268 812.002 294.228C817.019 301.105 818.811 310.107 817.376 321.234C816.247 329.988 813.672 338.349 809.651 346.319C805.63 354.288 799.819 360.656 792.218 365.424C784.618 370.192 775.295 371.872 764.25 370.462C753.368 369.073 745.383 364.894 740.294 357.924C735.287 350.965 733.501 341.922 734.936 330.795C736.064 322.041 738.639 313.68 742.661 305.711C746.682 297.742 752.488 291.414 760.078 286.728C767.76 281.97 777.083 280.291 788.046 281.69ZM783.772 299.357C778.945 298.741 774.85 300.505 771.488 304.65C768.208 308.805 765.651 313.801 763.818 319.637C762.076 325.403 760.868 330.903 760.193 336.14C759.486 341.621 759.798 345.653 761.128 348.234C762.541 350.826 765.006 352.346 768.524 352.795C773.351 353.411 777.399 351.683 780.669 347.609C784.031 343.465 786.588 338.469 788.34 332.622C790.173 326.785 791.438 321.167 792.134 315.767C792.831 310.367 792.467 306.412 791.045 303.902C789.714 301.321 787.29 299.806 783.772 299.357Z" fill="white"/>
<path fill-rule="evenodd" clip-rule="evenodd" d="M900.844 385.4L949.976 391.67L957.512 375.792L977.516 378.345L976.239 395.022L1002.5 398.374L1001.12 311.378L971.421 307.588L925.924 385.221L942.171 303.855L910.753 299.845L886.626 355.394L892.467 297.512L862.523 293.69L833.592 376.817L858.014 379.934L866.708 350.233C868.439 344.549 869.852 339.074 870.947 333.809C872.134 328.472 873.301 321.677 874.449 313.424L869.676 372.69L893.484 375.729L919.029 318.864C914.504 332.673 910.937 344.858 908.328 355.419L900.844 385.4ZM965.436 358.841L978.813 360.548L981.407 324.954L965.436 358.841Z" fill="white"/>
<path d="M1088.02 331.2C1082.75 323.044 1074.31 318.224 1062.69 316.741C1052.22 315.405 1043.23 317.085 1035.72 321.781C1028.22 326.396 1022.38 332.678 1018.19 340.626C1014.01 348.574 1011.35 356.925 1010.22 365.679C1009.24 373.288 1009.8 379.929 1011.9 385.602C1014.07 391.285 1017.52 395.842 1022.23 399.271C1026.96 402.618 1032.71 404.725 1039.51 405.592C1045.48 406.354 1051.1 405.99 1056.36 404.5C1061.72 402.938 1066.59 400.649 1070.97 397.632L1063.49 382.083C1060.09 383.977 1057.04 385.376 1054.35 386.28C1051.73 387.193 1049.08 387.478 1046.38 387.134C1037.95 386.058 1034.47 379.834 1035.94 368.462C1036.58 363.471 1037.87 358.273 1039.82 352.866C1041.84 347.47 1044.58 342.996 1048.03 339.445C1051.58 335.822 1055.76 334.319 1060.59 334.935C1063.21 335.269 1065.52 336.063 1067.52 337.316C1069.53 338.488 1071.44 340.104 1073.26 342.165L1088.02 331.2Z" fill="white"/>
<path d="M1130.4 325.383C1142.02 326.866 1150.46 331.686 1155.73 339.843L1140.97 350.807C1139.16 348.746 1137.24 347.13 1135.23 345.958C1133.23 344.705 1130.92 343.911 1128.31 343.577C1123.48 342.961 1119.29 344.464 1115.75 348.087C1112.3 351.638 1109.56 356.112 1107.53 361.508C1105.59 366.915 1104.29 372.114 1103.65 377.104C1102.18 388.476 1105.66 394.7 1114.09 395.776C1116.79 396.12 1119.45 395.835 1122.06 394.922C1124.75 394.018 1127.8 392.619 1131.21 390.725L1138.68 406.274C1134.3 409.291 1129.43 411.58 1124.08 413.142C1118.81 414.632 1113.19 414.996 1107.22 414.233C1100.43 413.367 1094.67 411.26 1089.95 407.913C1085.23 404.484 1081.79 399.927 1079.61 394.244C1077.51 388.571 1076.96 381.93 1077.94 374.322C1079.07 365.567 1081.72 357.216 1085.91 349.268C1090.09 341.32 1095.93 335.038 1103.43 330.423C1110.94 325.727 1119.93 324.047 1130.4 325.383Z" fill="white"/>
<path d="M1185.38 421.714L1209.31 424.768L1232.23 340.873L1203.51 337.208L1166.83 397.267C1169.83 391.413 1172.44 385.675 1174.66 380.054C1176.96 374.444 1179.12 368.025 1181.13 360.797L1188.29 335.266L1164.36 332.212L1141.44 416.106L1170.77 419.85L1207.06 358.992C1203.18 367.146 1200.23 373.588 1198.21 378.32C1196.27 383.062 1194.3 388.924 1192.32 395.906L1185.38 421.714Z" fill="white"/>
<path fill-rule="evenodd" clip-rule="evenodd" d="M1280.62 387.965C1285.57 389.594 1289.38 391.952 1292.06 395.038C1294.74 398.124 1295.72 402.49 1294.99 408.135C1293.93 416.316 1289.77 422.48 1282.5 426.624C1275.32 430.698 1264.29 431.784 1249.4 429.884L1219.94 426.125L1242.86 342.23L1268.76 345.535C1280.29 347.008 1288.89 349.644 1294.56 353.443C1300.3 357.254 1302.72 362.718 1301.8 369.836C1301.06 375.563 1298.72 379.838 1294.78 382.661C1290.84 385.485 1286.12 387.253 1280.62 387.965ZM1262.9 378.344C1267.57 378.939 1270.76 378.39 1272.47 376.696C1274.28 374.931 1275.37 372.616 1275.74 369.753C1275.99 367.789 1275.4 366.258 1273.96 365.16C1272.6 364.072 1270.17 363.304 1266.65 362.855L1262.84 362.369L1258.61 377.795L1262.9 378.344ZM1254.15 412.403C1259.63 413.102 1263.48 412.596 1265.69 410.883C1268 409.098 1269.39 406.366 1269.87 402.684C1270.48 397.939 1267.31 395.122 1260.36 394.235L1254.34 393.467L1249.36 411.792L1254.15 412.403Z" fill="white"/>
<path d="M1270.12 119.391C1264.21 120.361 1260.44 120.359 1258.83 119.386C1257.24 118.386 1257.99 116.518 1261.07 113.783C1263.41 111.712 1266.64 109.481 1270.77 107.092C1274.94 104.675 1279.8 102.425 1285.36 100.342C1290.95 98.2316 1296.81 96.6746 1302.92 95.6713C1308.9 94.6902 1312.68 94.678 1314.26 95.6345C1315.91 96.5799 1315.2 98.4199 1312.11 101.155C1309.81 103.199 1306.56 105.443 1302.36 107.887C1298.27 110.293 1293.41 112.565 1287.78 114.703C1282.19 116.814 1276.3 118.376 1270.12 119.391ZM1272.14 117.675C1277.17 116.85 1282.01 115.527 1286.67 113.704C1291.32 111.882 1295.39 109.92 1298.87 107.819C1302.44 105.679 1305.26 103.697 1307.31 101.874C1309.84 99.6369 1310.53 98.1388 1309.39 97.3799C1308.28 96.5935 1305.49 96.5682 1301 97.3039C1295.9 98.14 1291.01 99.4831 1286.32 101.333C1281.7 103.172 1277.62 105.147 1274.07 107.26C1270.6 109.361 1267.85 111.309 1265.82 113.105C1263.3 115.342 1262.59 116.854 1263.7 117.641C1264.84 118.4 1267.65 118.411 1272.14 117.675Z" fill="white"/>
<path d="M1343.53 108.125L1339.03 108.732L1357.02 97.1022C1353.17 98.5858 1349.38 99.8386 1345.64 100.861C1341.94 101.854 1338.46 102.571 1335.2 103.011C1331.3 103.539 1328.71 103.525 1327.44 102.968C1326.27 102.374 1326.79 101.223 1328.99 99.5159C1329.69 98.9752 1330.3 98.5395 1330.84 98.2089L1344.05 89.6565L1348.54 89.0493L1335.49 97.4737C1335 97.7758 1334.4 98.1973 1333.7 98.738C1330.51 101.214 1332.04 102.029 1338.29 101.185C1341.48 100.754 1345 99.9842 1348.84 98.8768C1352.79 97.7321 1356.77 96.337 1360.78 94.6915L1375.01 85.4724L1379.5 84.8653L1343.53 108.125Z" fill="white"/>
<path d="M1430.47 83.399C1426.58 86.1024 1420.66 88.4639 1412.7 90.4833C1404.85 92.4672 1395.19 94.2089 1383.72 95.7085L1383.09 96.1445C1379.5 98.6444 1377.97 100.385 1378.51 101.365C1379.15 102.31 1381.48 102.571 1385.51 102.148C1388.11 101.875 1390.74 101.439 1393.39 100.84C1396.1 100.235 1399.25 99.3985 1402.84 98.331L1402.82 99.5554C1398.92 100.73 1395.33 101.686 1392.06 102.424C1388.83 103.133 1385.73 103.644 1382.76 103.956C1377.3 104.528 1374.18 104.188 1373.4 102.937C1372.67 101.657 1374.39 99.5631 1378.57 96.6561C1381.87 94.3597 1386.03 91.9979 1391.04 89.571C1396.06 87.1442 1401.44 85.0122 1407.18 83.1752C1413.03 81.3025 1418.68 80.0802 1424.14 79.5081C1428.48 79.0531 1431.15 79.2042 1432.17 79.9616C1433.29 80.6834 1432.72 81.8292 1430.47 83.399ZM1421.69 81.2087C1417.67 81.6313 1413.47 82.5153 1409.12 83.8609C1404.87 85.1709 1400.76 86.7243 1396.81 88.5212C1392.92 90.3117 1389.45 92.1453 1386.38 94.0222C1396.69 92.6688 1405.11 91.1684 1411.64 89.5211C1418.16 87.8738 1422.91 86.0182 1425.88 83.9542C1427.47 82.8496 1427.96 82.0329 1427.35 81.5043C1426.74 80.9757 1424.85 80.8771 1421.69 81.2087Z" fill="white"/>
<path d="M1444.65 98.2429L1465.41 86.9132L1441.46 88.5819L1420.69 99.9116L1416.67 100.192L1459.78 76.635L1463.81 76.3549L1444.79 86.7749L1468.75 85.1061L1487.76 74.6861L1491.78 74.406L1448.67 97.9627L1444.65 98.2429Z" fill="white"/>
<path d="M1511.54 81.0899C1516.59 80.9395 1519.3 81.4229 1519.68 82.5399C1520.12 83.6271 1518.61 85.1672 1515.16 87.16C1512.49 88.7067 1509.29 90.2124 1505.58 91.6773C1501.91 93.1125 1497.93 94.3315 1493.62 95.3344C1489.37 96.3075 1485.15 96.8563 1480.97 96.9808C1477.02 97.0988 1473.61 96.8193 1470.77 96.1423L1515.68 73.3923L1519.42 73.2807L1503.57 81.3275L1511.54 81.0899ZM1484.06 95.1962C1489.05 95.0474 1493.94 94.1964 1498.74 92.6429C1503.59 91.0878 1507.79 89.2841 1511.34 87.2318C1516.79 84.0789 1515.8 82.6133 1508.37 82.8347L1500.07 83.0821L1477.16 94.7248C1479.21 95.115 1481.51 95.2722 1484.06 95.1962Z" fill="white"/>
<path d="M1559.73 97.2075L1556.46 97.0589L1603.13 75.7985L1587.74 75.0975L1568.35 83.3846C1559.56 87.1568 1553.23 89.8119 1549.36 91.35C1545.53 92.8901 1542.25 94.0344 1539.5 94.7827C1536.81 95.5013 1533.93 96.001 1530.86 96.2817L1533.82 94.5243C1535.96 94.2982 1538.04 93.8916 1540.06 93.3043C1542.19 92.6894 1544.97 91.6841 1548.41 90.2882C1551.91 88.8625 1557.64 86.4386 1565.59 83.0164L1588.44 73.189L1610.3 74.1838L1559.73 97.2075Z" fill="white"/>
<path d="M1640.08 83.0864C1634.35 85.8237 1627.98 87.679 1620.95 88.6521C1614.03 89.6004 1606.45 89.8459 1598.2 89.3885L1597.28 89.83C1591.99 92.3612 1588.83 94.3297 1587.81 95.7354C1586.9 97.1162 1587.82 97.9554 1590.58 98.2531C1592.36 98.4455 1594.37 98.4281 1596.61 98.2012C1598.9 97.9789 1601.73 97.5449 1605.11 96.8994L1603.46 98.5075C1599.77 99.2276 1596.54 99.7269 1593.78 100.006C1591.07 100.255 1588.7 100.269 1586.67 100.05C1582.94 99.6465 1581.69 98.5381 1582.94 96.7243C1584.25 94.881 1587.98 92.4877 1594.14 89.5444C1599 87.2191 1604.42 84.9897 1610.39 82.8562C1616.36 80.7226 1622.13 79.0551 1627.71 77.8536C1633.39 76.6273 1638.1 76.2156 1641.83 76.6186C1644.8 76.9392 1646.05 77.7062 1645.6 78.9195C1645.24 80.1081 1643.4 81.497 1640.08 83.0864ZM1638.23 78.3405C1635.47 78.0428 1632.01 78.3185 1627.85 79.1674C1623.78 79.9915 1619.48 81.1681 1614.93 82.6973C1610.42 84.2311 1606.08 85.9091 1601.9 87.7314C1609.32 88.1358 1615.91 87.9449 1621.66 87.1588C1627.41 86.3727 1632.47 84.9348 1636.84 82.845C1639.18 81.7265 1640.54 80.7546 1640.91 79.9291C1641.29 79.1036 1640.39 78.5741 1638.23 78.3405Z" fill="white"/>
<path d="M1672.44 81.1694C1674.9 81.6083 1675.8 82.4593 1675.15 83.7225C1674.57 84.9567 1672.6 86.3282 1669.24 87.8368C1665.95 89.3165 1662.35 90.5184 1658.45 91.4426C1654.65 92.3445 1650.01 92.853 1644.54 92.9679C1640.88 93.0021 1637.66 93.2167 1634.88 93.612C1632.2 93.9849 1629.9 94.4645 1627.96 95.0508C1626.13 95.6148 1624.27 96.3175 1622.4 97.1589C1619.63 98.4064 1618.05 99.5042 1617.69 100.452C1617.38 101.371 1618.19 102.003 1620.11 102.347C1622 102.685 1624.17 102.789 1626.62 102.66C1629.17 102.508 1632.09 102.158 1635.36 101.609L1633.72 103.201C1626.08 104.551 1620.2 104.857 1616.09 104.122C1613.37 103.636 1612.26 102.726 1612.74 101.393C1613.33 100.038 1615.63 98.4614 1619.63 96.6627C1623.31 95.009 1627.29 93.7146 1631.59 92.7796C1635.99 91.8224 1641.09 91.2955 1646.89 91.1987C1651.52 91.1343 1655.28 90.7725 1658.17 90.1135C1661.16 89.4321 1663.94 88.5112 1666.53 87.3507C1668.85 86.3063 1670.17 85.367 1670.5 84.5329C1670.86 83.7056 1670.2 83.1401 1668.5 82.8363C1667.03 82.573 1665.26 82.5006 1663.21 82.6192C1661.15 82.7378 1658.57 83.046 1655.46 83.5438L1657.21 81.972C1663.97 80.8293 1669.05 80.5618 1672.44 81.1694Z" fill="white"/>
<path d="M1706.56 91.6722C1704.57 91.7396 1702.71 91.9351 1700.98 92.2585C1699.35 92.5623 1696.51 93.2163 1692.47 94.2202L1674.99 98.5088L1654.53 112.265L1652.06 111.599L1671.06 98.7727L1666.88 97.6398L1639.17 108.107L1636.9 107.494L1693.13 86.2183L1695.39 86.8314L1671.05 96.0431L1675.14 97.1494L1694.01 92.5409C1698.15 91.5174 1701.22 90.8333 1703.22 90.4886C1705.22 90.1439 1707.29 89.96 1709.45 89.9369L1706.56 91.6722Z" fill="white"/>
<path d="M1668.76 118.288C1666.4 117.315 1666.46 115.795 1668.96 113.729C1671.52 111.635 1676.25 109.221 1683.14 106.488C1688.37 104.417 1693.98 102.478 1699.97 100.671C1706.04 98.8358 1711.68 97.5248 1716.87 96.7379C1722.14 95.9234 1726 96.0194 1728.45 97.026C1730.85 98.0102 1730.82 99.5162 1728.36 101.544C1725.94 103.583 1721.28 105.969 1714.38 108.702C1709.23 110.745 1703.59 112.698 1697.45 114.561C1691.41 116.407 1685.72 117.751 1680.38 118.593C1675.11 119.408 1671.24 119.306 1668.76 118.288ZM1673.09 116.607C1675.1 117.435 1678.38 117.463 1682.93 116.691C1687.49 115.919 1692.4 114.706 1697.68 113.052C1703.05 111.382 1708.04 109.636 1712.63 107.814C1718.27 105.578 1722.07 103.678 1724.01 102.116C1726.02 100.526 1726.13 99.3625 1724.34 98.6243C1722.3 97.7855 1718.97 97.7658 1714.34 98.5653C1709.75 99.376 1704.8 100.603 1699.5 102.245C1694.22 103.899 1689.32 105.623 1684.79 107.417C1679.15 109.654 1675.32 111.567 1673.31 113.156C1671.37 114.719 1671.29 115.869 1673.09 116.607Z" fill="white"/>
<path d="M1699.83 135.632C1698.27 134.353 1699.06 132.641 1702.17 130.495C1705.36 128.324 1710.55 125.956 1717.74 123.392C1723.18 121.449 1728.89 119.684 1734.87 118.098C1740.93 116.485 1746.36 115.432 1751.17 114.938C1756.05 114.418 1759.3 114.819 1760.9 116.143C1762.47 117.437 1761.73 119.136 1758.67 121.241C1755.62 123.36 1750.51 125.702 1743.32 128.267C1737.95 130.184 1732.2 131.962 1726.08 133.6C1720.04 135.227 1714.54 136.313 1709.59 136.859C1704.71 137.38 1701.45 136.97 1699.83 135.632ZM1704.32 134.061C1705.64 135.149 1708.43 135.43 1712.68 134.904C1716.93 134.377 1721.7 133.381 1726.99 131.913C1732.38 130.434 1737.46 128.84 1742.25 127.13C1748.13 125.032 1752.28 123.174 1754.68 121.557C1757.16 119.914 1757.81 118.607 1756.63 117.636C1755.29 116.533 1752.46 116.258 1748.14 116.81C1743.83 117.377 1739.02 118.387 1733.71 119.84C1728.42 121.308 1723.41 122.883 1718.7 124.567C1712.82 126.665 1708.64 128.536 1706.16 130.179C1703.75 131.797 1703.14 133.091 1704.32 134.061Z" fill="white"/>
<path d="M1716.89 152.643L1716.09 151.483L1745.64 142.791C1742.19 143.194 1739.39 143.287 1737.24 143.071C1735.16 142.83 1733.83 142.29 1733.24 141.449C1732.54 140.439 1733.11 139.243 1734.97 137.858C1736.91 136.466 1740.09 135.032 1744.52 133.557C1745.93 133.09 1747.04 132.738 1747.88 132.501L1769.62 126.102L1770.43 127.263L1749.02 133.551C1748.26 133.763 1747.18 134.103 1745.77 134.57C1739.35 136.709 1736.7 138.586 1737.83 140.201C1738.4 141.025 1739.88 141.508 1742.25 141.65C1744.71 141.785 1747.88 141.569 1751.76 141.002L1775.19 134.1L1776 135.26L1716.89 152.643Z" fill="white"/>
<path d="M1769.67 156.286C1762.74 158.44 1757.21 159.174 1753.07 158.488C1749.02 157.798 1746.03 155.935 1744.11 152.898L1742.99 153.245C1736.59 155.237 1731.92 157.066 1729.01 158.732C1726.17 160.394 1724.94 161.833 1725.32 163.05C1725.56 163.837 1726.27 164.398 1727.43 164.733C1728.61 165.088 1730.35 165.306 1732.66 165.387L1729.16 167.152C1726.61 167.084 1724.62 166.842 1723.18 166.426C1721.82 165.987 1721 165.318 1720.72 164.419C1720.21 162.771 1721.82 160.862 1725.56 158.694C1729.38 156.502 1735.01 154.248 1742.47 151.932C1748.35 150.102 1754.25 148.566 1760.16 147.326C1766.06 146.085 1771.05 145.438 1775.12 145.385C1779.27 145.327 1781.6 146.122 1782.11 147.77C1782.51 149.081 1781.53 150.516 1779.15 152.076C1776.85 153.632 1773.69 155.035 1769.67 156.286ZM1777.75 149.125C1777.37 147.908 1775.71 147.286 1772.76 147.258C1769.89 147.226 1766.29 147.615 1761.97 148.426C1757.65 149.255 1753.12 150.333 1748.39 151.662C1750.13 154.384 1752.68 156.034 1756.05 156.61C1759.41 157.186 1763.74 156.652 1769.03 155.007C1771.86 154.127 1774.1 153.165 1775.73 152.122C1777.37 151.079 1778.04 150.08 1777.75 149.125Z" fill="white"/>
<path d="M1724.28 184.25L1752.4 177.257L1752.57 168.794L1724.45 175.787L1724.48 174.367L1782.96 159.797L1782.93 161.218L1757.05 167.688L1756.88 176.15L1782.76 169.68L1782.73 171.1L1724.25 185.67L1724.28 184.25Z" fill="white"/>
<path d="M1759.53 189.768C1758.92 191.841 1756.98 193.775 1753.7 195.568C1750.5 197.342 1746.41 198.89 1741.42 200.214C1737.55 201.242 1733.9 201.973 1730.48 202.409C1727.13 202.825 1724.47 202.782 1722.49 202.28C1720.58 201.758 1719.88 200.639 1720.39 198.922C1720.87 197.295 1722.37 195.345 1724.89 193.073L1780.7 180.484L1780.24 182.022L1760.5 186.491L1759.53 189.768ZM1724.86 197.737C1724.25 199.788 1725.68 200.776 1729.13 200.702C1732.58 200.65 1736.87 199.943 1742.01 198.58C1749.9 196.485 1754.29 193.911 1755.2 190.857L1756.2 187.446L1727.63 193.919C1726.09 195.416 1725.16 196.689 1724.86 197.737Z" fill="white"/>
<path d="M1703.48 235.025L1704.58 233.327L1755.75 223.702L1760.94 215.692L1741.24 218.9C1732.26 220.376 1725.97 221.349 1722.37 221.821C1718.76 222.316 1716.16 222.483 1714.59 222.321C1713.09 222.142 1712.25 221.559 1712.09 220.571L1716.5 219.368C1716.71 220.012 1717.44 220.367 1718.7 220.433C1720.02 220.507 1722.32 220.313 1725.61 219.852C1728.96 219.374 1734.71 218.461 1742.86 217.113L1766.25 213.245L1758.89 224.614L1703.48 235.025Z" fill="white"/>
<path d="M1727.28 251.051C1720.63 252.419 1716.64 252.213 1715.31 250.432C1714.02 248.663 1714.89 245.575 1717.9 241.167L1716.82 241.387C1710.68 242.653 1705.7 244.073 1701.89 245.65C1698.13 247.237 1695.53 248.873 1694.11 250.556C1693.2 251.644 1692.83 252.533 1693.02 253.222C1693.18 253.937 1693.84 254.594 1694.99 255.192L1690.73 256.775C1689.43 256.143 1688.67 255.401 1688.44 254.549C1688.29 253.682 1688.73 252.626 1689.78 251.383C1691.71 249.104 1695.13 246.932 1700.07 244.869C1705.07 242.791 1711.14 241.016 1718.29 239.545C1723.94 238.382 1729.2 237.61 1734.07 237.229C1738.94 236.847 1742.52 237.052 1744.8 237.845C1747.13 238.649 1747.34 240.19 1745.42 242.47C1743.89 244.283 1741.43 245.965 1738.06 247.516C1734.73 249.078 1731.14 250.256 1727.28 251.051ZM1741.23 243.33C1742.66 241.647 1742.58 240.474 1741.01 239.812C1739.5 239.162 1737.02 238.911 1733.58 239.062C1730.13 239.238 1726.22 239.699 1721.87 240.445C1719.18 244.401 1718.37 247.116 1719.43 248.588C1720.49 250.06 1723.56 250.274 1728.64 249.23C1731.35 248.671 1733.85 247.878 1736.14 246.851C1738.42 245.825 1740.12 244.651 1741.23 243.33Z" fill="white"/>
<path d="M1726.08 262.974C1724.32 264.724 1721.69 266.368 1718.21 267.905C1714.8 269.429 1711.29 270.523 1707.67 271.186C1704.11 271.836 1701.42 271.945 1699.58 271.513C1697.78 271.095 1697.29 269.725 1698.09 267.404C1698.75 265.79 1698.8 264.639 1698.24 263.95C1697.73 263.276 1696.83 262.924 1695.55 262.894C1694.32 262.878 1692.69 263.055 1690.67 263.425C1687.68 263.973 1684.86 264.851 1682.23 266.058C1679.66 267.252 1677.69 268.536 1676.3 269.909C1674.95 271.255 1674.2 272.391 1674.07 273.316C1673.97 274.256 1674.37 275.072 1675.27 275.765L1671.05 277.327C1668.77 275.812 1669.11 273.587 1672.06 270.653C1674.01 268.714 1676.84 266.89 1680.55 265.178C1684.31 263.481 1688.35 262.237 1692.66 261.446C1696.64 260.72 1699.51 260.654 1701.3 261.249C1703.13 261.858 1703.59 263.412 1702.66 265.908C1701.89 267.916 1702.15 269.099 1703.44 269.456C1704.77 269.827 1706.83 269.758 1709.62 269.248C1712.13 268.789 1714.54 268.029 1716.86 266.967C1719.15 265.933 1720.9 264.81 1722.12 263.599C1723.18 262.549 1723.75 261.643 1723.84 260.88C1723.92 260.118 1723.57 259.391 1722.79 258.7L1726.93 257.218C1728.8 258.633 1728.52 260.551 1726.08 262.974Z" fill="white"/>
<path d="M1688.99 293.699C1689.21 292.894 1689.03 292.332 1688.46 292.014C1687.93 291.713 1686.65 291.372 1684.61 290.993L1675.95 289.273L1640.83 299.921L1643.24 297.837L1676.01 287.869L1680.11 284.325L1655.89 286.914L1658.11 284.996L1707.36 279.69L1705.14 281.608L1683.82 283.907L1679.81 287.367L1689.09 289.26C1691.17 289.657 1692.49 290.059 1693.06 290.467C1693.64 290.874 1693.73 291.551 1693.36 292.495L1688.99 293.699Z" fill="white"/>
<path d="M1620.66 315.122C1623.93 312.635 1628.26 310.461 1633.66 308.598C1639.12 306.727 1645.05 305.376 1651.44 304.544C1656.29 303.914 1660.68 303.651 1664.61 303.755C1668.6 303.851 1671.19 304.509 1672.37 305.73C1673.61 306.942 1672.54 308.834 1669.15 311.406C1665.84 313.921 1661.54 316.091 1656.25 317.916C1650.92 319.771 1645.05 321.114 1638.66 321.946C1633.88 322.567 1629.46 322.835 1625.4 322.747C1621.36 322.68 1618.69 322.044 1617.39 320.841C1616.14 319.628 1617.23 317.722 1620.66 315.122ZM1624.57 314.648C1621.79 316.762 1621.03 318.294 1622.3 319.242C1623.57 320.19 1626.02 320.664 1629.66 320.664C1633.33 320.685 1637.3 320.417 1641.56 319.863C1646.79 319.182 1651.44 318.151 1655.51 316.769C1659.64 315.379 1662.95 313.741 1665.43 311.855C1668.25 309.711 1669 308.17 1667.66 307.23C1666.29 306.319 1663.81 305.849 1660.2 305.82C1656.56 305.82 1652.64 306.093 1648.44 306.639C1643.21 307.32 1638.53 308.356 1634.4 309.746C1630.33 311.128 1627.06 312.761 1624.57 314.648Z" fill="white"/>
<path d="M1564.63 354.38C1568.61 351.819 1573.35 349.692 1578.84 347.997C1584.39 346.298 1590.09 345.221 1595.94 344.767C1600.38 344.423 1604.25 344.459 1607.55 344.876C1610.91 345.288 1612.8 346.228 1613.22 347.697C1613.7 349.16 1611.88 351.217 1607.77 353.866C1603.74 356.456 1599.03 358.581 1593.64 360.242C1588.21 361.931 1582.57 363.004 1576.72 363.458C1572.34 363.797 1568.44 363.763 1565.02 363.356C1561.61 362.973 1559.64 362.052 1559.1 360.593C1558.62 359.129 1560.47 357.058 1564.63 354.38ZM1568.2 354.142C1564.81 356.32 1563.43 357.993 1564.06 359.16C1564.69 360.328 1566.55 361.05 1569.66 361.327C1572.78 361.628 1576.29 361.628 1580.19 361.325C1584.98 360.953 1589.43 360.141 1593.56 358.889C1597.75 357.632 1601.36 356.033 1604.38 354.09C1607.81 351.883 1609.18 350.197 1608.49 349.034C1607.76 347.901 1605.86 347.181 1602.81 346.875C1599.7 346.598 1596.23 346.609 1592.38 346.907C1587.6 347.278 1583.11 348.093 1578.92 349.35C1574.79 350.602 1571.21 352.199 1568.2 354.142Z" fill="white"/>
<path d="M1512.44 386.797L1515.93 384.747L1534.69 385.57C1534.25 384.586 1534.56 383.45 1535.62 382.159C1536.74 380.866 1538.56 379.477 1541.09 377.991C1544.12 376.209 1547.43 374.735 1551 373.57C1554.59 372.433 1558.03 371.801 1561.33 371.674C1562.38 371.634 1563.16 371.632 1563.66 371.668L1577.48 372.264L1573.99 374.314L1560.42 373.709C1559.97 373.671 1559.22 373.672 1558.18 373.712C1553.39 373.895 1548.56 375.413 1543.71 378.266C1541.24 379.722 1539.55 381.092 1538.65 382.376C1537.76 383.688 1537.72 384.814 1538.54 385.755L1553.45 386.392L1549.96 388.443L1512.44 386.797Z" fill="white"/>
<path d="M1491.13 416.052C1486.39 416.027 1485.44 414.579 1488.25 411.707C1491.06 408.864 1497.01 404.805 1506.09 399.53L1505.33 399.526C1500.96 399.503 1496.69 400.037 1492.52 401.128C1488.36 402.249 1484.49 403.778 1480.93 405.714C1478.63 406.965 1476.88 408.098 1475.68 409.115C1474.43 410.161 1473.44 411.268 1472.73 412.437L1468.41 413.407C1469.13 412.148 1470.23 410.89 1471.72 409.635C1473.26 408.38 1475.34 407.038 1477.97 405.608C1482.79 402.987 1487.91 400.954 1493.34 399.508C1498.83 398.064 1504.11 397.354 1509.2 397.381C1513.22 397.402 1516.39 397.855 1518.72 398.739C1521.05 399.623 1521.87 400.951 1521.18 402.722C1520.49 404.522 1517.74 406.733 1512.92 409.355C1509.08 411.44 1505.18 413.073 1501.21 414.255C1497.23 415.468 1493.87 416.067 1491.13 416.052ZM1509.94 409.339C1513.5 407.403 1515.62 405.745 1516.31 404.365C1517 403.016 1516.62 401.946 1515.2 401.157C1513.72 400.397 1511.57 399.905 1508.75 399.679C1500.6 404.418 1495.35 407.97 1493.01 410.333C1490.67 412.697 1491.3 413.888 1494.92 413.907C1496.85 413.917 1499.14 413.538 1501.78 412.77C1504.43 412.002 1507.15 410.858 1509.94 409.339Z" fill="white"/>
<path d="M1420.51 435.978L1434.7 438.613L1458.87 426.422L1444.68 423.788L1448.74 421.741L1478.34 427.182L1474.28 429.228L1461.11 426.854L1436.94 439.045L1450.11 441.419L1446.05 443.466L1416.45 438.025L1420.51 435.978Z" fill="white"/>
<path d="M1397.44 459.993C1391.64 462.721 1386.51 464.642 1382.05 465.755C1377.64 466.873 1374.06 467.259 1371.3 466.912C1369.16 466.643 1367.82 466.047 1367.28 465.124C1366.78 464.206 1367.46 462.933 1369.3 461.306C1371.19 459.684 1374.53 457.743 1379.34 455.485C1383.9 453.343 1389.16 451.198 1395.14 449.05L1419.63 456.147L1415.32 458.171L1406.62 455.681L1397.44 459.993ZM1381.81 455.795C1376.07 458.494 1372.95 460.574 1372.44 462.036C1371.88 463.527 1373.02 464.451 1375.86 464.808C1380.22 465.356 1386.67 463.621 1395.22 459.603L1404.77 455.114L1392.16 451.519C1388.19 452.991 1384.74 454.416 1381.81 455.795Z" fill="white"/>
<path d="M1279.56 500.148L1284.19 498.185L1301.15 507.478L1323 498.219L1317.89 493.921C1315.52 491.984 1314.03 490.54 1313.43 489.588C1312.76 488.664 1312.81 487.727 1313.6 486.777C1314.42 485.836 1316.27 484.611 1319.13 483.103L1321.66 483.364C1319.77 484.391 1318.6 485.239 1318.15 485.908C1317.67 486.615 1317.75 487.379 1318.39 488.202C1319.06 489.033 1320.49 490.322 1322.66 492.067L1328.9 497.086L1297.89 510.228L1279.56 500.148Z" fill="white"/>
<path d="M1228.8 534.196C1226.26 533.16 1227.67 531.048 1233.04 527.861C1238.37 524.713 1247.02 520.628 1259.01 515.604L1258.6 515.437C1256.25 514.479 1253.22 514.277 1249.5 514.831C1245.73 515.424 1241.59 516.619 1237.07 518.414C1234.14 519.575 1231.68 520.697 1229.67 521.781C1227.59 522.893 1225.57 524.143 1223.62 525.532L1219.97 525.893C1222.05 524.387 1224.33 522.965 1226.82 521.626C1229.33 520.299 1232.25 518.972 1235.59 517.646C1241.72 515.215 1247.22 513.624 1252.1 512.871C1257.02 512.131 1260.84 512.317 1263.57 513.431C1265.73 514.311 1266.85 515.581 1266.94 517.24C1267.02 518.899 1265.7 520.822 1262.96 523.009C1260.18 525.234 1255.72 527.563 1249.6 529.994C1244.73 531.928 1240.43 533.252 1236.69 533.967C1232.91 534.721 1230.28 534.797 1228.8 534.196ZM1248 529.342C1252.53 527.547 1255.9 525.813 1258.11 524.141C1260.29 522.508 1261.51 521.02 1261.79 519.678C1262 518.364 1261.49 517.259 1260.26 516.363C1249.49 520.878 1241.9 524.444 1237.47 527.061C1233.04 529.678 1231.79 531.382 1233.73 532.173C1234.77 532.597 1236.52 532.583 1238.98 532.132C1241.45 531.681 1244.46 530.751 1248 529.342Z" fill="white"/>
<path d="M1194.94 550.939C1190.3 552.676 1186.14 553.868 1182.46 554.516C1178.8 555.178 1176.4 555.166 1175.25 554.482C1174.13 553.811 1174.37 552.744 1175.99 551.283C1177.56 549.861 1181.58 547.65 1188.05 544.649C1192.53 542.608 1195.81 540.962 1197.9 539.71C1199.93 538.498 1201.13 537.581 1201.47 536.957C1201.77 536.374 1201.6 535.891 1200.96 535.51C1200.01 534.944 1198.09 534.937 1195.18 535.49C1192.29 536.056 1189.03 537.021 1185.38 538.384C1181.81 539.72 1178.72 541.028 1176.1 542.308C1173.43 543.627 1171.01 544.993 1168.85 546.403L1165.25 546.753C1170.05 543.52 1176.35 540.447 1184.13 537.534C1189.27 535.61 1193.91 534.25 1198.04 533.455C1202.12 532.7 1204.84 532.73 1206.21 533.546C1207.47 534.296 1207.06 535.508 1204.99 537.183C1202.87 538.898 1198.34 541.356 1191.38 544.558C1185.8 547.119 1182.36 548.951 1181.08 550.054C1179.74 551.197 1179.51 552.032 1180.4 552.558C1181.19 553.032 1182.87 553.026 1185.42 552.54C1187.91 552.082 1190.76 551.251 1193.97 550.049C1196.76 549.006 1199.23 547.952 1201.39 546.885C1203.56 545.819 1205.71 544.607 1207.85 543.249L1211.23 542.979C1206.8 545.88 1201.37 548.534 1194.94 550.939Z" fill="white"/>
<path d="M1114.71 578.64C1116.97 577.571 1118.61 576.676 1119.64 575.958C1120.61 575.279 1121.85 574.202 1123.36 572.727L1130.06 566.299L1106.86 565.783L1112.32 563.858L1134.07 564.29L1143.36 561.017L1140.95 553.768L1145.98 551.997L1150.99 566.675L1145.96 568.446L1143.79 562.093L1134.72 565.289L1127.39 572.251C1125.83 573.768 1124.4 574.952 1123.12 575.804C1121.83 576.656 1119.88 577.68 1117.25 578.878L1114.71 578.64Z" fill="white"/>
<path d="M1067.54 578.661C1073.98 576.542 1079.3 575.358 1083.52 575.109C1087.74 574.877 1090.38 575.61 1091.44 577.309C1092.24 578.596 1092.09 580.208 1090.98 582.145C1089.88 584.099 1087.46 586.228 1083.73 588.533C1080.01 590.855 1074.81 593.111 1068.16 595.303C1061.65 597.445 1056.33 598.638 1052.2 598.88C1048 599.147 1045.36 598.43 1044.3 596.732C1043.51 595.462 1043.66 593.841 1044.75 591.87C1045.78 589.94 1048.15 587.806 1051.86 585.467C1055.58 583.145 1060.81 580.876 1067.54 578.661ZM1068.09 579.752C1062.62 581.554 1058.39 583.431 1055.42 585.381C1052.44 587.332 1050.58 589.135 1049.83 590.788C1049.01 592.484 1048.96 593.898 1049.66 595.03C1050.53 596.42 1052.52 597.037 1055.63 596.881C1058.76 596.742 1062.76 595.869 1067.64 594.262C1073.19 592.436 1077.45 590.539 1080.41 588.571C1083.3 586.627 1085.16 584.816 1085.98 583.138C1086.73 581.484 1086.76 580.1 1086.07 578.985C1085.2 577.595 1083.21 576.969 1080.08 577.108C1076.97 577.264 1072.97 578.145 1068.09 579.752Z" fill="white"/>
<path d="M966.814 610.13C973.316 608.226 978.424 607.292 982.137 607.331C985.851 607.389 987.753 608.419 987.844 610.418C987.912 611.933 987.01 613.743 985.136 615.848C983.263 617.972 980.183 620.195 975.896 622.515C971.609 624.855 966.102 627.01 959.375 628.981C952.798 630.907 947.69 631.85 944.053 631.81C940.341 631.792 938.44 630.783 938.349 628.783C938.282 627.288 939.184 625.469 941.056 623.324C942.854 621.221 945.895 618.989 950.181 616.629C954.468 614.288 960.012 612.122 966.814 610.13ZM966.758 611.405C961.227 613.025 956.726 614.824 953.256 616.803C949.786 618.781 947.335 620.676 945.903 622.487C944.396 624.341 943.673 625.934 943.734 627.268C943.808 628.904 945.21 629.752 947.939 629.813C950.669 629.893 954.501 629.211 959.434 627.766C965.04 626.124 969.577 624.304 973.046 622.305C976.44 620.329 978.891 618.424 980.398 616.591C981.831 614.779 982.517 613.217 982.458 611.904C982.384 610.267 980.981 609.409 978.251 609.329C975.522 609.268 971.691 609.96 966.758 611.405Z" fill="white"/>
<path d="M884.859 633.427L890.004 632.038L883.776 641.753C886.679 640.128 889.867 638.621 893.34 637.232C896.807 635.866 900.405 634.679 904.132 633.673C908.606 632.465 912.139 631.83 914.733 631.766C917.246 631.744 918.342 632.392 918.022 633.709C917.921 634.127 917.766 634.476 917.558 634.758L913.002 641.898L907.857 643.286L912.39 636.246C912.592 635.986 912.744 635.647 912.846 635.23C913.31 633.319 909.963 633.33 902.806 635.262C899.152 636.248 895.581 637.469 892.093 638.923C888.524 640.42 885.31 642.037 882.449 643.773L877.549 651.467L872.404 652.856L884.859 633.427Z" fill="white"/>
<path d="M805.577 666.161C806.625 663.976 810.966 661.44 818.601 658.555C826.151 655.711 836.533 652.528 849.748 649.005L849.916 648.652C850.886 646.632 850.24 645.467 847.979 645.157C845.633 644.89 842.058 645.351 837.255 646.541C834.151 647.31 831.27 648.159 828.611 649.087C825.878 650.033 822.913 651.192 819.716 652.564L817.835 652.005C821.288 650.508 824.656 649.187 827.94 648.042C831.213 646.92 834.623 645.92 838.17 645.041C844.672 643.43 849.43 642.81 852.442 643.182C855.443 643.577 856.381 644.949 855.254 647.299C854.364 649.155 852.413 651.253 849.403 653.593C846.392 655.934 842.425 658.231 837.502 660.486C832.494 662.783 826.738 664.737 820.235 666.348C815.063 667.63 811.195 668.226 808.634 668.136C805.987 668.088 804.968 667.429 805.577 666.161ZM820.894 664.974C825.698 663.784 830.002 662.345 833.806 660.657C837.526 659.01 840.662 657.291 843.214 655.499C845.693 653.726 847.546 652.035 848.773 650.427C836.899 653.596 827.824 656.363 821.547 658.725C815.27 661.088 811.731 663.104 810.931 664.772C810.503 665.665 811.114 666.155 812.765 666.243C814.416 666.331 817.126 665.908 820.894 664.974Z" fill="white"/>
<path d="M763.16 662.974L752.691 673.242L782.572 666.547L793.04 656.278L798.057 655.154L776.381 676.488L771.364 677.612L780.875 668.19L750.994 674.885L741.484 684.308L736.467 685.432L758.143 664.098L763.16 662.974Z" fill="white"/>
<path d="M699.227 687.315C692.622 688.634 688.187 689.089 685.923 688.68C683.636 688.296 683.273 687.227 684.834 685.472C686.046 684.11 688.028 682.637 690.78 681.054C693.509 679.496 697.01 677.957 701.284 676.436C705.534 674.941 710.394 673.647 715.863 672.555C721.048 671.52 726.095 670.803 731.006 670.404L705.648 691.817L700.747 692.796L709.668 685.231L699.227 687.315ZM714.465 674.127C707.93 675.432 702.625 677.03 698.547 678.921C694.399 680.826 691.521 682.683 689.913 684.49C687.443 687.267 691.073 687.684 700.803 685.741L711.67 683.571L724.559 672.628C721.168 672.961 717.803 673.46 714.465 674.127Z" fill="white"/>
<path d="M608.707 691.988L613.365 691.245L583.279 712.425L605.254 708.922L618.604 700.37C624.634 696.485 629.073 693.716 631.922 692.061C634.703 690.416 637.37 689.085 639.924 688.066C642.446 687.074 645.57 686.135 649.295 685.246L648.026 686.774C645.477 687.407 643.292 688.107 641.47 688.873C639.549 689.678 637.346 690.822 634.86 692.306C632.343 693.818 628.363 696.333 622.921 699.852L607.278 709.959L576.088 714.931L608.707 691.988Z" fill="white"/>
<path d="M521.794 718.297C525.282 715.641 531.03 713.221 539.038 711.039C546.943 708.894 556.843 706.902 568.737 705.064L569.3 704.635C572.526 702.179 573.731 700.507 572.914 699.62C571.995 698.77 569.434 698.619 565.231 699.169C562.515 699.524 559.815 700.03 557.129 700.689C554.378 701.356 551.217 702.254 547.645 703.383L547.368 702.248C551.247 701.008 554.844 699.982 558.159 699.17C561.438 698.387 564.628 697.792 567.732 697.387C573.422 696.643 576.838 696.835 577.981 697.964C579.086 699.121 577.763 701.128 574.012 703.984C571.048 706.241 567.185 708.591 562.422 711.036C557.658 713.48 552.432 715.666 546.741 717.592C540.949 719.556 535.208 720.91 529.518 721.653C524.992 722.245 522.092 722.21 520.819 721.548C519.443 720.923 519.768 719.839 521.794 718.297ZM531.712 719.982C535.915 719.433 540.178 718.45 544.503 717.033C548.725 715.653 552.728 714.054 556.509 712.234C560.226 710.423 563.493 708.589 566.308 706.73C555.615 708.388 546.984 710.107 540.413 711.889C533.842 713.67 529.225 715.575 526.562 717.603C525.136 718.688 524.814 719.464 525.595 719.93C526.376 720.396 528.415 720.413 531.712 719.982Z" fill="white"/>
<path d="M480.893 727.192C476.883 727.602 474.33 727.441 473.236 726.71C472.099 726.007 472.628 724.899 474.823 723.386C476.975 721.901 479.975 720.466 483.823 719.081C487.566 717.731 493.062 716.351 500.309 714.94C505.222 714.017 509.253 713.121 512.402 712.254C515.448 711.421 517.826 710.633 519.537 709.888C521.145 709.178 522.56 708.401 523.784 707.556C525.599 706.305 526.016 705.419 525.035 704.899C524.012 704.408 521.927 704.324 518.781 704.646C515.696 704.961 512.594 705.452 509.473 706.118C506.249 706.819 502.843 707.701 499.255 708.762L498.997 707.635C507.254 705.13 514.744 703.533 521.469 702.846C525.911 702.392 528.843 702.526 530.266 703.248C531.584 704.006 530.935 705.288 528.319 707.093C525.913 708.752 522.528 710.326 518.164 711.813C513.697 713.336 507.602 714.84 499.881 716.323C493.708 717.5 489.177 718.595 486.287 719.61C483.294 720.66 480.953 721.767 479.265 722.931C477.745 723.98 477.416 724.732 478.277 725.19C479.076 725.654 480.863 725.744 483.639 725.46C486.045 725.214 488.551 724.809 491.155 724.246C493.759 723.682 496.782 722.902 500.223 721.905L500.297 723.051C492.913 725.244 486.445 726.624 480.893 727.192Z" fill="white"/>
<path d="M418.221 730.91C420.814 730.386 423.032 729.836 424.876 729.261C426.616 728.718 429.44 727.72 433.35 726.264L450.351 719.992L456.62 708.702L461 708.392L455.272 718.898L462.717 718.371L483.948 706.77L487.977 706.485L444.956 730.042L440.926 730.327L459.549 720.128L452.28 720.642L433.878 727.406C429.863 728.895 426.77 729.965 424.598 730.616C422.427 731.268 419.899 731.866 417.015 732.41L418.221 730.91Z" fill="white"/>
<path d="M427.903 709.514C432.633 709.366 434.92 710.068 434.763 711.621C434.555 713.203 431.912 715.466 426.834 718.41C422.987 720.641 418.408 722.908 413.096 725.213C407.732 727.547 402.14 729.536 396.319 731.181C390.447 732.856 385.064 733.769 380.171 733.922C375.386 734.072 373.073 733.384 373.233 731.86C373.338 730.337 375.93 728.104 381.008 725.16C384.804 722.959 389.409 720.677 394.824 718.313C400.133 715.98 405.749 713.962 411.672 712.258C417.544 710.583 422.954 709.668 427.903 709.514ZM424.666 711.345C420.643 711.471 416.148 712.273 411.181 713.75C406.215 715.228 401.444 716.995 396.869 719.051C392.188 721.138 388.154 723.164 384.769 725.127C380.614 727.535 378.439 729.334 378.242 730.522C377.994 731.739 379.664 732.292 383.253 732.18C387.331 732.053 391.879 731.235 396.896 729.728C401.859 728.222 406.656 726.441 411.286 724.383C415.861 722.327 419.816 720.332 423.15 718.399C427.305 715.99 429.506 714.177 429.754 712.959C429.951 711.771 428.255 711.233 424.666 711.345Z" fill="white"/>
<path d="M358.684 709.385C362.789 709.578 364.404 710.545 363.527 712.287C362.593 714.059 359.256 716.415 353.517 719.356C349.168 721.584 344.178 723.798 338.545 725.998C332.854 728.228 327.133 730.051 321.382 731.468C315.572 732.914 310.544 733.537 306.297 733.338C302.145 733.143 300.502 732.191 301.367 730.481C302.186 728.768 305.465 726.441 311.204 723.501C315.494 721.302 320.514 719.074 326.262 716.814C331.906 714.582 337.662 712.728 343.529 711.252C349.338 709.806 354.39 709.184 358.684 709.385ZM355.048 711.209C351.556 711.045 347.339 711.609 342.396 712.901C337.454 714.194 332.54 715.828 327.654 717.803C322.663 719.807 318.254 721.788 314.428 723.749C309.732 726.155 307.016 728.022 306.279 729.349C305.485 730.706 306.645 731.458 309.76 731.604C313.299 731.769 317.568 731.191 322.569 729.87C327.522 728.545 332.465 726.897 337.399 724.923C342.285 722.947 346.612 720.994 350.38 719.063C355.076 716.657 357.821 714.776 358.615 713.419C359.351 712.091 358.162 711.355 355.048 711.209Z" fill="white"/>
<path d="M308.967 705.936L311.877 706.259L285.374 717.515C289.423 716.478 293.075 715.741 296.33 715.305C299.524 714.898 302.175 714.812 304.284 715.047C306.814 715.328 307.903 716.011 307.55 717.097C307.094 718.207 305.014 719.644 301.311 721.409C300.138 721.968 299.17 722.405 298.407 722.719L278.925 731.001L276.015 730.677L295.219 722.528C295.921 722.243 296.858 721.821 298.031 721.262C303.4 718.703 304.06 717.198 300.012 716.748C297.945 716.519 295.192 716.666 291.751 717.19C288.206 717.74 284.246 718.623 279.869 719.842L258.871 728.772L255.961 728.448L308.967 705.936Z" fill="white"/>
<path d="M231.704 717.382C237.738 714.689 244.094 712.986 250.771 712.27C257.347 711.576 264.309 711.677 271.657 712.572L272.63 712.138C278.21 709.648 281.676 707.666 283.028 706.19C284.278 704.736 283.696 703.781 281.284 703.325C279.725 703.03 277.893 702.952 275.787 703.089C273.645 703.22 270.942 703.554 267.677 704.091L269.664 702.426C273.234 701.823 276.318 701.438 278.915 701.27C281.447 701.13 283.604 701.229 285.385 701.566C288.652 702.184 289.442 703.446 287.757 705.353C286.007 707.29 281.888 709.705 275.4 712.6C270.274 714.887 264.675 717.043 258.602 719.069C252.53 721.094 246.776 722.623 241.343 723.657C235.807 724.712 231.405 724.93 228.139 724.313C225.541 723.821 224.635 722.929 225.422 721.635C226.106 720.363 228.2 718.945 231.704 717.382ZM231.935 722.619C234.347 723.076 237.575 722.944 241.619 722.225C245.56 721.527 249.829 720.46 254.428 719.021C258.989 717.575 263.444 715.965 267.791 714.191C261.176 713.393 255.137 713.281 249.675 713.856C244.212 714.43 239.178 715.745 234.571 717.8C232.105 718.9 230.576 719.889 229.984 720.766C229.392 721.644 230.042 722.261 231.935 722.619Z" fill="white"/>
<path d="M249.58 693.492L222.368 703.626L235.351 707.491L262.563 697.357L264.743 698.006L208.191 719.093L206.011 718.444L231.002 709.102L218.019 705.237L193.028 714.579L190.848 713.93L247.401 692.843L249.58 693.492Z" fill="white"/>
<path d="M193.152 699.744C190.743 698.656 190.358 697.301 191.997 695.679C193.566 694.084 196.699 692.369 201.397 690.533C205.044 689.109 208.847 687.874 212.809 686.828C216.7 685.81 220.38 685.168 223.849 684.904C227.248 684.667 229.944 684.999 231.939 685.9C233.83 686.754 234.839 688.007 234.966 689.659L178.949 709.188L177.162 708.381L196.96 701.464L193.152 699.744ZM227.732 687.544C225.349 686.467 221.873 686.374 217.305 687.264C212.711 688.142 207.996 689.527 203.157 691.417C195.725 694.321 193.783 696.574 197.332 698.177L201.295 699.967L229.934 689.956C229.683 688.898 228.949 688.093 227.732 687.544Z" fill="white"/>
<path d="M198.481 665.399L199.643 666.438L145.27 683.48L150.752 688.384L172.459 682.048C182.326 679.155 189.332 677.156 193.478 676.05C197.607 674.929 200.866 674.21 203.253 673.893C205.567 673.602 207.611 673.658 209.383 674.062L205.273 675.701C203.99 675.461 202.44 675.482 200.624 675.766C198.719 676.06 195.9 676.718 192.169 677.741C188.365 678.789 181.991 680.628 173.049 683.258L147.367 690.807L139.587 683.847L198.481 665.399Z" fill="white"/>
<path d="M141.17 664.064C148.049 661.797 153.782 660.901 158.371 661.374C162.875 661.855 166.528 663.464 169.33 666.202L170.439 665.836C176.8 663.74 181.334 661.863 184.04 660.206C186.661 658.556 187.62 657.174 186.917 656.061C186.463 655.342 185.571 654.85 184.242 654.585C182.902 654.303 180.985 654.169 178.493 654.184L181.797 652.412C184.544 652.376 186.736 652.522 188.374 652.851C189.938 653.204 190.979 653.792 191.499 654.614C192.451 656.12 191.195 657.951 187.731 660.106C184.193 662.286 178.726 664.595 171.329 667.032C165.486 668.958 159.56 670.611 153.551 671.992C147.542 673.372 142.37 674.167 138.034 674.375C133.612 674.591 130.926 673.946 129.974 672.439C129.217 671.241 129.916 669.873 132.072 668.335C134.144 666.804 137.176 665.381 141.17 664.064ZM134.301 671.013C135.004 672.126 136.936 672.638 140.096 672.548C143.171 672.465 146.921 671.963 151.344 671.044C155.756 670.106 160.33 668.93 165.065 667.514C162.532 665.06 159.396 663.632 155.656 663.231C151.917 662.829 147.422 663.493 142.171 665.224C139.36 666.15 137.208 667.128 135.714 668.159C134.22 669.189 133.749 670.14 134.301 671.013Z" fill="white"/>
<path d="M124.173 658.381C123.828 657.154 124.815 655.762 127.133 654.204C129.376 652.67 132.436 651.304 136.313 650.106C140.116 648.931 143.601 648.213 146.769 647.952C149.857 647.696 152.67 648.191 155.208 649.438C156.836 650.33 158.565 650.863 160.396 651.036C162.148 651.213 163.912 651.15 165.691 650.847C167.39 650.547 169.32 650.064 171.482 649.396C174.688 648.405 177.136 647.31 178.825 646.111C180.44 644.935 181.112 643.865 180.842 642.902C180.577 641.958 179.814 641.261 178.553 640.809C177.212 640.362 175.394 640.092 173.1 640.001L176.376 638.25C181.838 638.368 184.858 639.456 185.435 641.514C185.817 642.873 184.827 644.4 182.467 646.094C180.026 647.792 176.495 649.355 171.872 650.783C167.622 652.097 163.82 652.841 160.466 653.015C157.032 653.194 153.99 652.605 151.34 651.249C149.25 650.151 147.052 649.681 144.746 649.839C142.361 650.001 139.677 650.543 136.695 651.465C134.011 652.294 131.925 653.236 130.439 654.291C128.947 655.326 128.32 656.269 128.558 657.119C128.765 657.855 129.406 658.406 130.48 658.771C131.555 659.137 133.163 659.379 135.303 659.497L132.011 661.192C127.262 661.018 124.649 660.081 124.173 658.381Z" fill="white"/>
<path d="M126.478 635.304C127.441 635.722 128.556 635.932 129.822 635.935C131.014 635.939 133.288 635.774 136.644 635.44L151.074 634.069L182.076 620.547L182.057 622.087L153.189 634.717L153.157 637.336L181.959 630.159L181.942 631.576L123.441 646.189L123.458 644.772L148.786 638.444L148.817 635.887L133.269 637.335C129.839 637.67 127.416 637.817 126.001 637.775C124.587 637.733 123.398 637.452 122.436 636.931L126.478 635.304Z" fill="white"/>
<path d="M185.684 608.679C185.13 610.613 182.649 612.67 178.24 614.85C173.757 617.05 167.829 619.13 160.456 621.092C154.87 622.579 149.33 623.786 143.835 624.714C138.266 625.662 133.73 626.006 130.227 625.747C126.649 625.508 125.146 624.388 125.72 622.386C126.28 620.429 128.725 618.382 133.052 616.244C137.386 614.085 143.24 612.024 150.613 610.062C156.124 608.595 161.702 607.378 167.345 606.41C172.921 605.44 177.535 605.065 181.187 605.284C184.765 605.523 186.264 606.655 185.684 608.679ZM181.113 609.864C181.585 608.218 180.22 607.339 177.019 607.225C173.818 607.112 169.749 607.506 164.812 608.409C159.807 609.31 154.846 610.414 149.931 611.722C143.898 613.327 139.203 614.947 135.846 616.58C132.414 618.232 130.488 619.792 130.067 621.26C129.59 622.928 130.988 623.809 134.264 623.903C137.546 623.974 141.652 623.57 146.583 622.689C151.52 621.786 156.409 620.69 161.25 619.402C167.283 617.797 172.015 616.168 175.447 614.515C178.804 612.882 180.693 611.332 181.113 609.864Z" fill="white"/>
<path d="M200.346 577.049C198.948 579.193 195.847 581.329 191.045 583.457C186.169 585.602 180.118 587.502 172.891 589.159C167.415 590.414 162.113 591.357 156.983 591.989C151.779 592.636 147.746 592.681 144.882 592.122C141.945 591.58 141.2 590.2 142.646 587.982C144.061 585.813 147.125 583.686 151.838 581.599C156.568 579.488 162.546 577.604 169.773 575.947C175.175 574.709 180.515 573.757 185.791 573.093C191.01 572.42 195.125 572.347 198.134 572.872C201.071 573.414 201.809 574.807 200.346 577.049ZM195.88 578.042C197.07 576.218 196.327 575.12 193.651 574.749C190.975 574.377 187.316 574.514 182.673 575.159C177.974 575.796 173.215 576.667 168.397 577.772C162.484 579.127 157.705 580.6 154.06 582.19C150.343 583.797 147.954 585.413 146.893 587.04C145.687 588.888 146.459 589.989 149.208 590.344C151.972 590.675 155.668 590.529 160.295 589.909C164.937 589.264 169.631 588.397 174.376 587.31C180.289 585.954 185.105 584.473 188.822 582.866C192.467 581.276 194.82 579.668 195.88 578.042Z" fill="white"/>
<path d="M220.48 549.463L218.954 551.254L192.228 555.536C194.359 555.871 195.713 556.462 196.288 557.308C196.792 558.169 196.491 559.248 195.385 560.546C194.058 562.104 191.878 563.589 188.846 565.002C185.765 566.404 182.082 567.544 177.798 568.421C176.442 568.699 175.393 568.892 174.652 569.001L154.984 572.159L156.51 570.368L175.857 567.276C176.526 567.181 177.54 566.995 178.896 566.718C185.108 565.446 189.276 563.564 191.4 561.073C192.484 559.801 192.631 558.764 191.841 557.961C191.002 557.147 189.292 556.63 186.71 556.408L165.502 559.817L167.028 558.026L220.48 549.463Z" fill="white"/>
<path d="M203.694 530.962C210.149 529.799 213.711 530.216 214.379 532.212C215.005 534.193 213.28 537.501 209.201 542.137L210.243 541.95C216.212 540.875 221.167 539.575 225.109 538.049C229.009 536.509 231.861 534.861 233.664 533.103C234.83 531.967 235.433 531.021 235.474 530.264C235.543 529.481 235.147 528.736 234.285 528.032L238.636 526.521C239.623 527.269 240.089 528.111 240.034 529.046C239.91 529.995 239.182 531.118 237.85 532.415C235.408 534.795 231.634 536.984 226.526 538.984C221.349 540.997 215.29 542.628 208.349 543.878C202.866 544.865 197.854 545.448 193.314 545.626C188.774 545.805 185.588 545.409 183.754 544.438C181.879 543.453 182.162 541.771 184.604 539.392C186.546 537.499 189.287 535.793 192.826 534.274C196.323 532.741 199.946 531.637 203.694 530.962ZM188.664 538.661C186.861 540.418 186.57 541.694 187.793 542.488C188.973 543.267 191.147 543.658 194.312 543.661C197.506 543.637 201.191 543.326 205.37 542.728C209.018 538.566 210.585 535.661 210.07 534.013C209.554 532.364 206.833 531.983 201.905 532.871C199.267 533.346 196.755 534.085 194.368 535.088C191.98 536.091 190.079 537.282 188.664 538.661Z" fill="white"/>
<path d="M268.339 504.444L244.971 506.776L231.234 518.278L254.602 515.946L252.296 517.877L203.654 522.762L205.96 520.831L227.523 518.638L241.26 507.136L219.697 509.33L222.004 507.399L270.645 502.514L268.339 504.444Z" fill="white"/>
<path d="M262.109 487.876C265.719 485.204 269.674 483.065 273.976 481.457C278.214 479.857 282.473 478.794 286.754 478.267C290.075 477.858 292.823 477.795 294.997 478.078C297.106 478.369 298.181 479.111 298.221 480.303C298.196 481.504 296.689 483.21 293.701 485.422C290.867 487.52 287.074 489.795 282.322 492.248L238.028 495.117L240.706 493.134L256.403 492.099L262.109 487.876ZM289.868 485.894C293.439 483.251 294.423 481.537 292.82 480.753C291.257 479.94 288.271 479.804 283.863 480.347C277.091 481.181 271.047 483.566 265.729 487.502L259.79 491.898L282.512 490.393C285.592 488.744 288.043 487.245 289.868 485.894Z" fill="white"/>
<path d="M359.254 440.499L356.041 442.534L318.52 442.544L303.36 452.144L317.001 452.819C323.239 453.106 327.512 453.39 329.819 453.67C332.172 453.92 333.556 454.358 333.971 454.983C334.326 455.611 333.743 456.621 332.221 458.012L328.382 458.522C329.334 457.59 329.592 456.918 329.156 456.504C328.708 456.065 327.407 455.739 325.253 455.527C323.04 455.318 319.095 455.09 313.419 454.841L297.127 454.12L318.645 440.494L359.254 440.499Z" fill="white"/>
<path d="M374.907 412.53C379.971 412.368 381.352 413.672 379.05 416.443C376.745 419.186 371.387 423.179 362.977 428.421L363.794 428.395C368.477 428.245 372.91 427.583 377.092 426.409C381.27 425.208 385.024 423.641 388.352 421.708C390.503 420.459 392.095 419.34 393.128 418.352C394.212 417.334 394.99 416.269 395.463 415.158L399.848 414.091C399.385 415.286 398.514 416.493 397.235 417.714C395.901 418.937 394.005 420.262 391.547 421.69C387.041 424.306 382.063 426.391 376.614 427.942C371.109 429.495 365.635 430.359 360.189 430.533C355.887 430.671 352.382 430.376 349.674 429.648C346.966 428.92 345.761 427.723 346.059 426.056C346.355 424.36 348.755 422.204 353.261 419.588C356.846 417.506 360.615 415.84 364.569 414.589C368.52 413.311 371.966 412.624 374.907 412.53ZM356.447 419.485C353.119 421.418 351.257 423.037 350.862 424.342C350.463 425.619 351.123 426.596 352.841 427.271C354.611 427.917 357.031 428.289 360.104 428.387C367.647 423.678 372.379 420.183 374.3 417.902C376.222 415.621 375.25 414.542 371.383 414.666C369.314 414.732 366.96 415.173 364.322 415.988C361.683 416.803 359.059 417.969 356.447 419.485Z" fill="white"/>
<path d="M394.674 396.569C398.256 394.633 402.035 393.062 406.011 391.857C409.937 390.651 413.214 390.061 415.84 390.085C418.416 390.109 419.749 390.651 419.841 391.712C419.937 392.743 417.939 394.739 413.847 397.7C410.958 399.733 409.078 401.291 408.205 402.374C407.337 403.426 407.153 404.136 407.653 404.504C408.158 404.842 409.143 405.018 410.608 405.031C412.779 405.051 415.406 404.576 418.487 403.605C421.518 402.633 424.438 401.388 427.249 399.869C430.004 398.379 432.158 397.021 433.71 395.793C435.267 394.535 436.413 393.319 437.148 392.144L441.48 391.094C440.015 393.746 436.279 396.695 430.272 399.942C426.305 402.086 422.142 403.85 417.784 405.234C413.431 406.587 409.689 407.249 406.557 407.22C403.679 407.194 402.336 406.545 402.529 405.275C402.727 403.974 405.039 401.739 409.466 398.569C413.039 396.027 414.838 394.347 414.861 393.529C414.889 392.681 413.892 392.248 411.872 392.229C410.054 392.213 407.79 392.631 405.081 393.484C402.427 394.308 399.86 395.39 397.38 396.73C395.231 397.892 393.523 398.982 392.255 400C390.988 401.018 389.963 402.099 389.182 403.243L385.015 404.205C386.495 401.795 389.714 399.25 394.674 396.569Z" fill="white"/>
<path d="M460.211 364.156C458.817 365.199 457.985 366.011 457.715 366.59C457.457 367.137 457.46 367.931 457.723 368.971L458.665 373.538L490.943 368.015L486.54 370.24L456.373 375.439L448.889 379.221L463.47 381.899L459.42 383.946L429.701 378.559L433.752 376.512L446.622 378.842L453.93 375.149L452.999 370.186C452.748 369.113 452.829 368.225 453.242 367.522C453.654 366.818 454.704 365.871 456.391 364.679L460.211 364.156Z" fill="white"/>
<path d="M524.147 352.446C518.727 355 513.355 356.855 508.03 358.013C502.664 359.166 497.936 359.49 493.846 358.985C490.748 358.603 488.439 357.837 486.919 356.686C485.357 355.531 485.309 353.97 486.774 352.002C488.197 350.03 491.712 347.723 497.319 345.082C502.801 342.499 508.152 340.641 513.374 339.508C518.657 338.345 523.344 338.016 527.434 338.52C530.491 338.897 532.821 339.666 534.423 340.827C536.047 341.953 536.168 343.504 534.786 345.482C533.362 347.454 529.816 349.776 524.147 352.446ZM521.7 352.089C526.31 349.917 529.108 348.022 530.094 346.403C531.08 344.784 530.791 343.508 529.228 342.574C527.686 341.606 525.551 340.954 522.824 340.618C519.478 340.205 515.816 340.42 511.838 341.262C507.819 342.1 503.754 343.487 499.642 345.424C494.97 347.625 492.162 349.538 491.217 351.162C490.334 352.756 490.643 354.035 492.144 354.998C493.708 355.932 495.832 356.564 498.518 356.895C501.864 357.308 505.547 357.096 509.566 356.258C513.544 355.416 517.588 354.026 521.7 352.089Z" fill="white"/>
</svg>
